<svg width="133" height="57" viewBox="0 0 133 57" fill="none" xmlns="http://www.w3.org/2000/svg">
<path fill-rule="evenodd" clip-rule="evenodd" d="M7.10885 12.888C7.15685 13.032 7.20005 13.1808 7.23845 13.3344C7.27685 13.6032 7.31525 13.8144 7.35365 13.968C7.37285 14.0448 7.41125 14.1936 7.46885 14.4144C7.52645 14.6352 7.55525 14.7744 7.55525 14.832C7.59365 14.9472 7.61285 15.0288 7.61285 15.0768C7.61285 15.1248 7.63205 15.216 7.67045 15.3504C7.70885 15.4464 7.73285 15.5472 7.74245 15.6528C7.75205 15.7584 7.76645 15.8592 7.78565 15.9552C7.82405 16.3008 7.88645 16.6656 7.97285 17.0496C8.05925 17.4336 8.15045 17.808 8.24645 18.1728C8.34245 18.5376 8.45285 18.8784 8.57765 19.1952C8.70245 19.512 8.83205 19.7664 8.96645 19.9584C9.12005 20.1696 9.26405 20.3088 9.39845 20.376C9.53285 20.4432 9.70565 20.4768 9.91685 20.4768C10.0705 20.4768 10.1856 20.4672 10.2625 20.448C10.3009 20.448 10.3488 20.4432 10.4064 20.4336C10.4641 20.424 10.5216 20.4192 10.5792 20.4192H11.4721C11.5105 20.4192 11.6304 20.4096 11.832 20.3904C12.0337 20.3712 12.1536 20.3616 12.192 20.3616C12.3265 20.3616 12.456 20.3664 12.5808 20.376C12.7057 20.3856 12.8352 20.3904 12.9697 20.3904H13.2289C13.3441 20.3904 13.4688 20.3856 13.6032 20.376C13.7376 20.3664 13.8624 20.3616 13.9776 20.3616H14.208C14.4193 20.4 14.5681 20.4048 14.6545 20.376C14.7409 20.3472 14.8992 20.2464 15.1297 20.0736C15.3025 19.92 15.4177 19.8096 15.4753 19.7424C15.5329 19.6752 15.5808 19.5456 15.6193 19.3536C15.6577 19.2768 15.6817 19.2 15.6912 19.1232C15.7008 19.0464 15.7153 18.9696 15.7345 18.8928C15.8113 18.72 15.8593 18.5664 15.8785 18.432C15.9169 18.3168 15.9457 18.1968 15.9649 18.072C15.9841 17.9472 16.0128 17.8176 16.0513 17.6832L16.3968 16.56C16.416 16.5024 16.4401 16.3968 16.4689 16.2432C16.4977 16.0896 16.5312 15.9312 16.5696 15.768C16.6081 15.6048 16.6464 15.4464 16.6848 15.2928C16.7233 15.1392 16.752 15.0144 16.7712 14.9184C16.7905 14.8224 16.824 14.6496 16.8721 14.4C16.9201 14.1504 16.9681 13.8864 17.0161 13.608C17.0641 13.3296 17.1121 13.0704 17.1601 12.8304C17.2081 12.5904 17.2512 12.4224 17.2896 12.3264C17.3281 12.2112 17.3712 12.0912 17.4192 11.9664C17.4672 11.8416 17.5104 11.712 17.5489 11.5776C17.5681 11.52 17.5968 11.3952 17.6353 11.2032C17.6737 11.0112 17.7168 10.8096 17.7648 10.5984C17.8128 10.3872 17.856 10.1856 17.8945 9.9936C17.9329 9.8016 17.9712 9.6672 18.0097 9.5904C18.0289 9.5136 18.048 9.4416 18.0673 9.3744C18.0865 9.3072 18.1056 9.2448 18.1249 9.1872C18.1633 9.0912 18.1825 8.9856 18.1825 8.8704C18.1825 8.7552 18.2016 8.6496 18.2401 8.5536C18.2785 8.4576 18.312 8.3664 18.3408 8.28C18.3696 8.1936 18.3937 8.1024 18.4129 8.0064C18.4705 7.776 18.4993 7.5456 18.4993 7.3152C18.5377 6.9888 18.6096 6.672 18.7153 6.3648C18.8209 6.0576 18.9216 5.7504 19.0176 5.4432C19.1137 5.0976 19.1904 4.752 19.248 4.4064C19.3056 4.0608 19.3632 3.7056 19.4208 3.3408C19.4784 2.976 19.5217 2.7216 19.5505 2.5776C19.5793 2.4336 19.6416 2.2176 19.7376 1.9296C19.8529 1.6416 19.9104 1.3728 19.9104 1.1232C19.9104 1.008 19.8961 0.878401 19.8673 0.7344C19.8385 0.590399 19.8145 0.5088 19.7952 0.4896C19.7568 0.355199 19.6465 0.24 19.4641 0.144C19.2816 0.0479995 19.0561 0 18.7872 0C18.7296 0 18.6145 0.0143999 18.4417 0.0432C18.2688 0.0720001 18.1633 0.0864 18.1249 0.0864H17.9809L17.9521 0.0576H17.4337C17.376 0.0576 17.2993 0.0671999 17.2032 0.0864C17.1264 0.0864 17.0545 0.0911999 16.9873 0.1008C16.92 0.1104 16.8673 0.1152 16.8288 0.1152C16.7904 0.1152 16.7377 0.1104 16.6705 0.1008C16.6032 0.0911999 16.5217 0.0864 16.4256 0.0864C16.3296 0.0671999 16.2432 0.0576 16.1664 0.0576H15.9937C15.6096 0.0576 15.3697 0.177599 15.2737 0.4176C15.1776 0.657601 15.0913 1.008 15.0145 1.4688C14.9952 1.5648 14.9808 1.656 14.9712 1.7424C14.9616 1.8288 14.9473 1.92 14.9281 2.016C14.8896 2.208 14.8417 2.3952 14.784 2.5776C14.7264 2.76 14.6785 2.9472 14.64 3.1392C14.6208 3.1968 14.6017 3.3072 14.5824 3.4704C14.5632 3.6336 14.5393 3.8064 14.5105 3.9888C14.4817 4.1712 14.4577 4.344 14.4384 4.5072C14.4192 4.6704 14.4001 4.7808 14.3808 4.8384C14.3424 4.9728 14.3089 5.1024 14.2801 5.2272C14.2513 5.352 14.2177 5.4912 14.1792 5.6448C14.1792 5.6832 14.1457 5.8464 14.0785 6.1344C14.0112 6.4224 13.9345 6.7392 13.8481 7.0848C13.7617 7.4304 13.6849 7.7664 13.6177 8.0928C13.5504 8.4192 13.5073 8.6208 13.4881 8.6976C13.4496 8.8704 13.4209 9.0432 13.4017 9.216C13.3825 9.3888 13.3537 9.5616 13.3153 9.7344C13.3153 9.7536 13.2817 9.8976 13.2144 10.1664C13.1472 10.4352 13.0657 10.7376 12.9697 11.0736C12.8736 11.4096 12.7824 11.736 12.696 12.0528C12.6096 12.3696 12.5377 12.5856 12.4801 12.7008C12.4608 12.7392 12.4369 12.8064 12.4081 12.9024C12.3793 12.9984 12.3553 13.056 12.3361 13.0752C12.2976 13.1328 12.2497 13.1616 12.192 13.1616C12.096 13.1616 12.0193 13.1088 11.9616 13.0032C11.904 12.8976 11.8513 12.7632 11.8032 12.6C11.7552 12.4368 11.712 12.2688 11.6736 12.096C11.6352 11.9232 11.6065 11.7792 11.5873 11.664C11.5489 11.5104 11.5201 11.3616 11.5009 11.2176C11.4816 11.0736 11.4529 10.9248 11.4145 10.7712C11.376 10.6752 11.3425 10.5744 11.3137 10.4688C11.2849 10.3632 11.2609 10.2624 11.2417 10.1664C11.2032 10.0128 11.1793 9.8496 11.1697 9.6768C11.16 9.504 11.1361 9.3312 11.0977 9.1584C11.0592 9.0048 11.0257 8.856 10.9969 8.712C10.9681 8.568 10.9345 8.4192 10.896 8.2656C10.8576 8.1696 10.8337 8.064 10.824 7.9488C10.8144 7.8336 10.7905 7.7184 10.752 7.6032C10.7136 7.4496 10.6657 7.2912 10.608 7.128C10.5504 6.9648 10.5024 6.8064 10.464 6.6528C10.4256 6.5184 10.4064 6.3936 10.4064 6.2784C10.4064 6.1632 10.3969 6.048 10.3776 5.9328C10.3584 5.8368 10.344 5.7552 10.3344 5.688C10.3248 5.6208 10.3105 5.5488 10.2913 5.472C10.272 5.3952 10.2481 5.2704 10.2193 5.0976C10.1905 4.9248 10.1617 4.7472 10.1329 4.5648C10.1041 4.3824 10.0753 4.2048 10.0465 4.032C10.0177 3.8592 10.0033 3.744 10.0033 3.6864C9.94565 3.3792 9.87365 3.0864 9.78725 2.808C9.70085 2.5296 9.61925 2.2368 9.54245 1.9296C9.52325 1.872 9.49925 1.7808 9.47045 1.656C9.44165 1.5312 9.41285 1.3968 9.38405 1.2528C9.35525 1.1088 9.33125 0.974401 9.31205 0.8496C9.29285 0.724799 9.27365 0.6336 9.25445 0.576C9.19685 0.422399 9.07685 0.2976 8.89445 0.2016C8.71205 0.1056 8.51525 0.0576 8.30405 0.0576C8.26565 0.0576 8.16005 0.0623999 7.98725 0.072C7.81445 0.0816 7.70885 0.0864 7.67045 0.0864C7.61285 0.0864 7.50245 0.0816 7.33925 0.072C7.17605 0.0623999 7.07525 0.0576 7.03685 0.0576C6.96005 0.0576 6.80645 0.0671999 6.57605 0.0864C6.34565 0.1056 6.20165 0.1152 6.14405 0.1152C6.08645 0.1152 5.97125 0.1056 5.79845 0.0864C5.62565 0.0671999 5.52005 0.0576 5.48165 0.0576C5.28965 0.0576 5.08325 0.134399 4.86245 0.288C4.64165 0.441601 4.53125 0.681598 4.53125 1.008C4.53125 1.2576 4.56005 1.512 4.61765 1.7712C4.67525 2.0304 4.72325 2.2368 4.76165 2.3904C4.80005 2.544 4.83365 2.688 4.86245 2.8224C4.89125 2.9568 4.92485 3.1008 4.96325 3.2544C5.00165 3.3696 5.02565 3.4896 5.03525 3.6144C5.04485 3.7392 5.06885 3.8592 5.10725 3.9744C5.12645 4.0704 5.15045 4.1712 5.17925 4.2768C5.20805 4.3824 5.23205 4.4832 5.25125 4.5792C5.28965 4.656 5.32805 4.8144 5.36645 5.0544C5.40485 5.2944 5.43365 5.4432 5.45285 5.5008C5.49125 5.6544 5.52005 5.7984 5.53925 5.9328C5.55845 6.0672 5.58725 6.2112 5.62565 6.3648C5.66405 6.576 5.71685 6.7968 5.78405 7.0272C5.85125 7.2576 5.90405 7.4784 5.94245 7.6896C5.96165 7.7856 5.99525 7.9584 6.04325 8.208C6.09125 8.4576 6.12485 8.6208 6.14405 8.6976L6.23045 9.3024C6.26885 9.456 6.31205 9.6144 6.36005 9.7776C6.40805 9.9408 6.45125 10.0992 6.48965 10.2528C6.50885 10.3488 6.52325 10.4544 6.53285 10.5696C6.54245 10.6848 6.56645 10.7904 6.60485 10.8864C6.60485 10.9248 6.61925 11.0064 6.64805 11.1312C6.67685 11.256 6.71045 11.4 6.74885 11.5632L6.86405 12.0528C6.90245 12.216 6.94085 12.3456 6.97925 12.4416C7.01765 12.5952 7.06085 12.744 7.10885 12.888ZM27.238 0.0576C26.9884 0.0768001 26.8348 0.0864 26.7772 0.0864H25.7116C25.654 0.0864 25.558 0.0816 25.4236 0.072C25.2892 0.0623999 25.15 0.0576 25.006 0.0576C24.862 0.0576 24.7228 0.0528 24.5884 0.0432C24.454 0.0336 24.358 0.0288 24.3004 0.0288C24.2428 0.0288 24.1324 0.0336 23.9692 0.0432C23.806 0.0528 23.638 0.0576 23.4652 0.0576C23.2924 0.0576 23.1292 0.0623999 22.9756 0.072C22.822 0.0816 22.7164 0.0864 22.6588 0.0864C22.5628 0.0864 22.3804 0.0816 22.1116 0.072C21.8428 0.0623999 21.6604 0.0576 21.5644 0.0576C21.238 0.0576 20.998 0.153599 20.8444 0.3456C20.6908 0.537601 20.5948 0.681599 20.5564 0.7776C20.518 0.8352 20.4844 0.940799 20.4556 1.0944C20.4268 1.248 20.4124 1.5456 20.4124 1.9872C20.4124 2.0448 20.4172 2.1408 20.4268 2.2752C20.4364 2.4096 20.446 2.5584 20.4556 2.7216C20.4652 2.8848 20.4748 3.0336 20.4844 3.168C20.494 3.3024 20.4988 3.3984 20.4988 3.456C20.4988 3.4944 20.494 3.5856 20.4844 3.7296C20.4748 3.8736 20.47 4.0272 20.47 4.1904C20.47 4.3536 20.4652 4.5072 20.4556 4.6512C20.446 4.7952 20.4412 4.8864 20.4412 4.9248C20.4412 5.136 20.4316 5.352 20.4124 5.5728C20.3932 5.7936 20.3836 6.0192 20.3836 6.2496C20.3836 6.3456 20.398 6.5472 20.4268 6.8544C20.4556 7.1616 20.47 7.3632 20.47 7.4592C20.47 7.5168 20.4604 7.6464 20.4412 7.848C20.422 8.0496 20.4124 8.1792 20.4124 8.2368C20.3932 8.3328 20.3836 8.4144 20.3836 8.4816V10.7136C20.3836 10.8096 20.3884 10.992 20.398 11.2608C20.4076 11.5296 20.4124 11.7024 20.4124 11.7792V12.0384C20.4124 12.1536 20.4172 12.2736 20.4268 12.3984C20.4364 12.5232 20.4412 12.6432 20.4412 12.7584V12.9888C20.4412 13.0464 20.4364 13.1712 20.4268 13.3632C20.4172 13.5552 20.4124 13.68 20.4124 13.7376C20.4124 13.9872 20.4076 14.2752 20.398 14.6016C20.3884 14.928 20.3836 15.216 20.3836 15.4656C20.3836 15.5232 20.3884 15.6096 20.398 15.7248C20.4076 15.84 20.4124 15.9696 20.4124 16.1136C20.4124 16.2576 20.4172 16.3872 20.4268 16.5024C20.4364 16.6176 20.4412 16.704 20.4412 16.7616V17.28C20.4412 17.4528 20.4508 17.6208 20.47 17.784C20.4892 17.9472 20.4988 18.1152 20.4988 18.288C20.4988 18.3456 20.494 18.4752 20.4844 18.6768C20.4748 18.8784 20.47 19.008 20.47 19.0656C20.47 19.2768 20.518 19.488 20.614 19.6992C20.71 19.9104 20.8156 20.064 20.9308 20.16C21.0844 20.2944 21.2428 20.3712 21.406 20.3904C21.5692 20.4096 21.6892 20.4192 21.766 20.4192H22.1404C22.3132 20.4192 22.4956 20.4096 22.6876 20.3904H23.6092C23.7052 20.3904 23.8732 20.3952 24.1132 20.4048C24.3532 20.4144 24.6076 20.4192 24.8764 20.4192C25.1452 20.4384 25.3948 20.4528 25.6252 20.4624C25.8556 20.472 26.0188 20.4768 26.1148 20.4768C26.1916 20.4768 26.3692 20.472 26.6476 20.4624C26.926 20.4528 27.2284 20.4384 27.5548 20.4192C27.862 20.4192 28.1404 20.4144 28.39 20.4048C28.6396 20.3952 28.774 20.3904 28.7932 20.3904H29.0668C29.1916 20.3904 29.3308 20.4 29.4844 20.4192C29.638 20.4192 29.7772 20.424 29.902 20.4336C30.0268 20.4432 30.1084 20.448 30.1468 20.448C30.2044 20.448 30.2956 20.4432 30.4204 20.4336C30.5452 20.424 30.6844 20.4096 30.838 20.3904C30.9916 20.3904 31.1308 20.3856 31.2556 20.376C31.3804 20.3664 31.462 20.3616 31.5004 20.3616H31.7164C31.822 20.3616 31.9228 20.3712 32.0188 20.3904C32.1148 20.3904 32.206 20.3952 32.2924 20.4048C32.3788 20.4144 32.4412 20.4192 32.4796 20.4192C32.71 20.4192 32.8924 20.3856 33.0268 20.3184C33.1612 20.2512 33.262 20.1696 33.3292 20.0736C33.3964 19.9776 33.4348 19.8768 33.4444 19.7712C33.454 19.6656 33.4588 19.5648 33.4588 19.4688V18.72C33.4396 18.5856 33.4156 18.4512 33.3868 18.3168C33.358 18.1824 33.334 18.048 33.3148 17.9136V17.712C33.3148 17.5776 33.3052 17.3952 33.286 17.1648C33.2668 16.9344 33.2092 16.7136 33.1132 16.5024C32.9788 16.2528 32.7676 16.0992 32.4796 16.0416C32.1916 15.984 32.0092 15.9552 31.9324 15.9552H31.63C31.5244 15.9552 31.4236 15.9648 31.3276 15.984C31.27 15.984 31.1692 15.9888 31.0252 15.9984C30.8812 16.008 30.7276 16.0176 30.5644 16.0272C30.4012 16.0368 30.2476 16.0416 30.1036 16.0416H29.8012C29.7052 16.0416 29.5372 16.0368 29.2972 16.0272C29.0572 16.0176 28.8988 16.0128 28.822 16.0128C28.726 16.0128 28.5292 16.0176 28.2316 16.0272C27.934 16.0368 27.7372 16.0416 27.6412 16.0416C27.0652 16.0416 26.6188 15.9984 26.302 15.912C25.9852 15.8256 25.7548 15.6864 25.6108 15.4944C25.4668 15.3024 25.3852 15.048 25.366 14.7312C25.3468 14.4144 25.3372 14.0256 25.3372 13.5648C25.3372 13.5072 25.342 13.4208 25.3516 13.3056C25.3612 13.1904 25.3804 13.0704 25.4092 12.9456C25.438 12.8208 25.486 12.7056 25.5532 12.6C25.6204 12.4944 25.7212 12.4128 25.8556 12.3552C25.9132 12.3168 26.0044 12.2832 26.1292 12.2544C26.254 12.2256 26.3644 12.2112 26.4604 12.2112H26.6908C26.8444 12.2112 26.9884 12.2016 27.1228 12.1824C27.2572 12.1632 27.4012 12.1536 27.5548 12.1536C27.6316 12.1536 27.79 12.168 28.03 12.1968C28.27 12.2256 28.4188 12.24 28.4764 12.24C28.5148 12.24 28.6156 12.2352 28.7788 12.2256C28.942 12.216 29.0428 12.2112 29.0812 12.2112C29.1388 12.2112 29.2636 12.216 29.4556 12.2256C29.6476 12.2352 29.7724 12.24 29.83 12.24H31.2988C31.5868 12.24 31.8076 12.2016 31.9612 12.1248C32.1148 12.048 32.2348 11.9568 32.3212 11.8512C32.4076 11.7456 32.4652 11.6352 32.494 11.52C32.5228 11.4048 32.5468 11.2992 32.566 11.2032C32.5852 11.0496 32.5996 10.944 32.6092 10.8864C32.6188 10.8288 32.6236 10.7424 32.6236 10.6272V9.9936C32.6236 9.8784 32.6332 9.7056 32.6524 9.4752C32.6524 9.4368 32.6572 9.3744 32.6668 9.288C32.6764 9.2016 32.6812 9.1104 32.6812 9.0144C32.6812 8.9184 32.6908 8.8032 32.71 8.6688C32.71 8.4 32.6332 8.1984 32.4796 8.064C32.326 7.9296 32.23 7.8432 32.1916 7.8048C32.1148 7.7664 31.99 7.7472 31.8172 7.7472H31.3852C31.1932 7.7472 31.0012 7.7568 30.8092 7.776C30.6172 7.7952 30.4252 7.8048 30.2332 7.8048C30.1756 7.8048 30.0844 7.8 29.9596 7.7904C29.8348 7.7808 29.7004 7.7664 29.5564 7.7472C29.4124 7.728 29.278 7.7136 29.1532 7.704C29.0284 7.6944 28.9468 7.6896 28.9084 7.6896C28.8508 7.6896 28.7452 7.6944 28.5916 7.704C28.438 7.7136 28.2796 7.7232 28.1164 7.7328C27.9532 7.7424 27.7996 7.752 27.6556 7.7616C27.5116 7.7712 27.4108 7.776 27.3532 7.776C27.1612 7.776 27.0172 7.7712 26.9212 7.7616C26.8252 7.752 26.614 7.728 26.2876 7.6896C26.0572 7.6512 25.8748 7.5888 25.7404 7.5024C25.606 7.416 25.51 7.296 25.4524 7.1424C25.3948 6.9888 25.3612 6.7968 25.3516 6.5664C25.342 6.336 25.3372 6.048 25.3372 5.7024C25.3372 5.1072 25.4812 4.7232 25.7692 4.5504C26.0572 4.3776 26.6044 4.2912 27.4108 4.2912H27.7852C27.9004 4.2912 28.0252 4.3008 28.1596 4.32C28.294 4.3392 28.4188 4.3584 28.534 4.3776C28.6492 4.3968 28.774 4.4064 28.9084 4.4064C28.9852 4.4256 29.0908 4.4352 29.2252 4.4352C29.2828 4.4352 29.374 4.4304 29.4988 4.4208C29.6236 4.4112 29.7532 4.4064 29.8876 4.4064C30.022 4.4064 30.1516 4.4016 30.2764 4.392C30.4012 4.3824 30.4828 4.3776 30.5212 4.3776C30.598 4.3776 30.742 4.3824 30.9532 4.392C31.1644 4.4016 31.3084 4.4064 31.3852 4.4064C31.5388 4.4064 31.6636 4.392 31.7596 4.3632C31.8556 4.3344 31.9612 4.3008 32.0764 4.2624C32.1916 4.224 32.2636 4.1904 32.2924 4.1616C32.3212 4.1328 32.374 4.0704 32.4508 3.9744C32.6044 3.7824 32.6956 3.6528 32.7244 3.5856C32.7532 3.5184 32.7676 3.3984 32.7676 3.2256C32.7676 3.168 32.7628 3.0768 32.7532 2.952C32.7436 2.8272 32.734 2.6928 32.7244 2.5488C32.7148 2.4048 32.7052 2.2704 32.6956 2.1456C32.686 2.0208 32.6812 1.9296 32.6812 1.872C32.6812 1.7952 32.686 1.6416 32.6956 1.4112C32.7052 1.1808 32.71 1.0368 32.71 0.9792C32.71 0.691199 32.6332 0.460801 32.4796 0.288C32.326 0.115199 32.0764 0.0288 31.7308 0.0288C31.6348 0.0288 31.4428 0.0383999 31.1548 0.0576C30.8668 0.0768001 30.6748 0.0864 30.5788 0.0864C30.502 0.0864 30.3772 0.0816 30.2044 0.072C30.0316 0.0623999 29.8492 0.0528 29.6572 0.0432C29.4652 0.0336 29.2828 0.024 29.11 0.0144C28.9372 0.00479995 28.822 0 28.7644 0C28.6684 0 28.4908 0.00479995 28.2316 0.0144C27.9724 0.024 27.8044 0.0288 27.7276 0.0288C27.6508 0.0288 27.4876 0.0383999 27.238 0.0576ZM34.5655 9.1872C34.5655 9.1296 34.5751 8.9808 34.5943 8.7408C34.6135 8.5008 34.6231 8.3328 34.6231 8.2368V7.992C34.6231 7.8672 34.6279 7.728 34.6375 7.5744C34.6471 7.4208 34.6519 7.2816 34.6519 7.1568V6.912C34.6519 6.8544 34.6471 6.7296 34.6375 6.5376C34.6279 6.3456 34.6231 6.2112 34.6231 6.1344C34.6231 6.096 34.6279 5.9952 34.6375 5.832C34.6471 5.6688 34.6519 5.568 34.6519 5.5296C34.6519 5.472 34.6471 5.352 34.6375 5.1696C34.6279 4.9872 34.6135 4.8672 34.5943 4.8096V3.8592C34.5943 3.744 34.5847 3.5472 34.5655 3.2688C34.5463 2.9904 34.5271 2.6976 34.5079 2.3904C34.4887 2.0832 34.4743 1.8048 34.4647 1.5552C34.4551 1.3056 34.4503 1.1616 34.4503 1.1232C34.4503 0.911999 34.4887 0.748801 34.5655 0.6336C34.6423 0.518399 34.7959 0.384001 35.0263 0.2304C35.1607 0.1344 35.3143 0.0864 35.4871 0.0864H35.6887L35.7175 0.1152H36.1351C36.2791 0.1152 36.4279 0.1104 36.5815 0.1008C36.7351 0.0911999 36.8743 0.0864 36.9991 0.0864H37.3303C37.3687 0.0864 37.4023 0.0816 37.4311 0.072C37.4599 0.0624 37.4935 0.0576 37.5319 0.0576C37.6087 0.0576 37.7047 0.0480001 37.8199 0.0288C37.9927 0.0288 38.1415 0.0383999 38.2663 0.0576C38.3911 0.0768001 38.5159 0.143999 38.6407 0.2592C38.7655 0.374401 38.9047 0.547199 39.0583 0.7776C39.2119 1.008 39.4135 1.3248 39.6631 1.728C39.7975 1.9392 39.9607 2.184 40.1527 2.4624C40.3447 2.7408 40.5079 2.9856 40.6423 3.1968C40.6999 3.2928 40.7527 3.3888 40.8007 3.4848C40.8487 3.5808 40.9015 3.6768 40.9591 3.7728C41.0167 3.8688 41.0839 3.9648 41.1607 4.0608L41.3911 4.3488C41.4487 4.4256 41.5639 4.584 41.7367 4.824C41.9095 5.064 42.0247 5.2224 42.0823 5.2992C42.2551 5.5488 42.4663 5.8368 42.7159 6.1632C42.9655 6.4896 43.1863 6.7776 43.3783 7.0272C43.5319 7.2384 43.7095 7.4592 43.9111 7.6896C44.1127 7.92 44.2999 8.0352 44.4727 8.0352C44.6839 8.0352 44.8663 7.9296 45.0199 7.7184C45.1735 7.5072 45.2983 7.3152 45.3943 7.1424C45.4327 7.0848 45.4999 6.9888 45.5959 6.8544C45.6919 6.72 45.7927 6.576 45.8983 6.4224C46.0039 6.2688 46.1047 6.12 46.2007 5.976L46.4023 5.6736L46.7479 5.0976C46.8439 4.944 46.9447 4.8 47.0503 4.6656C47.1559 4.5312 47.2567 4.3872 47.3527 4.2336C47.3911 4.1376 47.4343 4.0512 47.4823 3.9744C47.5303 3.8976 47.5735 3.8208 47.6119 3.744C47.7079 3.552 47.8039 3.3696 47.8999 3.1968L48.1879 2.6784C48.3031 2.448 48.4087 2.2176 48.5047 1.9872C48.6007 1.7568 48.7159 1.536 48.8503 1.3248C48.9463 1.1904 49.0423 1.0368 49.1383 0.864C49.1767 0.7872 49.2151 0.7152 49.2535 0.648C49.2919 0.5808 49.3303 0.5184 49.3687 0.4608C49.4071 0.4224 49.5031 0.350401 49.6567 0.2448C49.8103 0.139199 49.9927 0.0864 50.2039 0.0864C50.2615 0.0864 50.3575 0.0911999 50.4919 0.1008C50.6263 0.1104 50.7751 0.1152 50.9383 0.1152C51.1015 0.1152 51.2503 0.12 51.3847 0.1296C51.5191 0.1392 51.6151 0.144 51.6727 0.144C51.8071 0.144 51.9367 0.1344 52.0615 0.1152C52.1863 0.0959999 52.3063 0.0864 52.4215 0.0864C52.4791 0.0864 52.5895 0.0959999 52.7527 0.1152C52.9159 0.1344 53.0167 0.144 53.0551 0.144C53.3239 0.144 53.5495 0.244799 53.7319 0.4464C53.9143 0.648001 54.0055 0.844799 54.0055 1.0368C54.0055 1.0752 53.9959 1.2144 53.9767 1.4544C53.9575 1.6944 53.9479 1.8528 53.9479 1.9296C53.9287 2.1984 53.9191 2.4624 53.9191 2.7216V5.4432C53.9191 5.4816 53.9143 5.5632 53.9047 5.688C53.8951 5.8128 53.8807 5.9424 53.8615 6.0768C53.8423 6.2112 53.8279 6.3408 53.8183 6.4656C53.8087 6.5904 53.8039 6.6816 53.8039 6.7392C53.8039 6.8352 53.8087 7.0032 53.8183 7.2432C53.8279 7.4832 53.8423 7.7424 53.8615 8.0208C53.8807 8.2992 53.8951 8.5584 53.9047 8.7984C53.9143 9.0384 53.9191 9.216 53.9191 9.3312C53.9191 9.408 53.9143 9.5856 53.9047 9.864C53.8951 10.1424 53.8903 10.3296 53.8903 10.4256C53.8903 10.5216 53.8951 10.6944 53.9047 10.944C53.9143 11.1936 53.9239 11.4624 53.9335 11.7504C53.9431 12.0384 53.9527 12.312 53.9623 12.5712C53.9719 12.8304 53.9767 13.0176 53.9767 13.1328V13.536C53.9767 13.728 53.9719 13.9296 53.9623 14.1408C53.9527 14.352 53.9479 14.5584 53.9479 14.76V15.552C53.9479 15.6096 53.9383 15.7056 53.9191 15.84C53.8999 15.9744 53.8807 16.1232 53.8615 16.2864C53.8423 16.4496 53.8231 16.6032 53.8039 16.7472C53.7847 16.8912 53.7751 16.992 53.7751 17.0496C53.7751 17.1072 53.7847 17.2032 53.8039 17.3376C53.8231 17.472 53.8375 17.616 53.8471 17.7696C53.8567 17.9232 53.8711 18.072 53.8903 18.216C53.9095 18.36 53.9191 18.4608 53.9191 18.5184C53.9191 18.5568 53.9143 18.6576 53.9047 18.8208C53.8951 18.984 53.8903 19.0944 53.8903 19.152V19.44C53.8903 19.7664 53.7703 20.0112 53.5303 20.1744C53.2903 20.3376 52.9495 20.4192 52.5079 20.4192H52.2343C52.1095 20.4192 51.9799 20.4144 51.8455 20.4048C51.7111 20.3952 51.5815 20.3904 51.4567 20.3904H50.3767C50.3383 20.3904 50.2327 20.3952 50.0599 20.4048C49.8871 20.4144 49.7719 20.4192 49.7143 20.4192C49.5991 20.4192 49.4599 20.3616 49.2967 20.2464C49.1335 20.1312 49.0519 19.9104 49.0519 19.584C49.0519 19.5264 49.0423 19.3968 49.0231 19.1952C49.0039 18.9936 48.9943 18.864 48.9943 18.8064C48.9943 18.768 48.9991 18.6864 49.0087 18.5616C49.0183 18.4368 49.0231 18.3072 49.0231 18.1728C49.0231 18.0384 49.0279 17.9088 49.0375 17.784C49.0471 17.6592 49.0519 17.568 49.0519 17.5104C49.0519 17.4144 49.0471 17.2368 49.0375 16.9776C49.0279 16.7184 49.0231 16.5504 49.0231 16.4736C49.0231 16.3776 49.0327 16.1856 49.0519 15.8976C49.0711 15.6096 49.0807 15.4176 49.0807 15.3216C49.0807 15.1872 49.0759 15.0528 49.0663 14.9184C49.0567 14.784 49.0519 14.6496 49.0519 14.5152C49.0519 14.4384 49.0615 14.2752 49.0807 14.0256C49.0999 13.776 49.1095 13.6032 49.1095 13.5072V12.528C49.1095 12.4896 49.0999 12.4032 49.0807 12.2688C49.0615 12.1344 49.0519 12.048 49.0519 12.0096C49.0519 11.9136 48.9991 11.808 48.8935 11.6928C48.7879 11.5776 48.6775 11.52 48.5623 11.52C48.2935 11.52 48.0439 11.6352 47.8135 11.8656C47.5831 12.096 47.4199 12.2784 47.3239 12.4128C47.1895 12.5664 47.0647 12.72 46.9495 12.8736C46.8343 13.0272 46.6999 13.1808 46.5463 13.3344L46.1143 13.7664C46.0375 13.8432 45.9319 13.9776 45.7975 14.1696C45.5095 14.592 45.2887 14.8608 45.1351 14.976C44.9815 15.0912 44.7703 15.1488 44.5015 15.1488C44.4055 15.1488 44.2903 15.1104 44.1559 15.0336C43.9831 14.9376 43.8679 14.8608 43.8103 14.8032C43.7527 14.7456 43.6471 14.6112 43.4935 14.4C43.4167 14.2848 43.3159 14.1456 43.1911 13.9824C43.0663 13.8192 42.9367 13.6512 42.8023 13.4784C42.6679 13.3056 42.5287 13.1376 42.3847 12.9744C42.2407 12.8112 42.1207 12.672 42.0247 12.5568C41.9671 12.4992 41.9095 12.4464 41.8519 12.3984C41.7943 12.3504 41.7463 12.2976 41.7079 12.24C41.6503 12.1824 41.5975 12.12 41.5495 12.0528C41.5015 11.9856 41.4487 11.9136 41.3911 11.8368C41.0839 11.3952 40.8439 11.088 40.6711 10.9152C40.4983 10.7424 40.3351 10.656 40.1815 10.656C40.0855 10.656 39.9751 10.6752 39.8503 10.7136C39.7255 10.752 39.6343 10.8 39.5767 10.8576C39.5767 10.8768 39.5287 10.9728 39.4327 11.1456C39.3367 11.3184 39.2887 11.616 39.2887 12.0384V13.5648C39.2887 13.6608 39.2935 13.8624 39.3031 14.1696C39.3127 14.4768 39.3175 14.6784 39.3175 14.7744C39.3175 14.832 39.3079 14.9232 39.2887 15.048C39.2695 15.1728 39.2551 15.3072 39.2455 15.4512C39.2359 15.5952 39.2215 15.7296 39.2023 15.8544C39.1831 15.9792 39.1735 16.0704 39.1735 16.128C39.1735 16.224 39.1783 16.3968 39.1879 16.6464C39.1975 16.896 39.2023 17.1648 39.2023 17.4528C39.2023 17.7408 39.2071 18.0096 39.2167 18.2592C39.2263 18.5088 39.2311 18.6912 39.2311 18.8064C39.2311 18.864 39.2359 19.0032 39.2455 19.224C39.2551 19.4448 39.2599 19.584 39.2599 19.6416C39.2599 19.9488 39.1543 20.1648 38.9431 20.2896C38.7319 20.4144 38.5303 20.4768 38.3383 20.4768C38.2999 20.4768 38.2087 20.472 38.0647 20.4624C37.9207 20.4528 37.7719 20.4384 37.6183 20.4192C37.4647 20.4192 37.3111 20.4144 37.1575 20.4048C37.0039 20.3952 36.8983 20.3904 36.8407 20.3904C36.8023 20.3904 36.7255 20.3952 36.6103 20.4048C36.4951 20.4144 36.3703 20.4192 36.2359 20.4192C36.1207 20.4384 36.0055 20.4528 35.8903 20.4624C35.7751 20.472 35.6887 20.4768 35.6311 20.4768C35.2855 20.4768 35.0647 20.4336 34.9687 20.3472C34.8727 20.2608 34.7767 20.1408 34.6807 19.9872C34.6039 19.8336 34.5559 19.7232 34.5367 19.656C34.5175 19.5888 34.5079 19.4976 34.5079 19.3824V19.0656C34.5079 18.912 34.5127 18.744 34.5223 18.5616C34.5319 18.3792 34.5367 18.2064 34.5367 18.0432V17.712C34.5367 17.6352 34.5319 17.4768 34.5223 17.2368C34.5127 16.9968 34.5079 16.8384 34.5079 16.7616C34.5079 16.4352 34.5223 16.1232 34.5511 15.8256C34.5799 15.528 34.5943 15.2256 34.5943 14.9184V14.5872C34.5943 14.424 34.5895 14.2464 34.5799 14.0544C34.5703 13.8624 34.5655 13.6848 34.5655 13.5216V12.0384C34.5655 11.9616 34.5607 11.7888 34.5511 11.52C34.5415 11.2512 34.5367 11.0688 34.5367 10.9728C34.5367 10.7616 34.5463 10.5648 34.5655 10.3824C34.5847 10.2 34.5943 10.0032 34.5943 9.792C34.5943 9.7536 34.5895 9.6576 34.5799 9.504C34.5703 9.3504 34.5655 9.2448 34.5655 9.1872ZM62.915 8.4528C62.9054 8.712 62.9006 8.88 62.9006 8.9568V9.36C62.9006 9.4368 62.891 9.5808 62.8718 9.792C62.8526 10.0032 62.843 10.1376 62.843 10.1952C62.843 10.2528 62.8478 10.344 62.8574 10.4688C62.867 10.5936 62.8766 10.728 62.8862 10.872C62.8958 11.016 62.9054 11.1504 62.915 11.2752C62.9246 11.4 62.9294 11.4912 62.9294 11.5488C62.9294 11.9136 62.9246 12.2832 62.915 12.6576C62.9054 13.032 62.891 13.392 62.8718 13.7376C62.8718 14.0448 62.867 14.352 62.8574 14.6592C62.8478 14.9664 62.843 15.1392 62.843 15.1776C62.843 15.2544 62.8478 15.4368 62.8574 15.7248C62.867 16.0128 62.8766 16.3296 62.8862 16.6752C62.8958 17.0208 62.9054 17.352 62.915 17.6688C62.9246 17.9856 62.9294 18.2112 62.9294 18.3456C62.9294 18.4224 62.9198 18.5808 62.9006 18.8208C62.8814 19.0608 62.8718 19.2192 62.8718 19.296C62.8718 19.5456 62.9438 19.7376 63.0878 19.872C63.2318 20.0064 63.4046 20.1072 63.6062 20.1744C63.8078 20.2416 64.0142 20.28 64.2254 20.2896C64.4366 20.2992 64.5998 20.304 64.715 20.304H65.579C65.6942 20.304 65.8766 20.3088 66.1262 20.3184C66.3758 20.328 66.6398 20.3376 66.9182 20.3472C67.1966 20.3568 67.4558 20.3664 67.6958 20.376C67.9358 20.3856 68.1038 20.3904 68.1998 20.3904H70.115C70.5854 20.3904 70.9838 20.3808 71.3102 20.3616C71.6366 20.3424 71.9198 20.3136 72.1598 20.2752C72.3998 20.2368 72.6542 20.1888 72.923 20.1312C73.0958 20.0928 73.2734 20.0544 73.4558 20.016C73.6382 19.9776 73.8062 19.9296 73.9598 19.872L74.5646 19.6128C74.7182 19.5744 74.8622 19.5312 74.9966 19.4832C75.131 19.4352 75.275 19.3824 75.4286 19.3248C75.5822 19.248 75.8126 19.1136 76.1198 18.9216C76.427 18.7296 76.6862 18.5376 76.8974 18.3456C76.9166 18.3264 76.9982 18.24 77.1422 18.0864C77.2862 17.9328 77.435 17.7648 77.5886 17.5824C77.7422 17.4 77.891 17.232 78.035 17.0784C78.179 16.9248 78.2702 16.8192 78.3086 16.7616C78.3854 16.6464 78.4526 16.5312 78.5102 16.416C78.5678 16.3008 78.635 16.1856 78.7118 16.0704C78.7886 15.9744 78.8606 15.8784 78.9278 15.7824C78.995 15.6864 79.0574 15.5904 79.115 15.4944C79.1534 15.3984 79.1918 15.2928 79.2302 15.1776C79.2686 15.0624 79.307 14.9568 79.3454 14.8608C79.3838 14.7648 79.4222 14.6832 79.4606 14.616C79.499 14.5488 79.5374 14.4672 79.5758 14.3712C79.6142 14.2944 79.643 14.2272 79.6622 14.1696C79.6814 14.112 79.7054 14.0352 79.7342 13.9392C79.763 13.8432 79.7918 13.7232 79.8206 13.5792C79.8494 13.4352 79.883 13.248 79.9214 13.0176C79.979 12.7488 80.027 12.5328 80.0654 12.3696C80.1038 12.2064 80.1278 12.072 80.1374 11.9664C80.147 11.8608 80.1566 11.76 80.1662 11.664C80.1758 11.568 80.1806 11.4624 80.1806 11.3472C80.1806 11.2512 80.171 11.0736 80.1518 10.8144C80.1326 10.5552 80.123 10.3776 80.123 10.2816C80.123 10.224 80.1278 10.0992 80.1374 9.9072C80.147 9.7152 80.1518 9.5904 80.1518 9.5328C80.1518 9.456 80.1422 9.3168 80.123 9.1152C80.1038 8.9136 80.075 8.6976 80.0366 8.4672C79.9982 8.2368 79.9598 8.016 79.9214 7.8048C79.883 7.5936 79.8542 7.44 79.835 7.344C79.8158 7.3056 79.7726 7.2 79.7054 7.0272C79.6382 6.8544 79.5614 6.6672 79.475 6.4656C79.3886 6.264 79.3118 6.0816 79.2446 5.9184C79.1774 5.7552 79.1342 5.6544 79.115 5.616C78.827 4.9824 78.4814 4.416 78.0782 3.9168C77.675 3.4176 77.2814 2.9952 76.8974 2.6496C76.5134 2.304 76.1726 2.0352 75.875 1.8432C75.5774 1.6512 75.3998 1.536 75.3422 1.4976C75.2654 1.4592 75.1886 1.4304 75.1118 1.4112C75.035 1.392 74.9582 1.3632 74.8814 1.3248C74.8238 1.2864 74.7614 1.2528 74.6942 1.224C74.627 1.1952 74.5646 1.1616 74.507 1.1232C74.4302 1.0848 74.3582 1.0656 74.291 1.0656C74.2238 1.0656 74.1518 1.0464 74.075 1.008C73.9982 0.9696 73.9262 0.9264 73.859 0.8784C73.7918 0.8304 73.7198 0.7872 73.643 0.7488C73.5278 0.7104 73.4126 0.6816 73.2974 0.6624C73.1822 0.6432 73.067 0.6144 72.9518 0.576L72.6062 0.4608C72.5486 0.4224 72.3806 0.3744 72.1022 0.3168C71.8238 0.2592 71.5694 0.2304 71.339 0.2304H70.9646C70.9262 0.2304 70.8398 0.2208 70.7054 0.2016C70.571 0.1824 70.4846 0.1728 70.4462 0.1728C70.4078 0.1728 70.331 0.1776 70.2158 0.1872C70.1006 0.1968 70.0238 0.2016 69.9854 0.2016C69.947 0.2016 69.8462 0.1968 69.683 0.1872C69.5198 0.1776 69.419 0.1728 69.3806 0.1728C69.0926 0.1728 68.8046 0.192 68.5166 0.2304C68.2286 0.2688 67.9406 0.288 67.6526 0.288C67.595 0.288 67.4942 0.2832 67.3502 0.2736C67.2062 0.264 67.0574 0.2496 66.9038 0.2304C66.731 0.2304 66.5726 0.2256 66.4286 0.216C66.2846 0.2064 66.1838 0.2016 66.1262 0.2016C66.0302 0.2016 65.8478 0.2064 65.579 0.216C65.3102 0.2256 65.027 0.2352 64.7294 0.2448C64.4318 0.2544 64.1582 0.264 63.9086 0.2736C63.659 0.2832 63.515 0.2976 63.4766 0.3168C63.2078 0.4128 63.035 0.633598 62.9582 0.9792C62.8814 1.3248 62.843 1.6224 62.843 1.872C62.843 1.9488 62.8478 2.0832 62.8574 2.2752C62.867 2.4672 62.8766 2.6688 62.8862 2.88C62.8958 3.0912 62.9054 3.2928 62.915 3.4848C62.9246 3.6768 62.9294 3.8016 62.9294 3.8592V4.1328C62.9294 4.2576 62.9246 4.3872 62.915 4.5216C62.9054 4.656 62.9006 4.7856 62.9006 4.9104V5.7312C62.9006 6 62.9054 6.2784 62.915 6.5664C62.9246 6.8544 62.9294 7.128 62.9294 7.3872V7.92C62.9294 8.016 62.9246 8.1936 62.915 8.4528ZM69.9278 5.04C69.8318 5.04 69.6974 5.0448 69.5246 5.0544C69.3518 5.064 69.1694 5.0784 68.9774 5.0976C68.8238 5.136 68.7182 5.1648 68.6606 5.184C68.603 5.2032 68.5262 5.2608 68.4302 5.3568C68.2574 5.5104 68.1086 5.6784 67.9838 5.8608C67.859 6.0432 67.7774 6.3936 67.739 6.912V8.1792C67.739 8.256 67.7342 8.3952 67.7246 8.5968C67.715 8.7984 67.7054 9.0144 67.6958 9.2448C67.6862 9.4752 67.6766 9.696 67.667 9.9072C67.6574 10.1184 67.6526 10.2624 67.6526 10.3392V11.2608C67.6526 11.6064 67.6574 11.9616 67.667 12.3264C67.6766 12.6912 67.6862 13.0416 67.6958 13.3776C67.7054 13.7136 67.7294 14.0064 67.7678 14.256C67.787 14.4672 67.8206 14.6688 67.8686 14.8608C67.9166 15.0528 68.0366 15.2208 68.2286 15.3648C68.4206 15.5088 68.723 15.6288 69.1358 15.7248C69.5486 15.8208 70.1198 15.8688 70.8494 15.8688H71.195C71.3102 15.8688 71.4254 15.8592 71.5406 15.84C71.8094 15.8016 72.155 15.7056 72.5774 15.552C72.9998 15.3984 73.3166 15.264 73.5278 15.1488C73.931 14.8992 74.2622 14.5584 74.5214 14.1264C74.7806 13.6944 74.9822 13.2528 75.1262 12.8016C75.2702 12.3504 75.371 11.9376 75.4286 11.5632C75.4862 11.1888 75.515 10.944 75.515 10.8288C75.515 10.7328 75.5102 10.536 75.5006 10.2384C75.491 9.9408 75.467 9.7152 75.4286 9.5616C75.3902 9.408 75.3566 9.2688 75.3278 9.144C75.299 9.0192 75.2654 8.88 75.227 8.7264C75.2078 8.6304 75.1934 8.5392 75.1838 8.4528C75.1742 8.3664 75.1502 8.2752 75.1118 8.1792C75.0542 8.064 74.987 7.9536 74.9102 7.848C74.8334 7.7424 74.7566 7.632 74.6798 7.5168C74.6222 7.44 74.555 7.3248 74.4782 7.1712C74.3246 6.9216 74.1902 6.744 74.075 6.6384C73.9598 6.5328 73.7774 6.4032 73.5278 6.2496C73.4894 6.2304 73.4222 6.1824 73.3262 6.1056C73.2302 6.0288 73.1294 5.9472 73.0238 5.8608C72.9182 5.7744 72.8174 5.6976 72.7214 5.6304C72.6254 5.5632 72.5582 5.52 72.5198 5.5008C72.347 5.4048 72.131 5.328 71.8718 5.2704C71.6126 5.2128 71.3582 5.1648 71.1086 5.1264C70.859 5.088 70.6238 5.064 70.403 5.0544C70.1822 5.0448 70.0238 5.04 69.9278 5.04ZM88.7754 0.0576C88.5258 0.0768001 88.3722 0.0864 88.3146 0.0864H87.249C87.1914 0.0864 87.0954 0.0816 86.961 0.072C86.8266 0.0623999 86.6874 0.0576 86.5434 0.0576C86.3994 0.0576 86.2602 0.0528 86.1258 0.0432C85.9914 0.0336 85.8954 0.0288 85.8378 0.0288C85.7802 0.0288 85.6698 0.0336 85.5066 0.0432C85.3434 0.0528 85.1754 0.0576 85.0026 0.0576C84.8298 0.0576 84.6666 0.0623999 84.513 0.072C84.3594 0.0816 84.2538 0.0864 84.1962 0.0864C84.1002 0.0864 83.9178 0.0816 83.649 0.072C83.3802 0.0623999 83.1978 0.0576 83.1018 0.0576C82.7754 0.0576 82.5354 0.153599 82.3818 0.3456C82.2282 0.537601 82.1322 0.681599 82.0938 0.7776C82.0554 0.8352 82.0218 0.940799 81.993 1.0944C81.9642 1.248 81.9498 1.5456 81.9498 1.9872C81.9498 2.0448 81.9546 2.1408 81.9642 2.2752C81.9738 2.4096 81.9834 2.5584 81.993 2.7216C82.0026 2.8848 82.0122 3.0336 82.0218 3.168C82.0314 3.3024 82.0362 3.3984 82.0362 3.456C82.0362 3.4944 82.0314 3.5856 82.0218 3.7296C82.0122 3.8736 82.0074 4.0272 82.0074 4.1904C82.0074 4.3536 82.0026 4.5072 81.993 4.6512C81.9834 4.7952 81.9786 4.8864 81.9786 4.9248C81.9786 5.136 81.969 5.352 81.9498 5.5728C81.9306 5.7936 81.921 6.0192 81.921 6.2496C81.921 6.3456 81.9354 6.5472 81.9642 6.8544C81.993 7.1616 82.0074 7.3632 82.0074 7.4592C82.0074 7.5168 81.9978 7.6464 81.9786 7.848C81.9594 8.0496 81.9498 8.1792 81.9498 8.2368C81.9306 8.3328 81.921 8.4144 81.921 8.4816V10.7136C81.921 10.8096 81.9258 10.992 81.9354 11.2608C81.945 11.5296 81.9498 11.7024 81.9498 11.7792V12.0384C81.9498 12.1536 81.9546 12.2736 81.9642 12.3984C81.9738 12.5232 81.9786 12.6432 81.9786 12.7584V12.9888C81.9786 13.0464 81.9738 13.1712 81.9642 13.3632C81.9546 13.5552 81.9498 13.68 81.9498 13.7376C81.9498 13.9872 81.945 14.2752 81.9354 14.6016C81.9258 14.928 81.921 15.216 81.921 15.4656C81.921 15.5232 81.9258 15.6096 81.9354 15.7248C81.945 15.84 81.9498 15.9696 81.9498 16.1136C81.9498 16.2576 81.9546 16.3872 81.9642 16.5024C81.9738 16.6176 81.9786 16.704 81.9786 16.7616V17.28C81.9786 17.4528 81.9882 17.6208 82.0074 17.784C82.0266 17.9472 82.0362 18.1152 82.0362 18.288C82.0362 18.3456 82.0314 18.4752 82.0218 18.6768C82.0122 18.8784 82.0074 19.008 82.0074 19.0656C82.0074 19.2768 82.0554 19.488 82.1514 19.6992C82.2474 19.9104 82.353 20.064 82.4682 20.16C82.6218 20.2944 82.7802 20.3712 82.9434 20.3904C83.1066 20.4096 83.2266 20.4192 83.3034 20.4192H83.6778C83.8506 20.4192 84.033 20.4096 84.225 20.3904H85.1466C85.2426 20.3904 85.4106 20.3952 85.6506 20.4048C85.8906 20.4144 86.145 20.4192 86.4138 20.4192C86.6826 20.4384 86.9322 20.4528 87.1626 20.4624C87.393 20.472 87.5562 20.4768 87.6522 20.4768C87.729 20.4768 87.9066 20.472 88.185 20.4624C88.4634 20.4528 88.7658 20.4384 89.0922 20.4192C89.3994 20.4192 89.6778 20.4144 89.9274 20.4048C90.177 20.3952 90.3114 20.3904 90.3306 20.3904H90.6042C90.729 20.3904 90.8682 20.4 91.0218 20.4192C91.1754 20.4192 91.3146 20.424 91.4394 20.4336C91.5642 20.4432 91.6458 20.448 91.6842 20.448C91.7418 20.448 91.833 20.4432 91.9578 20.4336C92.0826 20.424 92.2218 20.4096 92.3754 20.3904C92.529 20.3904 92.6682 20.3856 92.793 20.376C92.9178 20.3664 92.9994 20.3616 93.0378 20.3616H93.2538C93.3594 20.3616 93.4602 20.3712 93.5562 20.3904C93.6522 20.3904 93.7434 20.3952 93.8298 20.4048C93.9162 20.4144 93.9786 20.4192 94.017 20.4192C94.2474 20.4192 94.4298 20.3856 94.5642 20.3184C94.6986 20.2512 94.7994 20.1696 94.8666 20.0736C94.9338 19.9776 94.9722 19.8768 94.9818 19.7712C94.9914 19.6656 94.9962 19.5648 94.9962 19.4688V18.72C94.977 18.5856 94.953 18.4512 94.9242 18.3168C94.8954 18.1824 94.8714 18.048 94.8522 17.9136V17.712C94.8522 17.5776 94.8426 17.3952 94.8234 17.1648C94.8042 16.9344 94.7466 16.7136 94.6506 16.5024C94.5162 16.2528 94.305 16.0992 94.017 16.0416C93.729 15.984 93.5466 15.9552 93.4698 15.9552H93.1674C93.0618 15.9552 92.961 15.9648 92.865 15.984C92.8074 15.984 92.7066 15.9888 92.5626 15.9984C92.4186 16.008 92.265 16.0176 92.1018 16.0272C91.9386 16.0368 91.785 16.0416 91.641 16.0416H91.3386C91.2426 16.0416 91.0746 16.0368 90.8346 16.0272C90.5946 16.0176 90.4362 16.0128 90.3594 16.0128C90.2634 16.0128 90.0666 16.0176 89.769 16.0272C89.4714 16.0368 89.2746 16.0416 89.1786 16.0416C88.6026 16.0416 88.1562 15.9984 87.8394 15.912C87.5226 15.8256 87.2922 15.6864 87.1482 15.4944C87.0042 15.3024 86.9226 15.048 86.9034 14.7312C86.8842 14.4144 86.8746 14.0256 86.8746 13.5648C86.8746 13.5072 86.8794 13.4208 86.889 13.3056C86.8986 13.1904 86.9178 13.0704 86.9466 12.9456C86.9754 12.8208 87.0234 12.7056 87.0906 12.6C87.1578 12.4944 87.2586 12.4128 87.393 12.3552C87.4506 12.3168 87.5418 12.2832 87.6666 12.2544C87.7914 12.2256 87.9018 12.2112 87.9978 12.2112H88.2282C88.3818 12.2112 88.5258 12.2016 88.6602 12.1824C88.7946 12.1632 88.9386 12.1536 89.0922 12.1536C89.169 12.1536 89.3274 12.168 89.5674 12.1968C89.8074 12.2256 89.9562 12.24 90.0138 12.24C90.0522 12.24 90.153 12.2352 90.3162 12.2256C90.4794 12.216 90.5802 12.2112 90.6186 12.2112C90.6762 12.2112 90.801 12.216 90.993 12.2256C91.185 12.2352 91.3098 12.24 91.3674 12.24H92.8362C93.1242 12.24 93.345 12.2016 93.4986 12.1248C93.6522 12.048 93.7722 11.9568 93.8586 11.8512C93.945 11.7456 94.0026 11.6352 94.0314 11.52C94.0602 11.4048 94.0842 11.2992 94.1034 11.2032C94.1226 11.0496 94.137 10.944 94.1466 10.8864C94.1562 10.8288 94.161 10.7424 94.161 10.6272V9.9936C94.161 9.8784 94.1706 9.7056 94.1898 9.4752C94.1898 9.4368 94.1946 9.3744 94.2042 9.288C94.2138 9.2016 94.2186 9.1104 94.2186 9.0144C94.2186 8.9184 94.2282 8.8032 94.2474 8.6688C94.2474 8.4 94.1706 8.1984 94.017 8.064C93.8634 7.9296 93.7674 7.8432 93.729 7.8048C93.6522 7.7664 93.5274 7.7472 93.3546 7.7472H92.9226C92.7306 7.7472 92.5386 7.7568 92.3466 7.776C92.1546 7.7952 91.9626 7.8048 91.7706 7.8048C91.713 7.8048 91.6218 7.8 91.497 7.7904C91.3722 7.7808 91.2378 7.7664 91.0938 7.7472C90.9498 7.728 90.8154 7.7136 90.6906 7.704C90.5658 7.6944 90.4842 7.6896 90.4458 7.6896C90.3882 7.6896 90.2826 7.6944 90.129 7.704C89.9754 7.7136 89.817 7.7232 89.6538 7.7328C89.4906 7.7424 89.337 7.752 89.193 7.7616C89.049 7.7712 88.9482 7.776 88.8906 7.776C88.6986 7.776 88.5546 7.7712 88.4586 7.7616C88.3626 7.752 88.1514 7.728 87.825 7.6896C87.5946 7.6512 87.4122 7.5888 87.2778 7.5024C87.1434 7.416 87.0474 7.296 86.9898 7.1424C86.9322 6.9888 86.8986 6.7968 86.889 6.5664C86.8794 6.336 86.8746 6.048 86.8746 5.7024C86.8746 5.1072 87.0186 4.7232 87.3066 4.5504C87.5946 4.3776 88.1418 4.2912 88.9482 4.2912H89.3226C89.4378 4.2912 89.5626 4.3008 89.697 4.32C89.8314 4.3392 89.9562 4.3584 90.0714 4.3776C90.1866 4.3968 90.3114 4.4064 90.4458 4.4064C90.5226 4.4256 90.6282 4.4352 90.7626 4.4352C90.8202 4.4352 90.9114 4.4304 91.0362 4.4208C91.161 4.4112 91.2906 4.4064 91.425 4.4064C91.5594 4.4064 91.689 4.4016 91.8138 4.392C91.9386 4.3824 92.0202 4.3776 92.0586 4.3776C92.1354 4.3776 92.2794 4.3824 92.4906 4.392C92.7018 4.4016 92.8458 4.4064 92.9226 4.4064C93.0762 4.4064 93.201 4.392 93.297 4.3632C93.393 4.3344 93.4986 4.3008 93.6138 4.2624C93.729 4.224 93.801 4.1904 93.8298 4.1616C93.8586 4.1328 93.9114 4.0704 93.9882 3.9744C94.1418 3.7824 94.233 3.6528 94.2618 3.5856C94.2906 3.5184 94.305 3.3984 94.305 3.2256C94.305 3.168 94.3002 3.0768 94.2906 2.952C94.281 2.8272 94.2714 2.6928 94.2618 2.5488C94.2522 2.4048 94.2426 2.2704 94.233 2.1456C94.2234 2.0208 94.2186 1.9296 94.2186 1.872C94.2186 1.7952 94.2234 1.6416 94.233 1.4112C94.2426 1.1808 94.2474 1.0368 94.2474 0.9792C94.2474 0.691199 94.1706 0.460801 94.017 0.288C93.8634 0.115199 93.6138 0.0288 93.2682 0.0288C93.1722 0.0288 92.9802 0.0383999 92.6922 0.0576C92.4042 0.0768001 92.2122 0.0864 92.1162 0.0864C92.0394 0.0864 91.9146 0.0816 91.7418 0.072C91.569 0.0623999 91.3866 0.0528 91.1946 0.0432C91.0026 0.0336 90.8202 0.024 90.6474 0.0144C90.4746 0.00479995 90.3594 0 90.3018 0C90.2058 0 90.0282 0.00479995 89.769 0.0144C89.5098 0.024 89.3418 0.0288 89.265 0.0288C89.1882 0.0288 89.025 0.0383999 88.7754 0.0576Z" fill="#EE1D23"/>
<path fill-rule="evenodd" clip-rule="evenodd" d="M73.9306 35.7948C73.9078 36 73.8964 36.1482 73.8964 36.2394C73.8964 36.3078 73.9021 36.4104 73.9135 36.5472C73.9249 36.684 73.9363 36.8265 73.9477 36.9747C73.9591 37.1229 73.9762 37.2654 73.999 37.4022C74.0218 37.539 74.0332 37.6302 74.0332 37.6758V38.223C74.0332 38.4054 74.056 38.5878 74.1016 38.7702C74.1244 38.9526 74.1529 39.1236 74.1871 39.2832C74.2213 39.4428 74.2612 39.6024 74.3068 39.762C74.3524 40.104 74.3923 40.3548 74.4265 40.5144C74.4607 40.674 74.5462 40.959 74.683 41.3694C74.7058 41.4378 74.7799 41.6031 74.9053 41.8653C75.0307 42.1275 75.1618 42.4068 75.2986 42.7032C75.4354 42.9996 75.5608 43.2675 75.6748 43.5069C75.7888 43.7463 75.8458 43.8774 75.8458 43.9002C75.937 44.0826 76.0738 44.2992 76.2562 44.55C76.4386 44.8008 76.621 45.0402 76.8034 45.2682C76.9858 45.4962 77.1568 45.7014 77.3164 45.8838C77.476 46.0662 77.5786 46.1688 77.6242 46.1916L77.761 46.3113C77.8522 46.3911 77.9548 46.4709 78.0688 46.5507C78.1828 46.6305 78.2911 46.7103 78.3937 46.7901C78.4963 46.8699 78.5704 46.9212 78.616 46.944C78.7072 47.0124 78.901 47.1435 79.1974 47.3373C79.4938 47.5311 79.8073 47.7306 80.1379 47.9358C80.4685 48.141 80.7649 48.3291 81.0271 48.5001C81.2893 48.6711 81.4432 48.768 81.4888 48.7908C81.6712 48.8592 81.8422 48.9219 82.0018 48.9789C82.1614 49.0359 82.3324 49.0986 82.5148 49.167C82.9708 49.3494 83.4211 49.509 83.8657 49.6458C84.3103 49.7826 84.7606 49.8966 85.2166 49.9878C85.2622 49.9878 85.4104 50.0049 85.6612 50.0391C85.912 50.0733 86.1799 50.1075 86.4649 50.1417C86.7499 50.1759 87.0121 50.2101 87.2515 50.2443C87.4909 50.2785 87.6334 50.2956 87.679 50.2956H87.7474C87.8614 50.2956 88.0609 50.2842 88.3459 50.2614C88.6309 50.2386 88.819 50.2272 88.9102 50.2272H90.9964C91.27 50.2272 91.5436 50.2215 91.8172 50.2101C92.0908 50.1987 92.3302 50.1873 92.5354 50.1759C92.7406 50.1645 92.866 50.1588 92.9116 50.1588C93.1624 50.1132 93.4132 49.9935 93.664 49.7997C93.9148 49.6059 94.0972 49.4178 94.2112 49.2354C94.2568 49.0986 94.291 48.939 94.3138 48.7566C94.3366 48.5742 94.3594 48.2892 94.3822 47.9016C94.3822 47.856 94.3879 47.7135 94.3993 47.4741C94.4107 47.2347 94.4221 46.9782 94.4335 46.7046C94.4449 46.431 94.4563 46.1802 94.4677 45.9522C94.4791 45.7242 94.4848 45.5988 94.4848 45.576C94.4848 45.5076 94.4791 45.3765 94.4677 45.1827C94.4563 44.9889 94.4506 44.8692 94.4506 44.8236C94.4506 44.7552 94.462 44.6184 94.4848 44.4132C94.5076 44.208 94.519 44.0826 94.519 44.037C94.519 43.9914 94.5133 43.8717 94.5019 43.6779C94.4905 43.4841 94.4848 43.3644 94.4848 43.3188C94.4848 43.182 94.4905 43.0395 94.5019 42.8913C94.5133 42.7431 94.519 42.5892 94.519 42.4296C94.519 42.3612 94.5133 42.2529 94.5019 42.1047C94.4905 41.9565 94.4848 41.7969 94.4848 41.6259C94.4848 41.4549 94.4791 41.2953 94.4677 41.1471C94.4563 40.9989 94.4506 40.8906 94.4506 40.8222C94.4506 40.5486 94.4563 40.2693 94.4677 39.9843C94.4791 39.6993 94.4848 39.42 94.4848 39.1464V38.8557C94.4848 38.7303 94.4791 38.5935 94.4677 38.4453C94.4563 38.2971 94.4506 38.1546 94.4506 38.0178V37.7442C94.4506 37.1286 94.4449 36.6612 94.4335 36.342C94.4221 36.0228 94.3936 35.7834 94.348 35.6238C94.2112 35.2362 93.9775 34.9854 93.6469 34.8714C93.3163 34.7574 92.9686 34.7004 92.6038 34.7004C92.5354 34.7004 92.4043 34.7061 92.2105 34.7175C92.0167 34.7289 91.8172 34.746 91.612 34.7688C91.4068 34.7916 91.213 34.8087 91.0306 34.8201C90.8482 34.8315 90.7228 34.8372 90.6544 34.8372C90.5632 34.8372 90.3751 34.8258 90.0901 34.803C89.8051 34.7802 89.617 34.7688 89.5258 34.7688H88.3972C88.3288 34.7688 88.1863 34.7574 87.9697 34.7346C87.7531 34.7118 87.6106 34.7004 87.5422 34.7004C87.3598 34.7004 87.1489 34.803 86.9095 35.0082C86.6701 35.2134 86.5504 35.5668 86.5504 36.0684C86.5504 36.114 86.5561 36.2394 86.5675 36.4446C86.5789 36.6498 86.5846 36.7752 86.5846 36.8208L86.5675 37.1115C86.5561 37.3053 86.5447 37.5219 86.5333 37.7613C86.5219 38.0007 86.5105 38.2344 86.4991 38.4624C86.4877 38.6904 86.482 38.85 86.482 38.9412C86.482 39.2604 86.5561 39.4941 86.7043 39.6423C86.8525 39.7905 87.0178 39.8646 87.2002 39.8646C87.6562 39.8646 88.0153 39.8874 88.2775 39.933C88.5397 39.9786 88.7392 40.0413 88.876 40.1211C89.0128 40.2009 89.1097 40.3092 89.1667 40.446C89.2237 40.5828 89.275 40.7538 89.3206 40.959C89.3662 41.1414 89.3947 41.3067 89.4061 41.4549C89.4175 41.6031 89.4232 41.8824 89.4232 42.2928C89.4232 42.4068 89.4061 42.6291 89.3719 42.9597C89.3377 43.2903 89.2978 43.524 89.2522 43.6608C89.1838 43.8432 89.0812 43.9914 88.9444 44.1054C88.8076 44.2194 88.6594 44.3049 88.4998 44.3619C88.3402 44.4189 88.1806 44.4531 88.021 44.4645C87.8614 44.4759 87.736 44.4816 87.6448 44.4816C87.5992 44.4816 87.4738 44.4759 87.2686 44.4645C87.0634 44.4531 86.8411 44.4417 86.6017 44.4303C86.3623 44.4189 86.14 44.4018 85.9348 44.379C85.7296 44.3562 85.6156 44.3448 85.5928 44.3448C85.5244 44.322 85.342 44.2479 85.0456 44.1225C84.7492 43.9971 84.4129 43.8432 84.0367 43.6608C83.6605 43.4784 83.2957 43.2846 82.9423 43.0794C82.5889 42.8742 82.321 42.669 82.1386 42.4638C81.9334 42.2586 81.7738 42.0933 81.6598 41.9679C81.5458 41.8425 81.4489 41.7342 81.3691 41.643C81.2893 41.5518 81.2152 41.472 81.1468 41.4036C81.0784 41.3352 81.01 41.244 80.9416 41.13C80.8504 41.016 80.7649 40.8963 80.6851 40.7709C80.6053 40.6455 80.5312 40.5144 80.4628 40.3776C80.4172 40.2408 80.3773 40.0926 80.3431 39.933C80.3089 39.7734 80.269 39.6138 80.2234 39.4542C80.2006 39.4086 80.1835 39.363 80.1721 39.3174C80.1607 39.2718 80.1436 39.2262 80.1208 39.1806C80.0752 39.0894 80.0524 39.0039 80.0524 38.9241C80.0524 38.8443 80.041 38.7588 80.0182 38.6676C79.9954 38.5764 79.9726 38.4909 79.9498 38.4111C79.927 38.3313 79.9042 38.2458 79.8814 38.1546C79.8586 38.0634 79.8472 37.9494 79.8472 37.8126C79.8472 37.4022 79.8529 37.0659 79.8643 36.8037C79.8757 36.5415 79.8871 36.3192 79.8985 36.1368C79.9099 35.9544 79.9327 35.7891 79.9669 35.6409C80.0011 35.4927 80.041 35.3274 80.0866 35.145C80.1322 34.9626 80.1721 34.8201 80.2063 34.7175C80.2405 34.6149 80.2747 34.518 80.3089 34.4268C80.3431 34.3356 80.3887 34.2387 80.4457 34.1361C80.5027 34.0335 80.5768 33.9024 80.668 33.7428C80.8048 33.4692 80.9758 33.2127 81.181 32.9733C81.3862 32.7339 81.7852 32.4204 82.378 32.0328C82.5376 31.9188 82.6915 31.8162 82.8397 31.725C82.9879 31.6338 83.1532 31.5654 83.3356 31.5198C83.4496 31.4742 83.5579 31.4457 83.6605 31.4343C83.7631 31.4229 83.8714 31.3944 83.9854 31.3488C84.0994 31.3032 84.2191 31.2633 84.3445 31.2291C84.4699 31.1949 84.5896 31.1664 84.7036 31.1436C84.7264 31.1436 84.8062 31.1265 84.943 31.0923C85.0798 31.0581 85.228 31.0296 85.3876 31.0068L85.8664 30.9384C86.026 30.9156 86.14 30.9042 86.2084 30.9042C86.2996 30.9042 86.4592 30.9099 86.6872 30.9213C86.9152 30.9327 87.052 30.9384 87.0976 30.9384H87.8842C87.9982 30.9384 88.1236 30.9498 88.2604 30.9726C88.3972 30.9954 88.534 31.0239 88.6708 31.0581C88.8076 31.0923 88.9444 31.1208 89.0812 31.1436L89.5942 31.2462L90.0046 31.3146C90.1414 31.3374 90.2668 31.3488 90.3808 31.3488C90.4948 31.3716 90.6145 31.383 90.7399 31.383C90.8653 31.383 90.985 31.3944 91.099 31.4172C91.213 31.44 91.3156 31.4628 91.4068 31.4856C91.498 31.5084 91.6006 31.5312 91.7146 31.554C91.7374 31.554 91.8001 31.5654 91.9027 31.5882C92.0053 31.611 92.1193 31.6281 92.2447 31.6395C92.3701 31.6509 92.4898 31.6623 92.6038 31.6737C92.7178 31.6851 92.7976 31.6908 92.8432 31.6908C93.1624 31.6908 93.3904 31.5939 93.5272 31.4001C93.664 31.2063 93.7324 31.0182 93.7324 30.8358C93.7324 30.7218 93.721 30.5052 93.6982 30.186C93.6754 29.8668 93.664 29.6502 93.664 29.5362V29.0574C93.664 28.9434 93.6697 28.7439 93.6811 28.4589C93.6925 28.1739 93.6982 27.9858 93.6982 27.8946C93.6982 27.5754 93.6469 27.3246 93.5443 27.1422C93.4417 26.9598 93.265 26.7774 93.0142 26.595C92.809 26.4354 92.6209 26.3043 92.4499 26.2017C92.2789 26.0991 92.0737 26.0136 91.8343 25.9452C91.5949 25.8768 91.3099 25.8255 90.9793 25.7913C90.6487 25.7571 90.2326 25.7286 89.731 25.7058C89.4574 25.7058 89.1268 25.7001 88.7392 25.6887C88.3516 25.6773 88.078 25.6716 87.9184 25.6716C87.8044 25.6716 87.5878 25.683 87.2686 25.7058C86.9494 25.7286 86.7442 25.74 86.653 25.74C86.539 25.74 86.425 25.7343 86.311 25.7229C86.197 25.7115 86.083 25.7058 85.969 25.7058C85.855 25.7286 85.6099 25.7514 85.2337 25.7742C84.8575 25.797 84.6124 25.8084 84.4984 25.8084C84.202 25.8084 83.8942 25.8255 83.575 25.8597C83.2558 25.8939 82.9537 25.9338 82.6687 25.9794C82.3837 26.025 82.1386 26.0706 81.9334 26.1162C81.7282 26.1618 81.6142 26.1846 81.5914 26.1846C81.3406 26.253 81.0841 26.3442 80.8219 26.4582C80.5597 26.5722 80.3032 26.6976 80.0524 26.8344C79.8928 26.9256 79.7047 27.0168 79.4881 27.108C79.2715 27.1992 79.0834 27.2904 78.9238 27.3816C78.8554 27.4272 78.7243 27.5127 78.5305 27.6381C78.3367 27.7635 78.103 27.9231 77.8294 28.1169C77.5558 28.3107 77.2765 28.5387 76.9915 28.8009C76.7065 29.0631 76.45 29.331 76.222 29.6046C75.994 29.8782 75.7774 30.1689 75.5722 30.4767C75.367 30.7845 75.1504 31.1436 74.9224 31.554C74.854 31.668 74.7799 31.839 74.7001 32.067C74.6203 32.295 74.5405 32.5344 74.4607 32.7852C74.3809 33.036 74.3125 33.2754 74.2555 33.5034C74.1985 33.7314 74.1586 33.9024 74.1358 34.0164C74.113 34.1304 74.0902 34.29 74.0674 34.4952C74.0446 34.7004 74.0218 34.917 73.999 35.145C73.9762 35.373 73.9534 35.5896 73.9306 35.7948ZM15.4047 36.9234V36.2565C15.4047 36.0171 15.4161 35.7834 15.4389 35.5554C15.4389 34.9854 15.4617 34.4268 15.5073 33.8796C15.5529 33.3324 15.5871 32.7738 15.6099 32.2038V31.6566C15.6099 31.383 15.6042 31.098 15.5928 30.8016C15.5814 30.5052 15.5757 30.2259 15.5757 29.9637V29.3994C15.5757 29.2854 15.5643 29.0574 15.5415 28.7154C15.5187 28.3734 15.5073 28.1454 15.5073 28.0314C15.5073 27.8034 15.513 27.5583 15.5244 27.2961C15.5358 27.0339 15.5871 26.7945 15.6783 26.5779C15.7695 26.3613 15.912 26.1846 16.1058 26.0478C16.2996 25.911 16.5675 25.8426 16.9095 25.8426C16.9779 25.8426 17.1261 25.854 17.3541 25.8768C17.5821 25.8996 17.7303 25.911 17.7987 25.911C17.8671 25.911 18.021 25.9053 18.2604 25.8939C18.4998 25.8825 18.6537 25.8768 18.7221 25.8768H18.9957C19.1325 25.8768 19.2807 25.8825 19.4403 25.8939C19.5999 25.9053 19.7481 25.911 19.8849 25.911H21.3213C21.4125 25.911 21.612 25.9053 21.9198 25.8939C22.2276 25.8825 22.4385 25.8768 22.5525 25.8768C22.7349 25.8768 22.9572 25.8711 23.2194 25.8597C23.4816 25.8483 23.7039 25.8426 23.8863 25.8426C23.9547 25.8426 24.0915 25.8483 24.2967 25.8597C24.5019 25.8711 24.7185 25.8825 24.9465 25.8939C25.1745 25.9053 25.3911 25.9167 25.5963 25.9281C25.8015 25.9395 25.9383 25.9566 26.0067 25.9794C26.0751 25.9794 26.1891 26.0022 26.3487 26.0478C26.5083 26.0934 26.6793 26.139 26.8617 26.1846C27.0441 26.2302 27.2151 26.2758 27.3747 26.3214C27.5343 26.367 27.6597 26.4012 27.7509 26.424C27.8193 26.4696 27.9333 26.5266 28.0929 26.595C28.2525 26.6634 28.4235 26.7432 28.6059 26.8344C28.7883 26.9256 28.9536 27.0054 29.1018 27.0738C29.25 27.1422 29.3355 27.1764 29.3583 27.1764C29.6319 27.336 29.9112 27.5298 30.1962 27.7578C30.4812 27.9858 30.6807 28.1568 30.7947 28.2708C30.8175 28.2936 30.8802 28.3791 30.9828 28.5273C31.0854 28.6755 31.1994 28.8351 31.3248 29.0061C31.4502 29.1771 31.5642 29.3367 31.6668 29.4849C31.7694 29.6331 31.8321 29.7186 31.8549 29.7414L32.0259 30.0834C32.1171 30.2658 32.2083 30.4824 32.2995 30.7332C32.3907 30.984 32.4762 31.2576 32.556 31.554C32.6358 31.8504 32.6757 32.124 32.6757 32.3748C32.6757 32.4204 32.67 32.5458 32.6586 32.751C32.6472 32.9562 32.6415 33.0816 32.6415 33.1272C32.6415 33.2412 32.6529 33.4692 32.6757 33.8112C32.6985 34.1532 32.7099 34.3812 32.7099 34.4952C32.7099 34.6776 32.6871 34.9227 32.6415 35.2305C32.5959 35.5383 32.5332 35.8632 32.4534 36.2052C32.3736 36.5472 32.2824 36.8778 32.1798 37.197C32.0772 37.5162 31.9689 37.7898 31.8549 38.0178C31.7865 38.1546 31.6839 38.3142 31.5471 38.4966C31.4103 38.679 31.2678 38.8614 31.1196 39.0438C30.9714 39.2262 30.8289 39.4029 30.6921 39.5739C30.5553 39.7449 30.4413 39.876 30.3501 39.9672C30.0537 40.2864 29.8143 40.5429 29.6319 40.7367C29.4495 40.9305 29.3127 41.0844 29.2215 41.1984C29.1303 41.3124 29.0733 41.415 29.0505 41.5062C29.0277 41.5974 29.0163 41.7 29.0163 41.814C29.0163 42.0648 29.079 42.2586 29.2044 42.3954C29.3298 42.5322 29.4723 42.6576 29.6319 42.7716C29.9967 43.0452 30.3729 43.2789 30.7605 43.4727C31.1481 43.6665 31.3989 43.7862 31.5129 43.8318C31.6269 43.8774 31.7238 43.9059 31.8036 43.9173C31.8834 43.9287 31.9803 43.9572 32.0943 44.0028C32.3451 44.1624 32.4933 44.3448 32.5389 44.55C32.5845 44.7552 32.6073 44.9148 32.6073 45.0288C32.6073 45.1428 32.6016 45.2682 32.5902 45.405C32.5788 45.5418 32.5731 45.6672 32.5731 45.7812C32.5731 45.8496 32.5845 45.9978 32.6073 46.2258C32.6301 46.4538 32.6415 46.602 32.6415 46.6704C32.6415 46.716 32.6358 46.8129 32.6244 46.9611C32.613 47.1093 32.6016 47.2632 32.5902 47.4228C32.5788 47.5824 32.5674 47.7306 32.556 47.8674L32.5538 47.8943C32.5336 47.9492 32.5107 48.0087 32.4851 48.0726C32.3939 48.3234 32.3483 48.597 32.3483 48.8934C32.3483 49.0709 32.3863 49.2381 32.4623 49.3948C32.4357 49.443 32.4042 49.4868 32.3679 49.5261C32.2311 49.6743 32.0772 49.794 31.9062 49.8852C31.7352 49.9764 31.5756 50.0334 31.4274 50.0562C31.2792 50.079 31.1823 50.0904 31.1367 50.0904C30.7719 50.0904 30.4185 50.0334 30.0765 49.9194C29.7345 49.8054 29.421 49.6743 29.136 49.5261C28.851 49.3779 28.6173 49.2297 28.4349 49.0815C28.2525 48.9333 28.1271 48.8364 28.0587 48.7908C27.8079 48.5856 27.4602 48.2835 27.0156 47.8845C26.571 47.4855 26.1891 47.0922 25.8699 46.7046C25.8243 46.6362 25.7673 46.5621 25.6989 46.4823C25.6305 46.4025 25.5621 46.3398 25.4937 46.2942C25.3113 46.1346 25.0947 45.9864 24.8439 45.8496C24.7983 45.804 24.6729 45.7014 24.4677 45.5418C24.2625 45.3822 24.1371 45.2796 24.0915 45.234C23.6355 44.9376 23.2992 44.7609 23.0826 44.7039C22.866 44.6469 22.6323 44.6184 22.3815 44.6184C22.2903 44.6184 22.1934 44.6412 22.0908 44.6868C21.9882 44.7324 21.9141 44.7666 21.8685 44.7894C21.7089 44.9034 21.6006 45.006 21.5436 45.0972C21.4866 45.1884 21.4239 45.3138 21.3555 45.4734C21.2415 45.7014 21.1731 45.8895 21.1503 46.0377C21.1275 46.1859 21.1161 46.4994 21.1161 46.9782C21.1161 47.0922 21.1218 47.2005 21.1332 47.3031C21.1446 47.4057 21.1731 47.6394 21.2187 48.0042C21.2415 48.0726 21.2757 48.2493 21.3213 48.5343C21.3669 48.8193 21.3897 49.0074 21.3897 49.0986C21.3897 49.4178 21.2928 49.6572 21.099 49.8168C20.9052 49.9764 20.6943 50.0562 20.4663 50.0562C20.3523 50.0562 20.2326 50.0448 20.1072 50.022C19.9818 49.9992 19.8621 49.9764 19.7481 49.9536C19.6341 49.9308 19.5201 49.9137 19.4061 49.9023C19.2921 49.8909 19.1781 49.8852 19.0641 49.8852C19.0413 49.8852 18.9273 49.8909 18.7221 49.9023C18.5169 49.9137 18.3915 49.9194 18.3459 49.9194C18.2319 49.9422 18.1179 49.9536 18.0039 49.9536H17.5593C17.4681 49.9536 17.2629 49.9593 16.9437 49.9707C16.6245 49.9821 16.4193 49.9878 16.3281 49.9878C16.1229 49.9878 15.9519 49.9422 15.8151 49.851C15.6783 49.7598 15.57 49.6515 15.4902 49.5261C15.4104 49.4007 15.3591 49.2696 15.3363 49.1328C15.3135 48.996 15.3021 48.882 15.3021 48.7908C15.3021 48.654 15.3135 48.5172 15.3363 48.3804L15.4047 47.97C15.4275 47.856 15.4389 47.742 15.4389 47.628V47.0124C15.4389 46.8756 15.4332 46.7331 15.4218 46.5849C15.4104 46.4367 15.4047 46.2999 15.4047 46.1745V45.8838C15.4047 45.6558 15.4104 45.4278 15.4218 45.1998C15.4332 44.9718 15.4503 44.7324 15.4731 44.4816C15.4959 44.1852 15.513 43.9401 15.5244 43.7463C15.5358 43.5525 15.5415 43.41 15.5415 43.3188C15.5415 43.068 15.5301 42.8058 15.5073 42.5322C15.4845 42.2586 15.4731 41.9964 15.4731 41.7456V41.301C15.4731 41.0958 15.4674 40.8849 15.456 40.6683C15.4446 40.4517 15.4389 40.2408 15.4389 40.0356V39.591C15.4389 39.4998 15.4446 39.306 15.456 39.0096C15.4674 38.7132 15.4731 38.508 15.4731 38.394C15.4731 38.3484 15.4674 38.2572 15.456 38.1204C15.4446 37.9836 15.4389 37.8354 15.4389 37.6758C15.4389 37.5162 15.4332 37.368 15.4218 37.2312C15.4104 37.0944 15.4047 36.9918 15.4047 36.9234ZM32.4623 49.3948C32.5361 49.2615 32.5731 49.0944 32.5731 48.8934C32.5731 48.8478 32.5674 48.7281 32.556 48.5343C32.5446 48.3405 32.5389 48.2208 32.5389 48.1752C32.5389 48.1114 32.5438 48.0177 32.5538 47.8943C32.6056 47.7532 32.6397 47.6416 32.6561 47.5596C32.7017 47.4456 32.7245 47.3373 32.7245 47.2347C32.7245 47.1321 32.7359 47.0238 32.7587 46.9098C32.7815 46.773 32.7986 46.6476 32.81 46.5336C32.8214 46.4196 32.8385 46.3056 32.8613 46.1916C32.8841 46.0776 32.9354 45.8667 33.0152 45.5589C33.095 45.2511 33.1463 45.0402 33.1691 44.9262C33.2147 44.6754 33.2432 44.4246 33.2546 44.1738C33.266 43.923 33.2945 43.6722 33.3401 43.4214C33.3629 43.3302 33.3914 43.1877 33.4256 42.9939C33.4598 42.8001 33.5054 42.5949 33.5624 42.3783C33.6194 42.1617 33.6707 41.9508 33.7163 41.7456C33.7619 41.5404 33.7961 41.3922 33.8189 41.301C33.8645 41.1642 33.9044 41.0217 33.9386 40.8735C33.9728 40.7253 34.0127 40.5828 34.0583 40.446C34.1039 40.1952 34.1438 39.9444 34.178 39.6936C34.2122 39.4428 34.2521 39.192 34.2977 38.9412C34.2977 38.8956 34.3262 38.7474 34.3832 38.4966C34.4402 38.2458 34.5029 37.9779 34.5713 37.6929C34.6397 37.4079 34.7024 37.1343 34.7594 36.8721C34.8164 36.6099 34.8677 36.4446 34.9133 36.3762C34.9589 36.2622 35.0045 36.1539 35.0501 36.0513C35.0957 35.9487 35.1299 35.8404 35.1527 35.7264C35.1755 35.658 35.1869 35.5839 35.1869 35.5041C35.1869 35.4243 35.1983 35.3502 35.2211 35.2818C35.2211 35.2134 35.2496 35.0481 35.3066 34.7859C35.3636 34.5237 35.4206 34.233 35.4776 33.9138C35.5346 33.5946 35.5916 33.2925 35.6486 33.0075C35.7056 32.7225 35.7455 32.5458 35.7683 32.4774C35.7911 32.409 35.8082 32.3349 35.8196 32.2551C35.831 32.1753 35.8481 32.1012 35.8709 32.0328C35.9165 31.8048 35.9621 31.611 36.0077 31.4514L36.2813 30.6306C36.3269 30.4938 36.3611 30.357 36.3839 30.2202C36.4067 30.0834 36.4295 29.9352 36.4523 29.7756C36.6347 28.476 36.914 27.5298 37.2902 26.937C37.6664 26.3442 38.3333 26.0478 39.2909 26.0478H39.6329C39.7925 26.0478 39.9635 26.0592 40.1459 26.082C40.6019 26.1276 41.1206 26.139 41.702 26.1162C42.2834 26.0934 42.9275 26.0592 43.6343 26.0136C44.0903 25.9452 44.5463 25.9623 45.0023 26.0649C45.4583 26.1675 45.8459 26.3442 46.1651 26.595C46.4615 26.823 46.6781 27.0567 46.8149 27.2961C46.9517 27.5355 47.0771 27.8946 47.1911 28.3734C47.2595 28.6014 47.3222 28.8294 47.3792 29.0574C47.4362 29.2854 47.4989 29.5248 47.5673 29.7756C47.6129 29.958 47.6756 30.1461 47.7554 30.3399C47.8352 30.5337 47.8979 30.7218 47.9435 30.9042L48.2171 32.2038C48.2399 32.3178 48.2513 32.4204 48.2513 32.5116C48.2513 32.6028 48.2741 32.7054 48.3197 32.8194C48.3425 32.9334 48.3995 33.1044 48.4907 33.3324C48.5363 33.4464 48.6104 33.6915 48.713 34.0677C48.8156 34.4439 48.9011 34.8144 48.9695 35.1792C49.0151 35.4984 49.0493 35.715 49.0721 35.829C49.0949 35.943 49.1405 36.1254 49.2089 36.3762C49.2317 36.4902 49.2716 36.6327 49.3286 36.8037C49.3856 36.9747 49.4369 37.1457 49.4825 37.3167C49.5281 37.4877 49.568 37.6473 49.6022 37.7955C49.6364 37.9437 49.6535 38.0406 49.6535 38.0862C49.6763 38.2686 49.6877 38.4396 49.6877 38.5992C49.6877 38.7588 49.7105 38.9184 49.7561 39.078C49.8017 39.192 49.8416 39.2946 49.8758 39.3858C49.91 39.477 49.9499 39.5796 49.9955 39.6936C50.0183 39.8076 50.0696 40.0185 50.1494 40.3263C50.2292 40.6341 50.2805 40.845 50.3033 40.959C50.3489 41.1414 50.3717 41.3181 50.3717 41.4891C50.3717 41.6601 50.3945 41.8368 50.4401 42.0192C50.4857 42.1332 50.5256 42.2472 50.5598 42.3612C50.594 42.4752 50.6339 42.5892 50.6795 42.7032C50.7251 42.8856 50.7935 43.1649 50.8847 43.5411C50.9759 43.9173 51.0329 44.1852 51.0557 44.3448C51.0785 44.5272 51.0956 44.6583 51.107 44.7381C51.1184 44.8179 51.1469 44.9148 51.1925 45.0288C51.2837 45.2568 51.3806 45.5646 51.4832 45.9522C51.5858 46.3398 51.6599 46.6704 51.7055 46.944C51.7511 47.0808 51.7796 47.2119 51.791 47.3373C51.8024 47.4627 51.8309 47.5824 51.8765 47.6964C51.9221 47.8104 51.9677 47.9187 52.0133 48.0213C52.0589 48.1239 52.0931 48.2322 52.1159 48.3462C52.1387 48.4146 52.1615 48.5856 52.1843 48.8592C52.2071 49.1328 52.2185 49.2924 52.2185 49.338C52.2185 49.6572 52.0532 49.8453 51.7226 49.9023C51.392 49.9593 51.0671 49.9878 50.7479 49.9878C50.6795 49.9878 50.5598 49.9935 50.3888 50.0049C50.2178 50.0163 50.0297 50.0277 49.8245 50.0391C49.6193 50.0505 49.4255 50.0619 49.2431 50.0733C49.0607 50.0847 48.9353 50.0904 48.8669 50.0904C48.3425 50.0904 47.9207 50.0733 47.6015 50.0391C47.2823 50.0049 47.0315 49.9365 46.8491 49.8339C46.6667 49.7313 46.5185 49.5888 46.4045 49.4064C46.2905 49.224 46.1765 48.9732 46.0625 48.654C46.0169 48.4944 45.977 48.3405 45.9428 48.1923C45.9086 48.0441 45.8573 47.9016 45.7889 47.7648L45.5837 47.3544C45.4697 47.1036 45.3614 46.9155 45.2588 46.7901C45.1562 46.6647 44.9453 46.5336 44.6261 46.3968C44.5349 46.374 44.3924 46.3455 44.1986 46.3113C44.0048 46.2771 43.7996 46.2543 43.583 46.2429C43.3664 46.2315 43.1612 46.2201 42.9674 46.2087C42.7736 46.1973 42.6311 46.1916 42.5399 46.1916H41.4455C41.3315 46.1916 41.2061 46.203 41.0693 46.2258C40.9325 46.2486 40.7045 46.2942 40.3853 46.3626C39.9977 46.4538 39.707 46.5279 39.5132 46.5849C39.3194 46.6419 39.1427 46.7616 38.9831 46.944C38.8691 47.058 38.7152 47.343 38.5214 47.799C38.3276 48.255 38.2079 48.6768 38.1623 49.0644C38.1623 49.2468 38.1452 49.3665 38.111 49.4235C38.0768 49.4805 37.9799 49.5888 37.8203 49.7484C37.6835 49.8852 37.5638 49.9707 37.4612 50.0049C37.3586 50.0391 37.0793 50.0562 36.6233 50.0562H36.2984C36.1502 50.0562 35.9906 50.0505 35.8196 50.0391C35.6486 50.0277 35.4833 50.022 35.3237 50.022H34.9817C34.9133 50.022 34.748 50.0334 34.4858 50.0562C34.2236 50.079 34.0469 50.0904 33.9557 50.0904C33.8645 50.0904 33.6707 50.0676 33.3743 50.022C33.0779 49.9764 32.9183 49.9422 32.8955 49.9194C32.7815 49.851 32.6618 49.7199 32.5364 49.5261C32.5086 49.4832 32.484 49.4394 32.4623 49.3948ZM10.26 26.1162C10.3284 26.1162 10.4937 26.1048 10.7559 26.082C11.0181 26.0592 11.1948 26.0478 11.286 26.0478C11.4456 26.0478 11.5938 26.0535 11.7306 26.0649C11.8674 26.0763 12.0156 26.082 12.1752 26.082C12.2436 26.082 12.4146 26.0763 12.6882 26.0649C12.9618 26.0535 13.1442 26.0478 13.2354 26.0478C13.509 26.0478 13.7256 26.0991 13.8852 26.2017C14.0448 26.3043 14.1645 26.4297 14.2443 26.5779C14.3241 26.7261 14.3697 26.8743 14.3811 27.0225C14.3925 27.1707 14.3982 27.2904 14.3982 27.3816C14.3982 27.4272 14.3925 27.5127 14.3811 27.6381C14.3697 27.7635 14.364 27.9003 14.364 28.0485C14.364 28.1967 14.3583 28.3392 14.3469 28.476C14.3355 28.6128 14.3298 28.7154 14.3298 28.7838C14.3298 28.8522 14.3355 29.0118 14.3469 29.2626C14.3583 29.5134 14.364 29.6844 14.364 29.7756C14.364 30.1632 14.2614 30.4425 14.0562 30.6135C13.851 30.7845 13.7256 30.8814 13.68 30.9042C13.4976 31.0182 13.2981 31.0752 13.0815 31.0752C12.8649 31.0752 12.6426 31.0866 12.4146 31.1094C12.2778 31.1094 12.141 31.1151 12.0042 31.1265C11.8674 31.1379 11.7306 31.1436 11.5938 31.1436C11.5026 31.1436 11.3088 31.1322 11.0124 31.1094C10.716 31.0866 10.5222 31.0752 10.431 31.0752C10.3398 31.0524 10.2486 31.0467 10.1574 31.0581C10.0662 31.0695 9.975 31.0638 9.8838 31.041C9.7698 31.041 9.6729 31.0353 9.5931 31.0239C9.5133 31.0125 9.4164 31.0068 9.3024 31.0068C9.2568 31.0068 9.1599 31.0125 9.0117 31.0239C8.8635 31.0353 8.7666 31.041 8.721 31.041H8.4474C8.3106 31.041 8.1681 31.0353 8.0199 31.0239C7.8717 31.0125 7.7292 31.0068 7.5924 31.0068H7.2846C7.1022 31.0068 6.9141 31.0239 6.7203 31.0581C6.5265 31.0923 6.3954 31.1322 6.327 31.1778C6.1446 31.269 5.9907 31.4514 5.8653 31.725C5.7399 31.9986 5.6772 32.466 5.6772 33.1272C5.6772 33.8568 5.7855 34.347 6.0021 34.5978C6.2187 34.8486 6.384 35.0082 6.498 35.0766C6.6576 35.145 6.8913 35.2077 7.1991 35.2647C7.5069 35.3217 7.8204 35.3502 8.1396 35.3502C8.208 35.3502 8.322 35.3445 8.4816 35.3331C8.6412 35.3217 8.8065 35.316 8.9775 35.316C9.1485 35.316 9.3138 35.3103 9.4734 35.2989C9.633 35.2875 9.747 35.2818 9.8154 35.2818C9.9066 35.2818 10.1175 35.2989 10.4481 35.3331C10.7787 35.3673 11.001 35.3844 11.115 35.3844C11.2062 35.3844 11.4 35.3616 11.6964 35.316C11.9928 35.2704 12.198 35.2476 12.312 35.2476C12.654 35.2476 12.8763 35.2818 12.9789 35.3502C13.0815 35.4186 13.1556 35.4756 13.2012 35.5212C13.2696 35.5896 13.3266 35.7036 13.3722 35.8632C13.4178 36.0228 13.4406 36.171 13.4406 36.3078C13.4406 36.4218 13.4292 36.5415 13.4064 36.6669C13.3836 36.7923 13.3722 36.9234 13.3722 37.0602V37.7784C13.3722 37.8696 13.3551 38.0463 13.3209 38.3085C13.2867 38.5707 13.2696 38.7474 13.2696 38.8386C13.2468 38.9526 13.2411 39.0609 13.2525 39.1635C13.2639 39.2661 13.2468 39.3744 13.2012 39.4884C13.0644 39.99 12.711 40.2408 12.141 40.2408H9.7812C9.69 40.2408 9.5076 40.2351 9.234 40.2237C8.9604 40.2123 8.778 40.2066 8.6868 40.2066C7.9116 40.2066 7.3758 40.2693 7.0794 40.3947C6.783 40.5201 6.5664 40.6398 6.4296 40.7538C6.3156 40.8678 6.2358 40.9533 6.1902 41.0103C6.1446 41.0673 6.0876 41.187 6.0192 41.3694C5.9052 41.643 5.8368 41.8767 5.814 42.0705C5.7912 42.2643 5.7798 42.6576 5.7798 43.2504C5.7798 43.296 5.7741 43.3758 5.7627 43.4898C5.7513 43.6038 5.7456 43.7292 5.7456 43.866C5.7456 44.0028 5.7399 44.1339 5.7285 44.2593C5.7171 44.3847 5.7114 44.4816 5.7114 44.55V45.747C5.7114 45.8382 5.7057 46.0149 5.6943 46.2771C5.6829 46.5393 5.6772 46.716 5.6772 46.8072C5.6772 46.8756 5.6829 47.0238 5.6943 47.2518C5.7057 47.4798 5.7114 47.628 5.7114 47.6964C5.7114 47.742 5.7171 47.8332 5.7285 47.97C5.7399 48.1068 5.7456 48.198 5.7456 48.2436V48.996C5.7456 49.1784 5.7114 49.3893 5.643 49.6287C5.5746 49.8681 5.3352 50.0106 4.9248 50.0562C4.8564 50.079 4.7139 50.0847 4.4973 50.0733C4.2807 50.0619 4.1382 50.0562 4.0698 50.0562C4.0014 50.0562 3.8988 50.0619 3.762 50.0733C3.6252 50.0847 3.4713 50.0904 3.3003 50.0904C3.1293 50.0904 2.9697 50.0961 2.8215 50.1075C2.6733 50.1189 2.565 50.1246 2.4966 50.1246C2.451 50.1246 2.3313 50.1189 2.1375 50.1075C1.9437 50.0961 1.824 50.0904 1.7784 50.0904C1.7328 50.0904 1.6131 50.0961 1.4193 50.1075C1.2255 50.1189 1.1058 50.1246 1.0602 50.1246C0.809399 50.1246 0.609901 50.079 0.4617 49.9878C0.313499 49.8966 0.2052 49.794 0.1368 49.68C0.0683997 49.566 0.0285001 49.452 0.0171 49.338C0.00569994 49.224 0 49.1442 0 49.0986C0 49.0758 0.00569994 48.9789 0.0171 48.8079C0.0285001 48.6369 0.0398999 48.4488 0.0513 48.2436L0.0855 47.628C0.0969001 47.4228 0.1026 47.286 0.1026 47.2176C0.1026 46.9896 0.0969001 46.7673 0.0855 46.5507C0.0740999 46.3341 0.0684 46.1118 0.0684 45.8838C0.0684 45.7698 0.0627001 45.6159 0.0513 45.4221C0.0398999 45.2283 0.0342 45.0174 0.0342 44.7894V43.2333C0.0342 43.0167 0.0398999 42.7887 0.0513 42.5493C0.0627001 42.3099 0.0684 42.0876 0.0684 41.8824V41.4378C0.0684 41.3694 0.0740999 41.2611 0.0855 41.1129C0.0969001 40.9647 0.1083 40.7994 0.1197 40.617C0.1311 40.4346 0.1425 40.2636 0.1539 40.104C0.1653 39.9444 0.171 39.8304 0.171 39.762C0.171 39.648 0.1653 39.534 0.1539 39.42C0.1425 39.306 0.1368 39.192 0.1368 39.078C0.114 38.7132 0.0969001 38.3541 0.0855 38.0007C0.0740999 37.6473 0.0684 37.2996 0.0684 36.9576C0.0684 36.798 0.0740999 36.4959 0.0855 36.0513C0.0969001 35.6067 0.1083 35.1336 0.1197 34.632C0.1311 34.1304 0.1425 33.6573 0.1539 33.2127C0.1653 32.7681 0.171 32.4546 0.171 32.2722V31.8789C0.171 31.6851 0.1653 31.4742 0.1539 31.2462C0.1425 31.0182 0.1368 30.8073 0.1368 30.6135V30.2202C0.1368 30.129 0.1425 29.9295 0.1539 29.6217C0.1653 29.3139 0.171 29.103 0.171 28.989V28.818C0.171 28.7268 0.1539 28.5216 0.1197 28.2024C0.0854998 27.8832 0.0684 27.6666 0.0684 27.5526C0.0684 27.4386 0.0968997 27.2904 0.1539 27.108C0.2109 26.9256 0.2622 26.7888 0.3078 26.6976C0.444601 26.4012 0.649799 26.2245 0.9234 26.1675C1.197 26.1105 1.71 26.082 2.4624 26.082C2.5308 26.082 2.6904 26.0877 2.9412 26.0991C3.192 26.1105 3.363 26.1162 3.4542 26.1162C3.5226 26.1162 3.6879 26.1105 3.9501 26.0991C4.2123 26.0877 4.389 26.082 4.4802 26.082C4.6398 26.082 4.7937 26.0877 4.9419 26.0991C5.0901 26.1105 5.244 26.1162 5.4036 26.1162C5.472 26.1162 5.586 26.1105 5.7456 26.0991C5.9052 26.0877 6.0762 26.082 6.2586 26.082C6.441 26.082 6.612 26.0763 6.7716 26.0649C6.9312 26.0535 7.0452 26.0478 7.1136 26.0478C7.2276 26.0478 7.4613 26.0592 7.8147 26.082C8.1681 26.1048 8.4018 26.1162 8.5158 26.1162H10.26ZM22.2447 31.1778C22.3587 31.1322 22.4499 31.1094 22.5183 31.1094L22.7406 31.1265C22.8888 31.1379 23.0484 31.155 23.2194 31.1778C23.3904 31.2006 23.55 31.2177 23.6982 31.2291C23.8464 31.2405 23.9319 31.2462 23.9547 31.2462C24.2055 31.2462 24.3993 31.2576 24.5361 31.2804C24.6729 31.3032 24.9237 31.3716 25.2885 31.4856C25.6533 31.5996 25.9611 31.7763 26.2119 32.0157C26.4627 32.2551 26.6565 32.5059 26.7933 32.7681C26.9301 33.0303 27.027 33.2868 27.084 33.5376C27.141 33.7884 27.1695 33.9936 27.1695 34.1532C27.1695 34.7916 27.084 35.316 26.913 35.7264C26.742 36.1368 26.5995 36.456 26.4855 36.684C26.2119 37.1628 26.0295 37.4706 25.9383 37.6074C25.8471 37.7442 25.7217 37.8696 25.5621 37.9836C25.4937 38.052 25.4196 38.1147 25.3398 38.1717C25.26 38.2287 25.1859 38.3028 25.1175 38.394C25.0263 38.4396 24.9465 38.5023 24.8781 38.5821C24.8097 38.6619 24.7413 38.7246 24.6729 38.7702C24.5817 38.8158 24.5019 38.85 24.4335 38.8728C24.3651 38.8956 24.2853 38.9298 24.1941 38.9754C23.9889 39.0666 23.8464 39.1236 23.7666 39.1464L23.4075 39.249C23.1567 39.2946 23.0028 39.3174 22.9458 39.3174H22.7577C22.7349 39.3174 22.5867 39.3117 22.3131 39.3003C22.0395 39.2889 21.8571 39.2604 21.7659 39.2148C21.4923 39.1236 21.327 38.9754 21.27 38.7702C21.213 38.565 21.1731 38.3826 21.1503 38.223C21.1503 38.1546 21.1446 38.0292 21.1332 37.8468C21.1218 37.6644 21.1104 37.4706 21.099 37.2654C21.0876 37.0602 21.0762 36.8664 21.0648 36.684C21.0534 36.5016 21.0477 36.3762 21.0477 36.3078C21.0477 36.2394 21.0534 36.1311 21.0648 35.9829C21.0762 35.8347 21.0819 35.6751 21.0819 35.5041C21.0819 35.3331 21.0876 35.1735 21.099 35.0253C21.1104 34.8771 21.1161 34.7688 21.1161 34.7004C21.1161 34.632 21.1104 34.518 21.099 34.3584C21.0876 34.1988 21.0819 34.0278 21.0819 33.8454C21.0819 33.663 21.0762 33.4977 21.0648 33.3495C21.0534 33.2013 21.0477 33.093 21.0477 33.0246C21.0477 32.8194 21.0648 32.6598 21.099 32.5458C21.1332 32.4318 21.2073 32.2266 21.3213 31.9302C21.4125 31.7478 21.4866 31.6224 21.5436 31.554C21.6006 31.4856 21.7203 31.4058 21.9027 31.3146L22.2447 31.1778ZM40.4024 37.1457C40.4138 37.0203 40.4423 36.9006 40.4879 36.7866C40.5107 36.6498 40.5335 36.5187 40.5563 36.3933C40.5791 36.2679 40.6133 36.1368 40.6589 36L40.7615 35.1792C40.7615 35.1564 40.79 35.0481 40.847 34.8543C40.904 34.6605 40.9724 34.4382 41.0522 34.1874C41.132 33.9366 41.2118 33.6972 41.2916 33.4692C41.3714 33.2412 41.4455 33.0816 41.5139 32.9904C41.6735 32.7396 41.8673 32.6142 42.0953 32.6142C42.1637 32.6142 42.2834 32.6427 42.4544 32.6997C42.6254 32.7567 42.7679 32.979 42.8819 33.3666C42.9275 33.5034 42.9845 33.7086 43.0529 33.9822C43.1213 34.2558 43.1783 34.461 43.2239 34.5978C43.2695 34.7118 43.3094 34.8258 43.3436 34.9398C43.3778 35.0538 43.4177 35.1678 43.4633 35.2818C43.5089 35.4642 43.5431 35.6466 43.5659 35.829C43.5887 36.0114 43.6229 36.1938 43.6685 36.3762C43.7141 36.5586 43.7654 36.7353 43.8224 36.9063C43.8794 37.0773 43.9307 37.254 43.9763 37.4364C44.1131 37.8696 44.2043 38.2116 44.2499 38.4624C44.2955 38.7132 44.3411 39.0894 44.3867 39.591C44.4095 39.6822 44.4209 39.819 44.4209 40.0014C44.4209 40.3434 44.3468 40.56 44.1986 40.6512C44.0504 40.7424 43.8851 40.8108 43.7027 40.8564C43.4519 40.902 43.1726 40.9419 42.8648 40.9761C42.557 41.0103 42.3119 41.0274 42.1295 41.0274C41.4683 41.0274 40.9439 40.902 40.5563 40.6512C40.1687 40.4004 39.9749 39.9786 39.9749 39.3858C39.9749 39.1806 39.9977 38.9811 40.0433 38.7873C40.0889 38.5935 40.1345 38.4054 40.1801 38.223C40.2257 38.109 40.2599 37.9893 40.2827 37.8639C40.3055 37.7385 40.3283 37.6188 40.3511 37.5048C40.3739 37.3908 40.391 37.2711 40.4024 37.1457ZM52.541 28.3734C52.541 28.305 52.5239 28.1397 52.4897 27.8775C52.4555 27.6153 52.4384 27.4386 52.4384 27.3474V26.937C52.4384 26.8002 52.4612 26.6748 52.5068 26.5608C52.5524 26.4468 52.6322 26.3271 52.7462 26.2017C52.8602 26.0763 53.0084 26.0136 53.1908 26.0136C53.2364 26.0136 53.3504 26.0307 53.5328 26.0649C53.7152 26.0991 53.8406 26.1162 53.909 26.1162H54.1142C54.1826 26.0934 54.2852 26.082 54.422 26.082H54.935L55.0034 26.1162H55.3454C55.4138 26.1162 55.4936 26.1048 55.5848 26.082H56.0294C56.1434 26.082 56.3258 26.0877 56.5766 26.0991C56.8274 26.1105 57.0098 26.139 57.1238 26.1846C57.1694 26.2074 57.215 26.2245 57.2606 26.2359C57.3062 26.2473 57.3518 26.2644 57.3974 26.2872C57.5114 26.3328 57.6197 26.3442 57.7223 26.3214C57.8249 26.2986 57.9332 26.31 58.0472 26.3556C58.1612 26.4012 58.2866 26.481 58.4234 26.595C58.5602 26.709 58.64 26.7774 58.6628 26.8002C58.7312 26.8914 58.8737 27.0909 59.0903 27.3987C59.3069 27.7065 59.5235 28.0371 59.7401 28.3905C59.9567 28.7439 60.1619 29.0745 60.3557 29.3823C60.5495 29.6901 60.6692 29.8782 60.7148 29.9466C60.806 30.0378 60.8972 30.1518 60.9884 30.2886C61.0568 30.4026 61.1195 30.5052 61.1765 30.5964C61.2335 30.6876 61.2962 30.7788 61.3646 30.87C61.5242 31.1436 61.6553 31.3602 61.7579 31.5198C61.8605 31.6794 61.946 31.8162 62.0144 31.9302C62.0828 32.0442 62.1398 32.1411 62.1854 32.2209C62.231 32.3007 62.2766 32.3976 62.3222 32.5116C62.4362 32.7396 62.5787 32.9847 62.7497 33.2469C62.9207 33.5091 63.0974 33.7542 63.2798 33.9822C63.599 34.461 63.9068 34.9512 64.2032 35.4528C64.4996 35.9544 64.7732 36.4674 65.024 36.9918C65.0696 37.083 65.1779 37.2768 65.3489 37.5732C65.5199 37.8696 65.6282 38.0748 65.6738 38.1888L65.9816 38.6505C66.0956 38.8215 66.1754 38.907 66.221 38.907C66.4034 38.907 66.5003 38.7417 66.5117 38.4111C66.5231 38.0805 66.5288 37.7556 66.5288 37.4364C66.5288 37.368 66.5345 37.2141 66.5459 36.9747C66.5573 36.7353 66.563 36.5814 66.563 36.513C66.563 36.399 66.5573 36.2907 66.5459 36.1881C66.5345 36.0855 66.5288 35.9772 66.5288 35.8632C66.5288 35.772 66.5402 35.5953 66.563 35.3331C66.5858 35.0709 66.5972 34.8942 66.5972 34.803C66.5972 34.7118 66.5801 34.5066 66.5459 34.1874C66.5117 33.8682 66.4946 33.6516 66.4946 33.5376C66.4946 33.492 66.5003 33.4008 66.5117 33.264C66.5231 33.1272 66.5345 32.9847 66.5459 32.8365C66.5573 32.6883 66.5687 32.5458 66.5801 32.409C66.5915 32.2722 66.5972 32.1696 66.5972 32.1012C66.5972 32.0328 66.5915 31.9188 66.5801 31.7592C66.5687 31.5996 66.5573 31.4343 66.5459 31.2633C66.5345 31.0923 66.5231 30.927 66.5117 30.7674C66.5003 30.6078 66.4946 30.4938 66.4946 30.4254V27.9288C66.4946 27.8832 66.4832 27.7407 66.4604 27.5013C66.4376 27.2619 66.4262 27.0966 66.4262 27.0054C66.4262 26.7546 66.4946 26.5665 66.6314 26.4411C66.7682 26.3157 66.8822 26.2302 66.9734 26.1846C67.019 26.1618 67.0988 26.1504 67.2128 26.1504H69.0254C69.1394 26.1504 69.2648 26.1618 69.4016 26.1846C69.5156 26.1846 69.6353 26.1903 69.7607 26.2017C69.8861 26.2131 69.9716 26.2188 70.0172 26.2188C70.1312 26.2188 70.2452 26.2131 70.3592 26.2017C70.4732 26.1903 70.5872 26.1846 70.7012 26.1846C70.7468 26.1846 70.8494 26.1732 71.009 26.1504C71.1686 26.1276 71.2712 26.1162 71.3168 26.1162C71.4992 26.1162 71.693 26.2131 71.8982 26.4069C72.1034 26.6007 72.206 26.9256 72.206 27.3816C72.206 27.45 72.2003 27.5526 72.1889 27.6894C72.1775 27.8262 72.1661 27.9801 72.1547 28.1511C72.1433 28.3221 72.1319 28.4817 72.1205 28.6299C72.1091 28.7781 72.1034 28.8864 72.1034 28.9548V29.2626C72.1034 29.4222 72.1091 29.5875 72.1205 29.7585C72.1319 29.9295 72.1376 30.0891 72.1376 30.2373V30.9726C72.1376 31.1778 72.1319 31.4001 72.1205 31.6395C72.1091 31.8789 72.1034 32.1012 72.1034 32.3064V34.3926C72.1034 34.5522 72.092 34.7232 72.0692 34.9056C72.0692 34.974 72.0635 35.0994 72.0521 35.2818C72.0407 35.4642 72.0293 35.658 72.0179 35.8632C72.0065 36.0684 71.9951 36.2679 71.9837 36.4617C71.9723 36.6555 71.9666 36.7866 71.9666 36.855C71.9666 36.9234 71.9723 37.0374 71.9837 37.197C71.9951 37.3566 72.0008 37.5276 72.0008 37.71C72.0008 37.8924 72.0065 38.0691 72.0179 38.2401C72.0293 38.4111 72.035 38.5308 72.035 38.5992C72.0578 38.964 72.0635 39.3972 72.0521 39.8988C72.0407 40.4004 72.035 40.845 72.035 41.2326C72.035 41.6658 72.0407 42.1845 72.0521 42.7887C72.0635 43.3929 72.0692 43.923 72.0692 44.379C72.0692 44.4702 72.0635 44.5557 72.0521 44.6355C72.0407 44.7153 72.035 44.7894 72.035 44.8578C72.0122 44.9718 71.9951 45.0801 71.9837 45.1827C71.9723 45.2853 71.9666 45.3936 71.9666 45.5076C71.9666 45.576 71.9723 45.7299 71.9837 45.9693C71.9951 46.2087 72.0008 46.3626 72.0008 46.431C72.0008 46.5222 72.0122 46.6818 72.035 46.9098C72.0578 47.1378 72.0806 47.3829 72.1034 47.6451C72.1262 47.9073 72.149 48.1581 72.1718 48.3975C72.1946 48.6369 72.206 48.8022 72.206 48.8934C72.206 48.9846 72.2003 49.0929 72.1889 49.2183C72.1775 49.3437 72.1319 49.4691 72.0521 49.5945C71.9723 49.7199 71.8469 49.8282 71.6759 49.9194C71.5049 50.0106 71.2598 50.0562 70.9406 50.0562H70.667C70.5758 50.0562 70.4846 50.0448 70.3934 50.022C70.3478 50.022 70.2395 50.0277 70.0685 50.0391C69.8975 50.0505 69.7892 50.0562 69.7436 50.0562C69.6524 50.0562 69.4529 50.0448 69.1451 50.022C68.8373 49.9992 68.6378 49.9878 68.5466 49.9878C68.4782 49.9878 68.3414 49.9992 68.1362 50.022C67.931 50.0448 67.7942 50.0562 67.7258 50.0562C67.3382 50.0562 67.0247 49.908 66.7853 49.6116C66.5459 49.3152 66.335 48.9732 66.1526 48.5856C66.0842 48.426 66.0215 48.3006 65.9645 48.2094C65.9075 48.1182 65.8562 48.0384 65.8106 47.97C65.765 47.9016 65.708 47.8218 65.6396 47.7306C65.5712 47.6394 65.4914 47.514 65.4002 47.3544C65.195 47.0808 65.0012 46.7958 64.8188 46.4994C64.6364 46.203 64.4654 45.9066 64.3058 45.6102C63.9866 45.0174 63.7073 44.5272 63.4679 44.1396C63.2285 43.752 63.0974 43.5354 63.0746 43.4898C63.0062 43.3758 62.9321 43.2675 62.8523 43.1649C62.7725 43.0623 62.687 42.954 62.5958 42.84C62.5274 42.726 62.459 42.6063 62.3906 42.4809C62.3222 42.3555 62.2424 42.2358 62.1512 42.1218L61.4672 41.1642L61.0568 40.446C60.9428 40.2636 60.8231 40.0698 60.6977 39.8646C60.5723 39.6594 60.4526 39.4656 60.3386 39.2832C60.2018 39.0552 60.0764 38.8272 59.9624 38.5992L59.6204 37.9152C59.5748 37.824 59.5235 37.7385 59.4665 37.6587C59.4095 37.5789 59.3468 37.5048 59.2784 37.4364C59.21 37.3908 59.1188 37.3281 59.0048 37.2483C58.8908 37.1685 58.7882 37.1286 58.697 37.1286C58.6742 37.1286 58.6058 37.1571 58.4918 37.2141C58.3778 37.2711 58.298 37.4592 58.2524 37.7784C58.2524 37.8468 58.2467 37.9608 58.2353 38.1204C58.2239 38.28 58.2125 38.4567 58.2011 38.6505C58.1897 38.8443 58.1783 39.0267 58.1669 39.1977C58.1555 39.3687 58.1498 39.4884 58.1498 39.5568C58.1498 39.6252 58.1555 39.7791 58.1669 40.0185C58.1783 40.2579 58.184 40.4232 58.184 40.5144C58.184 40.56 58.1783 40.6968 58.1669 40.9248C58.1555 41.1528 58.1498 41.301 58.1498 41.3694V42.156C58.1498 42.2016 58.1441 42.3327 58.1327 42.5493C58.1213 42.7659 58.1156 42.9084 58.1156 42.9768V43.1991C58.1156 43.3017 58.127 43.41 58.1498 43.524C58.1726 43.638 58.184 43.8603 58.184 44.1909V44.9604C58.184 45.0288 58.1954 45.2112 58.2182 45.5076C58.241 45.804 58.2524 45.9978 58.2524 46.089C58.2752 46.1802 58.2809 46.374 58.2695 46.6704C58.2581 46.9668 58.2524 47.172 58.2524 47.286C58.2524 47.4456 58.2638 47.5596 58.2866 47.628C58.2866 47.7192 58.3094 47.9073 58.355 48.1923C58.4006 48.4773 58.4234 48.6654 58.4234 48.7566C58.4234 49.0302 58.298 49.2753 58.0472 49.4919C57.7964 49.7085 57.6254 49.8282 57.5342 49.851C57.4886 49.8738 57.3803 49.8795 57.2093 49.8681C57.0383 49.8567 56.93 49.851 56.8844 49.851C56.816 49.851 56.6507 49.8738 56.3885 49.9194C56.1263 49.965 55.9496 49.9878 55.8584 49.9878C55.8128 50.0106 55.6874 50.022 55.4822 50.022H55.106C55.0148 50.022 54.8153 50.0334 54.5075 50.0562C54.1997 50.079 54.0002 50.0904 53.909 50.0904C53.6354 50.0904 53.4245 50.0619 53.2763 50.0049C53.1281 49.9479 53.0312 49.8966 52.9856 49.851C52.7576 49.6914 52.6322 49.5432 52.6094 49.4064C52.5866 49.2696 52.5752 49.1328 52.5752 48.996V47.1834C52.5752 47.115 52.5809 46.9896 52.5923 46.8072C52.6037 46.6248 52.6094 46.431 52.6094 46.2258C52.6094 46.0206 52.6151 45.8211 52.6265 45.6273C52.6379 45.4335 52.6436 45.3024 52.6436 45.234C52.6436 45.1656 52.6379 45.006 52.6265 44.7552C52.6151 44.5044 52.6094 44.3334 52.6094 44.2422V43.3872C52.6094 43.3416 52.6151 43.239 52.6265 43.0794C52.6379 42.9198 52.6436 42.7545 52.6436 42.5835C52.6436 42.4125 52.6493 42.2529 52.6607 42.1047C52.6721 41.9565 52.6778 41.8482 52.6778 41.7798C52.6778 41.7342 52.6664 41.5803 52.6436 41.3181C52.6208 41.0559 52.6094 40.8906 52.6094 40.8222C52.5866 40.6626 52.5752 40.5087 52.5752 40.3605V39.933C52.5752 39.477 52.5809 39.0267 52.5923 38.5821C52.6037 38.1375 52.6208 37.6986 52.6436 37.2654C52.6892 36.9006 52.712 36.6783 52.712 36.5985V36.3078C52.712 35.9886 52.6949 35.6694 52.6607 35.3502C52.6265 35.031 52.598 34.7118 52.5752 34.3926V33.9822C52.5752 33.777 52.5809 33.5604 52.5923 33.3324C52.6037 33.1044 52.6094 32.8878 52.6094 32.6826V32.238C52.6094 32.1696 52.6037 32.0385 52.5923 31.8447C52.5809 31.6509 52.5752 31.44 52.5752 31.212C52.5752 30.984 52.5695 30.7731 52.5581 30.5793C52.5467 30.3855 52.541 30.243 52.541 30.1518C52.541 30.1062 52.5467 29.9808 52.5581 29.7756C52.5695 29.5704 52.5752 29.445 52.5752 29.3994C52.5752 29.3538 52.5695 29.2569 52.5581 29.1087C52.5467 28.9605 52.541 28.8636 52.541 28.818V28.3734ZM96.4489 37.4706C96.4489 37.1058 96.5059 36.6954 96.6199 36.2394C96.6427 36.1254 96.6826 35.9373 96.7396 35.6751C96.7966 35.4129 96.8593 35.145 96.9277 34.8714C96.9961 34.5978 97.0588 34.3413 97.1158 34.1019C97.1728 33.8625 97.2241 33.7086 97.2697 33.6402C97.2925 33.5946 97.3324 33.4977 97.3894 33.3495C97.4464 33.2013 97.5148 33.0417 97.5946 32.8707C97.6744 32.6997 97.7428 32.5458 97.7998 32.409C97.8568 32.2722 97.8967 32.1924 97.9195 32.1696C97.9651 32.0556 98.0278 31.953 98.1076 31.8618C98.1874 31.7706 98.2615 31.668 98.3299 31.554C98.3527 31.5084 98.3983 31.4229 98.4667 31.2975C98.5351 31.1721 98.6149 31.0296 98.7061 30.87C98.7973 30.7104 98.8771 30.5622 98.9455 30.4254C99.0139 30.2886 99.0709 30.1974 99.1165 30.1518C99.2077 30.0378 99.3103 29.9238 99.4243 29.8098C99.5383 29.6958 99.6409 29.5818 99.7321 29.4678C99.8461 29.3538 99.9487 29.2284 100.04 29.0916C100.131 28.9548 100.234 28.8294 100.348 28.7154C100.462 28.6014 100.576 28.5045 100.69 28.4247C100.804 28.3449 100.918 28.2594 101.032 28.1682C101.146 28.077 101.254 27.9858 101.357 27.8946C101.459 27.8034 101.567 27.7122 101.681 27.621C101.818 27.507 102.046 27.3645 102.365 27.1935C102.685 27.0225 102.958 26.8914 103.186 26.8002C103.3 26.7546 103.42 26.7147 103.545 26.6805C103.671 26.6463 103.79 26.6064 103.904 26.5608C104.064 26.5152 104.218 26.4525 104.366 26.3727C104.514 26.2929 104.668 26.2302 104.828 26.1846C104.942 26.1618 105.153 26.1219 105.461 26.0649C105.768 26.0079 106.088 25.9623 106.418 25.9281C106.749 25.8939 107.045 25.8597 107.307 25.8255C107.57 25.7913 107.723 25.7742 107.769 25.7742C107.837 25.7742 107.963 25.7856 108.145 25.8084C108.328 25.8312 108.521 25.8597 108.727 25.8939C108.932 25.9281 109.126 25.9623 109.308 25.9965C109.49 26.0307 109.616 26.0478 109.684 26.0478C109.981 26.0934 110.271 26.1333 110.556 26.1675C110.841 26.2017 111.121 26.2758 111.394 26.3898C111.417 26.4126 111.554 26.481 111.805 26.595C112.055 26.709 112.323 26.8344 112.608 26.9712C112.893 27.108 113.156 27.2334 113.395 27.3474C113.634 27.4614 113.777 27.5298 113.822 27.5526C113.914 27.5982 114.039 27.6894 114.199 27.8262C114.358 27.963 114.524 28.1055 114.695 28.2537C114.866 28.4019 115.031 28.5558 115.19 28.7154C115.35 28.875 115.487 29.0004 115.601 29.0916C115.715 29.2056 115.817 29.3253 115.909 29.4507C116 29.5761 116.102 29.6958 116.216 29.8098C116.353 29.9922 116.513 30.1518 116.695 30.2886C116.855 30.471 116.986 30.642 117.089 30.8016C117.191 30.9612 117.299 31.1778 117.413 31.4514C117.482 31.5882 117.545 31.725 117.602 31.8618C117.659 31.9986 117.71 32.1354 117.755 32.2722L118.405 33.5718C118.565 33.9366 118.679 34.3584 118.747 34.8372C118.77 34.974 118.804 35.2533 118.85 35.6751C118.895 36.0969 118.935 36.5472 118.97 37.026C119.004 37.5048 119.032 37.9494 119.055 38.3598C119.078 38.7702 119.089 39.021 119.089 39.1122C119.089 39.2262 119.078 39.3858 119.055 39.591C119.032 39.7962 119.004 40.0128 118.97 40.2408C118.935 40.4688 118.895 40.6854 118.85 40.8906C118.804 41.0958 118.77 41.244 118.747 41.3352C118.702 41.4492 118.65 41.6202 118.593 41.8482C118.536 42.0762 118.474 42.3099 118.405 42.5493C118.337 42.7887 118.268 43.0224 118.2 43.2504C118.132 43.4784 118.075 43.638 118.029 43.7292C117.915 44.0028 117.767 44.3277 117.584 44.7039C117.402 45.0801 117.083 45.576 116.627 46.1916C116.558 46.3056 116.427 46.4709 116.234 46.6875C116.04 46.9041 115.835 47.1207 115.618 47.3373C115.401 47.5539 115.185 47.7591 114.968 47.9529C114.752 48.1467 114.586 48.2778 114.472 48.3462C114.313 48.4602 114.147 48.5457 113.976 48.6027C113.805 48.6597 113.629 48.7338 113.446 48.825C113.332 48.8934 113.23 48.9618 113.138 49.0302C113.047 49.0986 112.945 49.1556 112.831 49.2012C112.808 49.224 112.705 49.2753 112.523 49.3551C112.34 49.4349 112.135 49.5147 111.907 49.5945C111.679 49.6743 111.468 49.7541 111.275 49.8339C111.081 49.9137 110.972 49.9536 110.95 49.9536C110.79 49.9992 110.63 50.0277 110.471 50.0391C110.311 50.0505 110.14 50.079 109.958 50.1246C109.844 50.1474 109.741 50.1702 109.65 50.193L109.376 50.2614C108.966 50.3298 108.601 50.364 108.282 50.364H107.872C107.689 50.364 107.501 50.3583 107.307 50.3469C107.114 50.3355 106.925 50.3241 106.743 50.3127C106.561 50.3013 106.435 50.2956 106.367 50.2956C106.162 50.2728 105.911 50.2158 105.614 50.1246C105.455 50.1018 105.301 50.079 105.153 50.0562C105.005 50.0334 104.851 49.9992 104.691 49.9536C104.44 49.908 104.224 49.8396 104.041 49.7484C103.813 49.6344 103.659 49.5603 103.58 49.5261C103.5 49.4919 103.334 49.4406 103.084 49.3722C102.924 49.3266 102.776 49.2753 102.639 49.2183C102.502 49.1613 102.365 49.0872 102.229 48.996C102.069 48.882 101.921 48.768 101.784 48.654C101.647 48.54 101.499 48.426 101.339 48.312C100.997 48.0612 100.712 47.856 100.484 47.6964C100.256 47.5368 100.057 47.3772 99.886 47.2176C99.715 47.058 99.544 46.8699 99.373 46.6533C99.202 46.4367 98.9911 46.1574 98.7403 45.8154C98.6035 45.633 98.4895 45.4848 98.3983 45.3708C98.3071 45.2568 98.2273 45.1485 98.1589 45.0459C98.0905 44.9433 98.0221 44.8293 97.9537 44.7039C97.8853 44.5785 97.8055 44.4132 97.7143 44.208C97.6459 44.0484 97.5661 43.9002 97.4749 43.7634C97.3837 43.6266 97.3039 43.4898 97.2355 43.353C97.1671 43.1934 97.0987 42.9996 97.0303 42.7716C96.9619 42.5436 96.9049 42.3156 96.8593 42.0876C96.8137 41.8596 96.7738 41.6487 96.7396 41.4549C96.7054 41.2611 96.6769 41.1072 96.6541 40.9932C96.6313 40.8108 96.6085 40.5543 96.5857 40.2237C96.5629 39.8931 96.5401 39.5511 96.5173 39.1977C96.4945 38.8443 96.4774 38.5137 96.466 38.2059C96.4546 37.8981 96.4489 37.653 96.4489 37.4706ZM102.075 38.052C102.063 37.9152 102.058 37.824 102.058 37.7784V37.5732C102.08 37.3908 102.109 37.2084 102.143 37.026C102.177 36.8436 102.217 36.6612 102.263 36.4788C102.308 36.228 102.343 35.9829 102.365 35.7435C102.388 35.5041 102.457 35.2818 102.571 35.0766C102.639 34.917 102.787 34.6491 103.015 34.2729C103.243 33.8967 103.448 33.6174 103.631 33.435C103.722 33.2982 103.808 33.1899 103.887 33.1101C103.967 33.0303 104.058 32.9505 104.161 32.8707C104.264 32.7909 104.389 32.7054 104.537 32.6142C104.685 32.523 104.885 32.3976 105.136 32.238C105.272 32.1468 105.381 32.0784 105.461 32.0328C105.54 31.9872 105.626 31.9416 105.717 31.896C105.808 31.8504 105.917 31.8105 106.042 31.7763C106.167 31.7421 106.344 31.7022 106.572 31.6566C106.686 31.611 106.817 31.5882 106.965 31.5882H107.427H107.752C107.923 31.5882 108.1 31.5939 108.282 31.6053C108.464 31.6167 108.647 31.6338 108.829 31.6566C109.012 31.6794 109.137 31.7022 109.205 31.725C109.228 31.725 109.325 31.7649 109.496 31.8447C109.667 31.9245 109.855 32.01 110.06 32.1012C110.266 32.1924 110.465 32.2836 110.659 32.3748C110.853 32.466 110.984 32.5458 111.052 32.6142C111.189 32.7282 111.314 32.8593 111.428 33.0075C111.542 33.1557 111.656 33.2982 111.77 33.435C111.884 33.5946 112.01 33.7371 112.147 33.8625C112.283 33.9879 112.409 34.1418 112.523 34.3242C112.591 34.4382 112.671 34.5978 112.762 34.803C112.853 35.0082 112.939 35.2248 113.019 35.4528C113.099 35.6808 113.173 35.886 113.241 36.0684C113.309 36.2508 113.344 36.3534 113.344 36.3762C113.366 36.4902 113.378 36.5871 113.378 36.6669V36.9576V37.4022C113.378 37.5846 113.384 37.767 113.395 37.9494C113.406 38.1318 113.412 38.3142 113.412 38.4966C113.412 38.6562 113.401 38.8329 113.378 39.0267C113.355 39.2205 113.309 39.477 113.241 39.7962C113.036 40.5486 112.905 41.0445 112.848 41.2839C112.791 41.5233 112.739 41.6772 112.694 41.7456C112.671 41.7912 112.608 41.8881 112.506 42.0363C112.403 42.1845 112.278 42.3498 112.13 42.5322C111.981 42.7146 111.816 42.9084 111.634 43.1136C111.451 43.3188 111.269 43.4898 111.086 43.6266C111.018 43.695 110.898 43.7805 110.727 43.8831C110.556 43.9857 110.368 44.0997 110.163 44.2251C109.958 44.3505 109.753 44.4588 109.547 44.55C109.342 44.6412 109.171 44.6982 109.034 44.721C108.943 44.7438 108.761 44.7552 108.487 44.7552H108.043C107.997 44.7552 107.894 44.7495 107.735 44.7381C107.575 44.7267 107.473 44.721 107.427 44.721C107.176 44.721 107.011 44.7153 106.931 44.7039C106.851 44.6925 106.697 44.664 106.469 44.6184C106.378 44.5956 106.264 44.5614 106.127 44.5158C106.059 44.493 105.996 44.4702 105.939 44.4474C105.882 44.4246 105.82 44.4018 105.751 44.379C105.637 44.3334 105.529 44.3106 105.426 44.3106C105.324 44.3106 105.227 44.2878 105.136 44.2422C105.09 44.2194 104.987 44.151 104.828 44.037C104.668 43.923 104.486 43.7691 104.281 43.5753C104.075 43.3815 103.865 43.1649 103.648 42.9255C103.431 42.6861 103.255 42.441 103.118 42.1902C103.027 42.0534 102.958 41.928 102.913 41.814L102.776 41.472C102.73 41.358 102.679 41.2098 102.622 41.0274C102.565 40.845 102.502 40.617 102.434 40.3434C102.388 40.1382 102.331 39.933 102.263 39.7278C102.194 39.5226 102.149 39.3174 102.126 39.1122L102.109 38.907C102.098 38.7702 102.092 38.6277 102.092 38.4795C102.092 38.3313 102.086 38.1888 102.075 38.052Z" fill="#F9A641"/>
<path fill-rule="evenodd" clip-rule="evenodd" d="M127.415 14.0598C126.912 14.0196 126.601 13.9995 126.48 13.9995H124.671C124.189 13.9995 123.827 14.0899 123.586 14.2709C123.345 14.4518 123.164 14.6628 123.043 14.904C122.922 15.1452 122.852 15.4165 122.832 15.7181C122.812 16.0196 122.802 16.2909 122.802 16.5321V17.708C122.802 18.0497 122.822 18.321 122.862 18.522C122.862 18.6426 122.892 18.924 122.953 19.3662C123.013 19.8084 123.043 20.0898 123.043 20.2104L123.164 23.1048C123.164 23.2254 123.184 23.4364 123.224 23.738C123.264 24.0395 123.304 24.361 123.345 24.7028C123.385 25.0445 123.425 25.366 123.465 25.6676C123.505 25.9691 123.525 26.1801 123.525 26.3007C123.566 26.5821 123.586 26.8534 123.586 27.1147V27.9288C123.586 28.17 123.616 28.6122 123.676 29.2554C123.736 29.8986 123.807 30.5619 123.887 31.2453C123.968 31.9287 124.038 32.5819 124.098 33.205C124.159 33.8282 124.189 34.2603 124.189 34.5015C124.269 34.9437 124.299 35.3658 124.279 35.7678C124.259 36.1698 124.289 36.5919 124.37 37.0341C124.41 37.2351 124.44 37.4261 124.46 37.607C124.48 37.7879 124.51 37.9788 124.551 38.1798C124.591 38.421 124.651 38.8732 124.731 39.5366C124.812 40.1999 124.892 40.8933 124.973 41.6169C125.053 42.3405 125.133 42.9937 125.214 43.5767C125.294 44.1596 125.355 44.4711 125.395 44.5113C125.475 44.6319 125.716 44.7927 126.118 44.9937C126.52 45.1947 126.983 45.2952 127.505 45.2952C128.309 45.2952 128.942 45.255 129.405 45.1746C129.867 45.0942 130.219 44.9334 130.46 44.6922C130.701 44.451 130.882 44.1093 131.003 43.6671C131.123 43.2249 131.224 42.642 131.304 41.9184C131.344 41.5566 131.364 41.1948 131.364 40.833C131.364 40.4712 131.385 40.1295 131.425 39.8079L131.485 39.2351C131.525 38.8531 131.555 38.4411 131.575 37.9989C131.596 37.5567 131.626 37.1246 131.666 36.7024C131.706 36.2803 131.726 36.009 131.726 35.8884C131.726 35.6472 131.746 35.3558 131.787 35.014C131.827 34.6723 131.887 34.0995 131.967 33.2955C132.008 33.1347 132.038 32.8533 132.058 32.4513C132.078 32.0493 132.098 31.6172 132.118 31.1549C132.138 30.6925 132.158 30.2705 132.178 29.8885C132.199 29.5066 132.209 29.2353 132.209 29.0745C132.249 28.5117 132.289 27.969 132.329 27.4464L132.45 25.8786C132.45 25.6776 132.46 25.346 132.48 24.8836C132.5 24.4213 132.53 23.9289 132.57 23.4063C132.611 22.8837 132.641 22.3913 132.661 21.929C132.681 21.4666 132.711 21.1551 132.751 20.9943C132.872 20.1501 132.942 19.6074 132.962 19.3662C132.982 19.125 132.993 18.8838 132.993 18.6426V16.1402C132.993 15.919 132.982 15.7482 132.962 15.6276C132.942 15.507 132.912 15.4065 132.872 15.3261C132.792 15.1653 132.621 14.904 132.359 14.5422C132.098 14.1804 131.565 13.9995 130.761 13.9995C130.56 13.9995 130.169 14.0196 129.586 14.0598C129.003 14.1 128.611 14.1201 128.41 14.1201C128.249 14.1201 127.917 14.1 127.415 14.0598ZM130.158 47.0138C129.917 47.0339 129.756 47.0439 129.676 47.0439C129.596 47.0439 129.385 47.0339 129.043 47.0138C128.701 46.9937 128.49 46.9836 128.41 46.9836H125.033C124.752 46.9836 124.48 47.0339 124.219 47.1343C123.958 47.2349 123.737 47.4157 123.556 47.6771C123.375 47.9384 123.284 48.3102 123.284 48.7926V49.6067C123.284 49.9886 123.274 50.3905 123.254 50.8126C123.234 51.2348 123.224 51.6367 123.224 52.0187V52.8327C123.264 53.0739 123.284 53.3553 123.284 53.6769V54.5211C123.284 55.4457 123.666 55.9884 124.43 56.1492C125.194 56.31 126.098 56.3904 127.143 56.3904C127.264 56.3904 127.445 56.3804 127.686 56.3602C127.927 56.3401 128.189 56.3301 128.47 56.3301C128.751 56.3301 129.023 56.32 129.284 56.2999C129.545 56.2799 129.716 56.2698 129.797 56.2698C129.877 56.2698 130.088 56.2899 130.43 56.3301C130.772 56.3703 130.983 56.3904 131.063 56.3904C131.385 56.3904 131.636 56.31 131.817 56.1492C131.998 55.9884 132.138 55.7874 132.239 55.5462C132.339 55.305 132.4 55.0638 132.42 54.8226C132.44 54.5814 132.45 54.3804 132.45 54.2196C132.45 54.099 132.46 53.898 132.48 53.6166C132.5 53.3352 132.51 53.0337 132.51 52.7121C132.51 52.3905 132.52 52.089 132.54 51.8076C132.56 51.5262 132.57 51.3252 132.57 51.2046V50.7222C132.57 50.481 132.56 50.2197 132.54 49.9383C132.52 49.6569 132.51 49.4057 132.51 49.1846V48.7323C132.51 48.2901 132.42 47.9484 132.239 47.7072C132.058 47.466 131.847 47.2952 131.606 47.1946C131.364 47.0942 131.143 47.0339 130.942 47.0138L130.641 46.9836C130.56 46.9836 130.4 46.9937 130.158 47.0138Z" fill="#F9A641"/>
</svg>
