<svg width="20" height="20" viewBox="0 0 20 20" fill="none" xmlns="http://www.w3.org/2000/svg">
<path fill-rule="evenodd" clip-rule="evenodd" d="M16.6667 0H14.1667V1.66667H5.83333V0H3.33333V1.66667H2.08333C1.52777 1.66667 1.04167 1.875 0.625 2.29167C0.208331 2.70834 0 3.19444 0 3.75V17.9167C0 18.4722 0.208331 18.9583 0.625 19.375C1.04167 19.7917 1.52777 20 2.08333 20H17.9167C18.4722 20 18.9583 19.7917 19.375 19.375C19.7917 18.9583 20 18.4722 20 17.9167V3.75C20 3.19444 19.7917 2.70834 19.375 2.29167C18.9583 1.875 18.4722 1.66667 17.9167 1.66667H16.6667V0ZM17.9167 6.875V17.9167H2.08333V6.875H17.9167Z" fill="white"/>
</svg>
