<svg width="24" height="26" viewBox="0 0 24 26" fill="none" xmlns="http://www.w3.org/2000/svg">
<path d="M7.69444 7.44444C7.69444 5.12792 9.57236 3.25 11.8889 3.25V0.75C8.19165 0.75 5.19444 3.74721 5.19444 7.44444H7.69444ZM11.8889 11.6389C9.57236 11.6389 7.69444 9.76097 7.69444 7.44444H5.19444C5.19444 11.1417 8.19165 14.1389 11.8889 14.1389V11.6389ZM16.0833 7.44444C16.0833 9.76097 14.2054 11.6389 11.8889 11.6389V14.1389C15.5861 14.1389 18.5833 11.1417 18.5833 7.44444H16.0833ZM11.8889 3.25C14.2054 3.25 16.0833 5.12792 16.0833 7.44444H18.5833C18.5833 3.74721 15.5861 0.75 11.8889 0.75V3.25ZM11.8889 2.75C9.29622 2.75 7.19444 4.85177 7.19444 7.44444H9.69444C9.69444 6.23249 10.6769 5.25 11.8889 5.25V2.75ZM16.5833 7.44444C16.5833 4.85177 14.4816 2.75 11.8889 2.75V5.25C13.1008 5.25 14.0833 6.23249 14.0833 7.44444H16.5833ZM11.8889 12.1389C14.4816 12.1389 16.5833 10.0371 16.5833 7.44444H14.0833C14.0833 8.6564 13.1008 9.63889 11.8889 9.63889V12.1389ZM7.19444 7.44444C7.19444 10.0371 9.29622 12.1389 11.8889 12.1389V9.63889C10.6769 9.63889 9.69444 8.6564 9.69444 7.44444H7.19444ZM3.25 20.7778C3.25 18.4612 5.12792 16.5833 7.44444 16.5833V14.0833C3.7472 14.0833 0.75 17.0805 0.75 20.7778H3.25ZM3.25 23V20.7778H0.75V23H3.25ZM3 22.75C3.13807 22.75 3.25 22.8619 3.25 23H0.75C0.75 24.2426 1.75736 25.25 3 25.25V22.75ZM2.75 23C2.75 22.8619 2.86193 22.75 3 22.75V25.25C4.24264 25.25 5.25 24.2426 5.25 23H2.75ZM2.75 20.7778V23H5.25V20.7778H2.75ZM7.44444 16.0833C4.85177 16.0833 2.75 18.1851 2.75 20.7778H5.25C5.25 19.5658 6.23249 18.5833 7.44444 18.5833V16.0833ZM16.3333 16.0833H7.44444V18.5833H16.3333V16.0833ZM21.0278 20.7778C21.0278 18.1851 18.926 16.0833 16.3333 16.0833V18.5833C17.5453 18.5833 18.5278 19.5658 18.5278 20.7778H21.0278ZM21.0278 23V20.7778H18.5278V23H21.0278ZM20.7778 22.75C20.9159 22.75 21.0278 22.8619 21.0278 23H18.5278C18.5278 24.2426 19.5351 25.25 20.7778 25.25V22.75ZM20.5278 23C20.5278 22.8619 20.6397 22.75 20.7778 22.75V25.25C22.0204 25.25 23.0278 24.2426 23.0278 23H20.5278ZM20.5278 20.7778V23H23.0278V20.7778H20.5278ZM16.3333 16.5833C18.6499 16.5833 20.5278 18.4613 20.5278 20.7778H23.0278C23.0278 17.0805 20.0306 14.0833 16.3333 14.0833V16.5833ZM7.44444 16.5833H16.3333V14.0833H7.44444V16.5833Z" fill="#ED7902"/>
</svg>
