<svg width="21" height="21" viewBox="0 0 21 21" fill="none" xmlns="http://www.w3.org/2000/svg">
<path d="M13.9252 10.4286C13.9252 12.317 12.385 13.8571 10.4967 13.8571C8.60826 13.8571 7.06808 12.317 7.06808 10.4286C7.06808 8.54018 8.60826 7 10.4967 7C12.385 7 13.9252 8.54018 13.9252 10.4286ZM15.7734 10.4286C15.7734 7.50893 13.4163 5.15178 10.4967 5.15178C7.57701 5.15178 5.21987 7.50893 5.21987 10.4286C5.21987 13.3482 7.57701 15.7054 10.4967 15.7054C13.4163 15.7054 15.7734 13.3482 15.7734 10.4286ZM17.2199 4.9375C17.2199 4.25446 16.6708 3.70536 15.9877 3.70536C15.3047 3.70536 14.7556 4.25446 14.7556 4.9375C14.7556 5.62053 15.3047 6.16964 15.9877 6.16964C16.6708 6.16964 17.2199 5.62053 17.2199 4.9375ZM10.4967 1.99107C11.9967 1.99107 15.2109 1.87053 16.5636 2.40625C17.0324 2.59375 17.3806 2.82143 17.7422 3.18303C18.1038 3.54464 18.3315 3.89286 18.519 4.36161C19.0547 5.71428 18.9342 8.92857 18.9342 10.4286C18.9342 11.9286 19.0547 15.1429 18.519 16.4955C18.3315 16.9643 18.1038 17.3125 17.7422 17.6741C17.3806 18.0357 17.0324 18.2634 16.5636 18.4509C15.2109 18.9866 11.9967 18.8661 10.4967 18.8661C8.99665 18.8661 5.78237 18.9866 4.42969 18.4509C3.96094 18.2634 3.61272 18.0357 3.25112 17.6741C2.88951 17.3125 2.66183 16.9643 2.47433 16.4955C1.93862 15.1429 2.05915 11.9286 2.05915 10.4286C2.05915 8.92857 1.93862 5.71428 2.47433 4.36161C2.66183 3.89286 2.88951 3.54464 3.25112 3.18303C3.61272 2.82143 3.96094 2.59375 4.42969 2.40625C5.78237 1.87053 8.99665 1.99107 10.4967 1.99107ZM20.7824 10.4286C20.7824 9.00893 20.7958 7.60268 20.7154 6.18303C20.635 4.53571 20.26 3.07589 19.0547 1.87053C17.8493 0.665177 16.3895 0.290177 14.7422 0.209821C13.3225 0.129464 11.9163 0.142856 10.4967 0.142856C9.07701 0.142856 7.67076 0.129464 6.25112 0.209821C4.60379 0.290177 3.14397 0.665177 1.93862 1.87053C0.733259 3.07589 0.358259 4.53571 0.277902 6.18303C0.197545 7.60268 0.210938 9.00893 0.210938 10.4286C0.210938 11.8482 0.197545 13.2545 0.277902 14.6741C0.358259 16.3214 0.733259 17.7812 1.93862 18.9866C3.14397 20.192 4.60379 20.567 6.25112 20.6473C7.67076 20.7277 9.07701 20.7143 10.4967 20.7143C11.9163 20.7143 13.3225 20.7277 14.7422 20.6473C16.3895 20.567 17.8493 20.192 19.0547 18.9866C20.26 17.7812 20.635 16.3214 20.7154 14.6741C20.7958 13.2545 20.7824 11.8482 20.7824 10.4286Z" fill="#EFE1DA"/>
</svg>
