<svg width="169" height="169" viewBox="0 0 169 169" fill="none" xmlns="http://www.w3.org/2000/svg">
<g filter="url(#filter0_d_3_97)">
<path fill-rule="evenodd" clip-rule="evenodd" d="M84.032 131.064C117.187 131.064 144.064 104.187 144.064 71.032C144.064 37.8772 117.187 11 84.032 11C50.8772 11 24 37.8772 24 71.032C24 104.187 50.8772 131.064 84.032 131.064Z" fill="white"/>
</g>
<path d="M108.011 37.196C108.232 36.6519 107.782 36.1177 107.782 36.1177C107.782 36.1177 104.247 30.1045 91.7411 28.7704C85.0451 28.0569 75.9292 29.4117 69.5396 32.8573C57.9626 39.0953 56.2292 49.3714 56.2292 49.3714C56.164 49.623 56.053 50.389 56.3133 50.7158C56.5785 51.0484 56.9643 51.0422 57.443 50.8806C61.5288 49.5004 73.7068 45.4619 81.3917 43.4224C92.3285 40.5229 101.313 38.7585 107.079 37.776C107.489 37.7066 107.856 37.5724 108.011 37.196Z" fill="#FFBB36"/>
<path d="M120.499 85.6268C113.953 100.328 101.394 110.559 84.9354 110.792C72.95 110.962 62.373 106.856 54.7341 99.6936L50.1141 101.67L50.1218 94.5172C45.0883 87.7276 42.1697 79.1395 42.1697 69.3833C42.1697 44.3952 61.3088 24.6978 88.0013 24.6978C92.3581 24.6978 96.2959 25.3758 99.2648 26.0483C94.6906 24.5846 90.1454 23.7914 85.086 23.7914C56.4388 23.7914 37.1601 47.0202 37.1591 70.9755C37.1591 97.0806 57.6381 118.947 84.5183 118.947C110.192 118.947 124.044 100.845 128.474 89.9594L120.499 85.6268Z" fill="#0066B3"/>
<path d="M113.854 80.462C117.621 80.0346 120.227 78.5205 121.658 77.116C122.962 75.8352 123.266 74.0714 123.268 72.7612C123.32 70.8361 123.268 64.7614 123.268 64.7614L113.298 66.9183C113.298 66.9183 113.297 67.6699 113.295 69.2472C113.313 70.7877 114.055 71.6264 115.67 71.3293C116.176 71.2464 116.955 70.9981 116.955 70.9981L116.969 72.9018C116.96 72.8473 117.116 73.9633 114.604 74.4601C111.316 74.9762 109.822 72.9531 109.783 69.3782C109.848 65.5468 112.014 63.3373 114.642 62.7321C117.598 62.0541 119.272 62.7586 120.255 62.9086C123.557 63.4031 124.494 58.4524 121.49 57.2912C119.27 56.3967 116.389 56.2351 113.643 56.7835C109.976 57.5147 102.765 60.5839 102.745 70.5565C102.764 78.4808 108.606 81.0632 113.854 80.462Z" fill="#EC1D23"/>
<path d="M81.4469 88.9553C81.4469 88.9553 84.5057 87.906 84.7702 87.8131C87.2288 86.9647 88.1245 85.5029 88.1136 82.9727C88.0826 80.2255 88.0781 74.8684 88.0781 74.8684L95.1905 83.0637C96.3459 84.2569 97.7939 84.3588 99.1196 83.9698C100.49 83.5685 101.631 82.3154 101.666 80.5481C101.677 74.6301 101.663 60.1865 101.663 60.1865C101.663 60.1865 99.8251 60.5764 98.2994 61.009C96.544 61.5064 95.1934 62.6257 95.1934 65.5803C95.1934 66.6264 95.1896 72.6292 95.1896 72.6292C95.1896 72.6292 91.1866 67.6089 88.569 64.9903C87.1694 63.5924 84.8538 64.4268 84.8538 64.4268L81.4411 65.4597L81.4469 88.9553Z" fill="#EC1D23"/>
<path d="M79.2935 65.989C79.2935 65.989 77.1514 66.6174 75.4083 67.2467C73.1448 68.065 71.8401 69.3746 71.8401 72.8008C71.8401 75.9477 71.8346 92.3264 71.8346 92.3264C71.8346 92.3264 73.8174 91.6483 75.666 90.951C78.2942 89.9601 79.2857 88.6082 79.2857 85.8484C79.2857 83.4766 79.2935 65.989 79.2935 65.989Z" fill="#EC1D23"/>
<path d="M68.6635 70.6352C66.6975 69.742 65.0099 70.738 64.2932 71.8389L58.25 82.1173L58.2393 73.8311L51.1153 76.7822L51.093 100.215L56.1114 98.1111C56.1114 98.1111 57.0965 97.8318 57.691 96.8977C58.2374 96.0371 58.2171 94.5936 58.2171 94.5936L58.2232 87.1631L63.8319 93.1147C65.0634 94.3936 67.3262 95.0504 69.3228 93.4376C71.1282 91.9796 70.8485 89.4939 69.8415 88.3808L64.7322 83.2376C64.7322 83.2376 69.2286 76.1509 69.9638 74.9668C70.9395 73.394 70.4486 71.4461 68.6635 70.6352Z" fill="#EC1D23"/>
<path d="M65.8734 98.1789C65.6082 98.7898 66.213 99.3959 66.213 99.3959C68.8061 102.65 80.3192 106.775 92.8158 103.755C111.9 99.1391 115.932 85.6377 116.389 83.7314C116.483 83.3427 116.557 82.7176 116.197 82.3425C115.894 82.0293 115.464 82.026 114.867 82.1641C101.612 85.28 79.5554 92.0128 66.8388 97.4615C66.2914 97.696 66.0437 97.7821 65.8734 98.1789Z" fill="#FFBB36"/>
<path fill-rule="evenodd" clip-rule="evenodd" d="M53.7303 73.1705C56.8052 71.8964 59.1657 70.1529 59.1093 66.876C59.0806 65.1697 57.7991 63.9369 56.2982 63.6866C57.8223 62.4612 58.5245 61.0667 58.5245 59.4262C58.5245 56.9676 56.3604 55.3532 52.68 56.6925C51.3853 57.1634 47.4168 58.7814 47.4168 58.7814L47.4313 75.8464L53.7303 73.1705ZM51.7643 63.7162C52.0733 63.5956 52.3004 63.494 52.5597 63.3676C53.4997 62.9098 54.1686 62.0609 54.1764 60.9616C54.1861 59.7097 53.1552 59.3862 51.7662 60.1042L51.7643 63.7162ZM54.5551 67.4692C54.5377 66.1777 53.5335 65.4729 51.7985 66.3438L51.7949 70.4958C51.7949 70.4958 52.3559 70.2474 52.7674 70.0558C53.7819 69.5852 54.5789 68.7388 54.5551 67.4692Z" fill="#EC1D23"/>
<path d="M71.0666 52.4724C71.0666 51.0351 70.078 50.6529 68.8822 50.997C67.9155 51.2738 66.7895 51.7134 66.7895 51.7134L66.7817 62.3228C66.7701 63.3795 66.6066 64.7023 65.3047 65.03C64.3054 65.2819 63.8329 64.6152 63.8319 63.5604L63.8177 54.8768C63.8177 53.432 62.8126 52.9995 61.6207 53.3949C60.2808 53.8423 59.4757 54.1646 59.4757 54.1646C59.4757 54.1646 59.4912 61.6773 59.4728 64.6816C59.4557 68.2034 61.884 69.9616 65.585 68.8685C68.85 67.903 71.0301 66.0761 71.0714 61.3857L71.0666 52.4724Z" fill="#EC1D23"/>
<path d="M106.073 56.857C107.014 56.6541 107.601 55.989 107.601 54.8397C107.601 53.8043 107.605 53.0169 107.605 53.0169L102.495 54.1333L102.505 51.1274C102.505 51.1274 105.009 50.5964 105.704 50.4448C106.578 50.2532 107.036 49.7768 107.036 48.7782C107.036 47.8466 107.03 47.0405 107.03 47.0405L102.503 48.0011L102.502 45.6177C102.502 45.6177 104.855 45.1265 106.124 44.86C107.112 44.6523 107.438 43.9756 107.438 43.0443C107.438 42.4379 107.447 41.2377 107.447 41.2377C105.189 41.6364 100.897 42.494 98.2197 43.1072L98.1832 58.6637C98.1832 58.6637 103.274 57.4647 106.073 56.857Z" fill="#EC1D23"/>
<path fill-rule="evenodd" clip-rule="evenodd" d="M76.5424 62.8099C76.5466 61.6077 76.5549 58.6285 76.5549 58.6285L80.2415 62.4331C81.4285 63.6411 82.9445 63.0892 83.5113 62.5566C84.4673 61.657 84.408 60.1684 83.558 59.3449L80.7921 56.6893C82.0507 55.6458 83.4519 54.1217 83.4722 51.6099C83.5142 48.9717 81.1914 47.4857 77.9255 48.2453C75.8237 48.7337 72.2497 49.9787 72.2497 49.9787L72.243 65.998C72.243 65.998 73.9738 65.4023 74.7883 65.1229C75.7624 64.7507 76.532 63.9369 76.5424 62.8099ZM76.5522 56.2267C76.5498 56.2279 76.5486 56.2286 76.5485 56.2287L76.5495 51.7822C77.3946 51.4722 79.0235 51.0851 79.0483 52.8537C79.0755 54.8775 76.6595 56.1693 76.5522 56.2267Z" fill="#EC1D23"/>
<path fill-rule="evenodd" clip-rule="evenodd" d="M108.548 41.0303L108.542 56.3906L110.894 55.927C112.068 55.6842 112.723 54.859 112.734 53.7272C112.737 52.5902 112.725 49.9858 112.725 49.9858L116.335 54.2201C116.994 54.9471 118.128 55.3248 119.273 54.6029C120.437 53.8672 120.472 52.365 119.685 51.4864C119.099 50.8345 116.912 48.3704 116.912 48.3704C118.102 47.5656 119.503 46.2241 119.52 43.9949C119.564 41.4599 117.407 39.6755 114.192 40.0884C113.033 40.2374 108.548 41.0303 108.548 41.0303ZM115.182 44.67C115.211 46.6651 112.722 47.6127 112.717 47.6127L112.711 43.4633C113.495 43.2882 115.156 42.9827 115.182 44.67Z" fill="#EC1D23"/>
<path d="M97.1775 49.9436L90.8153 51.3883C90.8153 51.3883 90.8076 52.0605 90.8066 53.1579C90.8153 53.9807 91.3924 54.5149 92.2227 54.3439C92.7462 54.2352 93.1652 54.1382 93.1652 54.1382L93.1749 55.9051C93.1816 56.6041 92.1327 57.0618 91.0434 57.0367C89.517 56.997 88.6706 55.8109 88.6487 53.554C88.6961 50.5864 90.0921 48.8443 91.9936 48.3579C92.9433 48.1134 93.8074 48.2324 94.4786 48.3195C96.1179 48.5843 97.0617 47.794 97.0952 46.4393C97.1294 44.9884 95.8424 44.0911 93.08 44.1869C87.0901 44.3936 84.0274 48.6972 84.0274 53.8333C84.0274 59.0933 87.4636 61.4167 91.6579 60.6587C94.028 60.1807 95.207 59.411 96.024 58.6946C96.8407 57.9782 97.1775 56.9067 97.1775 55.9916V49.9436Z" fill="#EC1D23"/>
<path d="M72.1117 32.7395C65.0954 35.8367 60.3582 43.2092 60.0979 46.3299C59.9954 47.5705 61.6401 47.7485 61.7949 46.4312C63.2755 40.7387 67.8068 35.3716 72.1117 32.7395Z" fill="white"/>
<path d="M95.3618 38.0292C99.1461 37.1009 101.224 36.9609 101.262 35.2703C101.328 32.4396 93.2513 29.1572 85.8563 29.7517C93.391 30.2552 97.9107 33.156 97.9355 35.1775C97.9497 36.4561 96.8417 37.5844 95.3618 38.0292Z" fill="white"/>
<path d="M97.7068 100.598C103.385 98.3647 108.842 94.0985 111.861 87.7082C112.732 85.8616 110.213 84.9181 109.502 87.0867C107.735 91.6299 104.103 96.9644 97.7068 100.598Z" fill="white"/>
<path fill-rule="evenodd" clip-rule="evenodd" d="M122.783 83.0037C122.783 85.5274 124.786 87.156 127.034 87.156C129.282 87.156 131.286 85.5274 131.286 83.0037C131.286 80.4903 129.282 78.873 127.034 78.873C124.786 78.8733 122.783 80.4903 122.783 83.0037ZM126.303 85.3181H125.384H125.384V80.6777H127.135C128.296 80.6777 128.949 81.0445 128.949 82.0528C128.949 82.9047 128.418 83.2356 127.732 83.2931L128.973 85.3181H128.009L126.879 83.3369H126.303V85.3181ZM127.078 81.3996H126.303H126.303V82.616H127.124C127.643 82.616 128.032 82.5396 128.032 81.9748C128.032 81.4764 127.5 81.3996 127.078 81.3996ZM127.033 79.7591C125.294 79.7591 123.912 81.1209 123.912 83.0037C123.912 84.8981 125.294 86.2703 127.033 86.2703C128.752 86.2703 130.156 84.8981 130.156 83.0037C130.156 81.1209 128.751 79.7591 127.033 79.7591Z" fill="#EC1D23"/>
<defs>
<filter id="filter0_d_3_97" x="0" y="0" width="168.064" height="168.064" filterUnits="userSpaceOnUse" color-interpolation-filters="sRGB">
<feFlood flood-opacity="0" result="BackgroundImageFix"/>
<feColorMatrix in="SourceAlpha" type="matrix" values="0 0 0 0 0 0 0 0 0 0 0 0 0 0 0 0 0 0 127 0" result="hardAlpha"/>
<feOffset dy="13"/>
<feGaussianBlur stdDeviation="12"/>
<feColorMatrix type="matrix" values="0 0 0 0 0.824389 0 0 0 0 0.44596 0 0 0 0 0.0577449 0 0 0 0.44 0"/>
<feBlend mode="normal" in2="BackgroundImageFix" result="effect1_dropShadow_3_97"/>
<feBlend mode="normal" in="SourceGraphic" in2="effect1_dropShadow_3_97" result="shape"/>
</filter>
</defs>
</svg>
