<svg width="76" height="77" viewBox="0 0 76 77" fill="none" xmlns="http://www.w3.org/2000/svg">
<path d="M57.2086 10.9568C57.3853 10.5215 57.0253 10.0941 57.0253 10.0941C57.0253 10.0941 54.1977 5.28361 44.1929 4.21632C38.8361 3.64552 31.5434 4.72932 26.4317 7.48579C17.1701 12.4762 15.7833 20.6971 15.7833 20.6971C15.7312 20.8983 15.6424 21.5112 15.8507 21.7726C16.0628 22.0387 16.3714 22.0338 16.7544 21.9045C20.0231 20.8003 29.7654 17.5695 35.9134 15.9379C44.6628 13.6183 51.8502 12.2068 56.4636 11.4208C56.791 11.3653 57.0849 11.2579 57.2086 10.9568Z" fill="#FFBB36"/>
<path d="M67.1991 49.7014C61.9623 61.4622 51.9155 69.647 38.7483 69.8335C29.16 69.9695 20.6984 66.6846 14.5873 60.9549L10.8913 62.5362L10.8975 56.8137C6.87062 51.3821 4.5358 44.5116 4.5358 36.7066C4.5358 16.7162 19.8471 0.958208 41.2011 0.958208C44.6865 0.958208 47.8368 1.50063 50.2118 2.03866C46.5525 0.867633 42.9163 0.233093 38.8688 0.233093C15.9511 0.233093 0.528057 18.8162 0.527283 37.9804C0.527283 58.8644 16.9105 76.3573 38.4147 76.3573C58.954 76.3573 70.0354 61.8764 73.5791 53.1675L67.1991 49.7014Z" fill="#0066B3"/>
<path d="M61.8831 45.5695C64.8968 45.2276 66.9819 44.0163 68.1263 42.8928C69.1693 41.8681 69.4127 40.4571 69.4142 39.4089C69.4563 37.8689 69.4142 33.009 69.4142 33.009L61.4387 34.7346C61.4387 34.7346 61.438 35.3359 61.4356 36.5977C61.4504 37.8301 62.0444 38.5011 63.3362 38.2634C63.741 38.1971 64.3642 37.9984 64.3642 37.9984L64.3751 39.5214C64.3681 39.4778 64.493 40.3706 62.4831 40.768C59.8528 41.1809 58.6575 39.5624 58.6263 36.7025C58.6781 33.6374 60.4112 31.8698 62.5135 31.3857C64.8788 30.8432 66.2175 31.4068 67.0043 31.5268C69.646 31.9224 70.3951 27.9619 67.9921 27.0329C66.2157 26.3173 63.9111 26.1881 61.7141 26.6267C58.7806 27.2117 53.0117 29.6671 52.9957 37.6451C53.0114 43.9846 57.6852 46.0505 61.8831 45.5695Z" fill="#EC1D23"/>
<path d="M35.9575 52.3642C35.9575 52.3642 38.4046 51.5248 38.6162 51.4505C40.583 50.7718 41.2996 49.6023 41.2909 47.5782C41.2661 45.3804 41.2625 41.0948 41.2625 41.0948L46.9524 47.651C47.8768 48.6055 49.0351 48.687 50.0957 48.3758C51.1922 48.0548 52.1051 47.0523 52.1327 45.6385C52.1418 40.9041 52.1304 29.3492 52.1304 29.3492C52.1304 29.3492 50.6601 29.6612 49.4395 30.0072C48.0352 30.4051 46.9548 31.3005 46.9548 33.6643C46.9548 34.5011 46.9517 39.3034 46.9517 39.3034C46.9517 39.3034 43.7493 35.2871 41.6552 33.1923C40.5356 32.0739 38.683 32.7415 38.683 32.7415L35.9529 33.5678L35.9575 52.3642Z" fill="#EC1D23"/>
<path d="M34.2348 33.9912C34.2348 33.9912 32.5211 34.4939 31.1266 34.9973C29.3159 35.652 28.2721 36.6997 28.2721 39.4407C28.2721 41.9582 28.2677 55.0611 28.2677 55.0611C28.2677 55.0611 29.8539 54.5187 31.3328 53.9608C33.4354 53.168 34.2286 52.0866 34.2286 49.8787C34.2286 47.9813 34.2348 33.9912 34.2348 33.9912Z" fill="#EC1D23"/>
<path d="M25.7308 37.7081C24.158 36.9936 22.8079 37.7904 22.2345 38.6711L17.4 46.8938L17.3915 40.2648L11.6922 42.6257L11.6744 61.3719L15.6891 59.6889C15.6891 59.6889 16.4772 59.4654 16.9528 58.7181C17.3899 58.0296 17.3737 56.8749 17.3737 56.8749L17.3786 50.9305L21.8655 55.6917C22.8508 56.7149 24.661 57.2403 26.2583 55.95C27.7026 54.7837 27.4788 52.7951 26.6732 51.9046L22.5857 47.79C22.5857 47.79 26.1829 42.1207 26.771 41.1734C27.5516 39.9152 27.1589 38.3568 25.7308 37.7081Z" fill="#EC1D23"/>
<path d="M23.4987 59.7431C23.2866 60.2319 23.7704 60.7167 23.7704 60.7167C25.8449 63.3197 35.0554 66.6201 45.0527 64.2037C60.3201 60.5113 63.546 49.7102 63.9114 48.1851C63.9865 47.8742 64.0458 47.3741 63.7573 47.074C63.5153 46.8234 63.1713 46.8208 62.6939 46.9313C52.0899 49.424 34.4443 54.8103 24.2711 59.1692C23.8332 59.3568 23.635 59.4257 23.4987 59.7431Z" fill="#FFBB36"/>
<path fill-rule="evenodd" clip-rule="evenodd" d="M13.7842 39.7364C16.2442 38.7171 18.1326 37.3223 18.0874 34.7008C18.0645 33.3358 17.0393 32.3495 15.8386 32.1493C17.0578 31.1689 17.6196 30.0534 17.6196 28.741C17.6196 26.7741 15.8884 25.4826 12.944 26.554C11.9082 26.9308 8.73346 28.2251 8.73346 28.2251L8.74507 41.8771L13.7842 39.7364ZM12.2114 32.173C12.4586 32.0765 12.6403 31.9952 12.8478 31.894C13.5997 31.5279 14.1349 30.8487 14.1411 29.9693C14.1489 28.9678 13.3241 28.709 12.213 29.2834L12.2114 32.173ZM14.4441 35.1754C14.4301 34.1422 13.6268 33.5783 12.2388 34.2751L12.2359 37.5966C12.2359 37.5966 12.6847 37.398 13.014 37.2447C13.8255 36.8682 14.4632 36.1911 14.4441 35.1754Z" fill="#EC1D23"/>
<path d="M27.6533 23.1779C27.6533 22.0281 26.8624 21.7223 25.9058 21.9976C25.1324 22.219 24.2316 22.5707 24.2316 22.5707L24.2254 31.0582C24.2161 31.9036 24.0853 32.9618 23.0438 33.224C22.2444 33.4255 21.8663 32.8921 21.8655 32.0483L21.8542 25.1014C21.8542 23.9456 21.0501 23.5996 20.0966 23.9159C19.0247 24.2739 18.3806 24.5316 18.3806 24.5316C18.3806 24.5316 18.393 30.5418 18.3783 32.9453C18.3646 35.7627 20.3072 37.1693 23.268 36.2948C25.88 35.5224 27.6241 34.0608 27.6572 30.3086L27.6533 23.1779Z" fill="#EC1D23"/>
<path d="M55.6587 26.6856C56.4112 26.5233 56.8806 25.9912 56.8806 25.0718C56.8806 24.2434 56.8837 23.6135 56.8837 23.6135L52.7962 24.5066L52.8037 22.1019C52.8037 22.1019 54.8072 21.6771 55.3635 21.5558C56.0626 21.4026 56.4287 21.0214 56.4287 20.2225C56.4287 19.4773 56.4241 18.8324 56.4241 18.8324L52.8024 19.6009L52.8016 17.6942C52.8016 17.6942 54.6843 17.3012 55.699 17.088C56.4894 16.9218 56.7503 16.3804 56.7503 15.6355C56.7503 15.1503 56.758 14.1901 56.758 14.1901C54.9514 14.5091 51.5173 15.1952 49.3758 15.6858L49.3466 28.1309C49.3466 28.1309 53.4189 27.1717 55.6587 26.6856Z" fill="#EC1D23"/>
<path fill-rule="evenodd" clip-rule="evenodd" d="M32.0339 31.4478C32.0373 30.4861 32.044 28.1028 32.044 28.1028L34.9932 31.1464C35.9428 32.1128 37.1556 31.6713 37.609 31.2453C38.3739 30.5256 38.3264 29.3347 37.6465 28.6759L35.4337 26.5514C36.4406 25.7166 37.5616 24.4973 37.5778 22.4879C37.6114 20.3773 35.7532 19.1885 33.1404 19.7962C31.459 20.1869 28.5998 21.183 28.5998 21.183L28.5944 33.9984C28.5944 33.9984 29.9791 33.5218 30.6306 33.2983C31.41 33.0005 32.0257 32.3495 32.0339 31.4478ZM32.0418 26.1813C32.0399 26.1823 32.0389 26.1828 32.0388 26.1829L32.0396 22.6257C32.7157 22.3777 34.0188 22.0681 34.0387 23.4829C34.0604 25.102 32.1275 26.1354 32.0418 26.1813Z" fill="#EC1D23"/>
<path fill-rule="evenodd" clip-rule="evenodd" d="M57.6387 14.0242L57.6333 26.3124L59.5152 25.9416C60.4545 25.7473 60.9784 25.0872 60.9869 24.1817C60.9892 23.2721 60.9799 21.1886 60.9799 21.1886L63.8683 24.576C64.3949 25.1577 65.3022 25.4599 66.218 24.8823C67.1499 24.2937 67.178 23.092 66.5481 22.3891C66.0792 21.8676 64.3296 19.8963 64.3296 19.8963C65.2818 19.2525 66.4023 18.1793 66.416 16.3959C66.4513 14.3679 64.7255 12.9404 62.1533 13.2707C61.2266 13.3899 57.6387 14.0242 57.6387 14.0242ZM62.9457 16.936C62.9684 18.532 60.9779 19.2902 60.9737 19.2902L60.9686 15.9707C61.5959 15.8305 62.9251 15.5862 62.9457 16.936Z" fill="#EC1D23"/>
<path d="M48.542 21.1549L43.4523 22.3106C43.4523 22.3106 43.4461 22.8484 43.4453 23.7263C43.4523 24.3846 43.9139 24.8119 44.5781 24.6751C44.9969 24.5882 45.3322 24.5105 45.3322 24.5105L45.3399 25.9241C45.3453 26.4833 44.5061 26.8495 43.6347 26.8293C42.4136 26.7976 41.7365 25.8487 41.719 24.0432C41.7569 21.6691 42.8737 20.2754 44.3949 19.8863C45.1546 19.6907 45.8459 19.7859 46.3829 19.8556C47.6943 20.0674 48.4494 19.4352 48.4762 18.3514C48.5036 17.1907 47.474 16.4728 45.264 16.5495C40.4721 16.7149 38.0219 20.1578 38.0219 24.2667C38.0219 28.4746 40.7709 30.3334 44.1263 29.7269C46.0224 29.3445 46.9656 28.7288 47.6192 28.1557C48.2726 27.5826 48.542 26.7253 48.542 25.9933V21.1549Z" fill="#EC1D23"/>
<path d="M28.4894 7.3916C22.8763 9.86938 19.0866 15.7673 18.8784 18.2639C18.7963 19.2564 20.1121 19.3988 20.236 18.345C21.4204 13.7909 25.0455 9.49727 28.4894 7.3916Z" fill="white"/>
<path d="M47.0895 11.6233C50.1169 10.8807 51.7795 10.7687 51.8094 9.41625C51.8621 7.15163 45.4011 4.52573 39.485 5.00131C45.5128 5.40412 49.1286 7.72475 49.1484 9.34194C49.1598 10.3648 48.2734 11.2675 47.0895 11.6233Z" fill="white"/>
<path d="M48.9655 61.6784C53.5082 59.8917 57.8736 56.4788 60.2886 51.3666C60.9856 49.8892 58.9703 49.1345 58.4013 50.8693C56.9877 54.5039 54.0826 58.7715 48.9655 61.6784Z" fill="white"/>
<path fill-rule="evenodd" clip-rule="evenodd" d="M69.0264 47.603C69.0264 49.6219 70.6291 50.9248 72.4269 50.9248C74.2258 50.9248 75.829 49.6219 75.829 47.603C75.829 45.5923 74.2258 44.2984 72.4269 44.2984C70.6288 44.2987 69.0264 45.5923 69.0264 47.603ZM71.8427 49.4545H71.1075H71.1073V45.7422H72.5077C73.4367 45.7422 73.9595 46.0356 73.9595 46.8422C73.9595 47.5237 73.5347 47.7885 72.9856 47.8344L73.9781 49.4545H73.207L72.3036 47.8695H71.8427V49.4545ZM72.4628 46.3197H71.8427H71.8424V47.2928H72.4994C72.9146 47.2928 73.2253 47.2316 73.2253 46.7798C73.2253 46.3811 72.7998 46.3197 72.4628 46.3197ZM72.4267 45.0073C71.0353 45.0073 69.9295 46.0967 69.9295 47.603C69.9295 49.1185 71.0355 50.2162 72.4267 50.2162C73.8013 50.2162 74.9251 49.1185 74.9251 47.603C74.9251 46.0967 73.801 45.0073 72.4267 45.0073Z" fill="#EC1D23"/>
</svg>
