<svg width="9" height="9" viewBox="0 0 9 9" fill="none" xmlns="http://www.w3.org/2000/svg">
<path d="M3.87342 9C3.36076 9 3.09494 8.73418 3.09494 8.22152V5.88608H0.778481C0.28481 5.88608 0 5.60127 0 5.10759V3.91139C0 3.39873 0.28481 3.13291 0.778481 3.13291H3.09494V0.778481C3.09494 0.265823 3.37975 0 3.87342 0H5.03165C5.5443 0 5.81013 0.265823 5.81013 0.778481V3.13291H8.10759C8.60126 3.13291 8.88608 3.39873 8.88608 3.91139V5.10759C8.88608 5.62025 8.60126 5.88608 8.10759 5.88608H5.81013V8.22152C5.81013 8.73418 5.5443 9 5.03165 9H3.87342Z" fill="#ED7902"/>
</svg>
