<svg width="152" height="31" viewBox="0 0 152 31" fill="none" xmlns="http://www.w3.org/2000/svg">
<path fill-rule="evenodd" clip-rule="evenodd" d="M10.296 13.3776C10.2864 13.1664 10.2816 13.032 10.2816 12.9744V12.3696C10.2816 12.3312 10.2768 12.2208 10.2672 12.0384C10.2576 11.856 10.2528 11.7456 10.2528 11.7072C10.2528 11.6496 10.2624 11.5344 10.2816 11.3616C10.3008 11.1888 10.3008 11.0832 10.2816 11.0448C10.2432 10.8912 10.1808 10.7808 10.0944 10.7136C10.008 10.6464 9.8304 10.5648 9.5616 10.4688C9.3312 10.392 8.928 10.3056 8.352 10.2096C7.776 10.1136 7.2192 10.0656 6.6816 10.0656C6.5088 10.0656 6.3024 10.0752 6.0624 10.0944C5.8224 10.1136 5.5872 10.1328 5.3568 10.152C5.1264 10.1712 4.92 10.1952 4.7376 10.224C4.5552 10.2528 4.4448 10.2672 4.4064 10.2672C4.3104 10.2864 4.152 10.3248 3.9312 10.3824C3.7104 10.44 3.4608 10.5168 3.1824 10.6128C2.904 10.7088 2.6208 10.8336 2.3328 10.9872C2.0448 11.1408 1.7856 11.3136 1.5552 11.5056C1.152 11.8512 0.859201 12.2064 0.6768 12.5712C0.494399 12.936 0.3552 13.2528 0.2592 13.5216C0.2208 13.6368 0.1824 13.7472 0.144 13.8528C0.1056 13.9584 0.0768001 14.0784 0.0576 14.2128C0.0383999 14.3472 0.024 14.5104 0.0144 14.7024C0.00479995 14.8944 0 15.144 0 15.4512C0 15.624 0.00479995 15.7776 0.0144 15.912C0.024 16.0464 0.0431999 16.1856 0.072 16.3296C0.1008 16.4736 0.1344 16.632 0.1728 16.8048C0.2112 16.9776 0.2688 17.1888 0.3456 17.4384C0.4224 17.7072 0.4992 17.9472 0.576 18.1584C0.6528 18.3696 0.825599 18.6672 1.0944 19.0512C1.2096 19.2432 1.3392 19.416 1.4832 19.5696C1.6272 19.7232 1.7664 19.848 1.9008 19.944C1.9776 20.0208 2.1024 20.1408 2.2752 20.304C2.448 20.4672 2.6352 20.64 2.8368 20.8224C3.0384 21.0048 3.2304 21.1728 3.4128 21.3264C3.5952 21.48 3.7248 21.5856 3.8016 21.6432C3.8592 21.6816 3.9888 21.7632 4.1904 21.888C4.392 22.0128 4.512 22.0944 4.5504 22.1328C4.608 22.1712 4.7232 22.272 4.896 22.4352C5.0688 22.5984 5.1744 22.6992 5.2128 22.7376C5.4624 22.9296 5.6304 23.0832 5.7168 23.1984C5.8032 23.3136 5.8944 23.4768 5.9904 23.688C6.0288 23.8224 6.0624 23.9376 6.0912 24.0336C6.12 24.1296 6.1344 24.2544 6.1344 24.408C6.1344 24.792 6.0672 25.0848 5.9328 25.2864C5.7984 25.488 5.6352 25.6368 5.4432 25.7328C5.2512 25.8288 5.064 25.8864 4.8816 25.9056C4.6992 25.9248 4.5696 25.9344 4.4928 25.9344H4.2336C4.0992 25.9344 3.9552 25.9296 3.8016 25.92C3.648 25.9104 3.5088 25.9056 3.384 25.9056H3.1968C3.1008 25.8864 3.0192 25.8672 2.952 25.848C2.8848 25.8288 2.8128 25.8 2.736 25.7616C2.4672 25.6656 2.2368 25.608 2.0448 25.5888C1.8528 25.5696 1.6896 25.56 1.5552 25.56C1.1904 25.56 0.864001 25.5888 0.576 25.6464C0.287999 25.704 0.144 25.896 0.144 26.2224C0.144 26.28 0.1536 26.3952 0.1728 26.568C0.192 26.7408 0.2016 26.8464 0.2016 26.8848C0.2016 26.9424 0.1968 27.024 0.1872 27.1296C0.1776 27.2352 0.168 27.3504 0.1584 27.4752C0.1488 27.6 0.1392 27.72 0.1296 27.8352C0.12 27.9504 0.1152 28.0272 0.1152 28.0656C0.1152 28.1808 0.12 28.296 0.1296 28.4112C0.1392 28.5264 0.144 28.6512 0.144 28.7856C0.144 28.8432 0.1392 28.9776 0.1296 29.1888C0.12 29.4 0.1152 29.5344 0.1152 29.592C0.1152 29.7264 0.144 29.8416 0.2016 29.9376C0.2592 30.0336 0.393599 30.1392 0.6048 30.2544C0.892801 30.408 1.1616 30.504 1.4112 30.5424C1.6608 30.5808 2.0064 30.6192 2.448 30.6576C2.5056 30.6576 2.6016 30.6672 2.736 30.6864C2.8704 30.7056 3.0144 30.7248 3.168 30.744C3.3216 30.7632 3.4656 30.7776 3.6 30.7872C3.7344 30.7968 3.8304 30.8016 3.888 30.8016C3.9648 30.8016 4.0416 30.7968 4.1184 30.7872C4.1952 30.7776 4.2816 30.7728 4.3776 30.7728C4.4352 30.7728 4.5504 30.768 4.7232 30.7584C4.896 30.7488 5.0736 30.7392 5.256 30.7296C5.4384 30.72 5.6112 30.7104 5.7744 30.7008C5.9376 30.6912 6.048 30.6864 6.1056 30.6864C6.2784 30.648 6.4944 30.5808 6.7536 30.4848C7.0128 30.3888 7.2624 30.288 7.5024 30.1824C7.7424 30.0768 7.9488 29.9808 8.1216 29.8944L8.3808 29.7648C8.4192 29.7456 8.5968 29.6064 8.9136 29.3472C9.2304 29.088 9.5232 28.7952 9.792 28.4688C9.888 28.3536 10.0032 28.2096 10.1376 28.0368C10.272 27.864 10.368 27.7296 10.4256 27.6336L10.512 27.432C10.5696 27.2976 10.632 27.1536 10.6992 27C10.7664 26.8464 10.8288 26.7024 10.8864 26.568C10.944 26.4336 10.9728 26.3568 10.9728 26.3376C11.0688 26.1264 11.1264 25.8864 11.1456 25.6176C11.1648 25.3488 11.1744 25.032 11.1744 24.6672C11.1744 24.1872 11.1504 23.7744 11.1024 23.4288C11.0544 23.0832 10.9872 22.776 10.9008 22.5072C10.8144 22.2384 10.7088 21.9888 10.584 21.7584C10.4592 21.528 10.3296 21.2976 10.1952 21.0672C10.0992 20.9136 10.0032 20.784 9.9072 20.6784C9.8112 20.5728 9.6 20.3568 9.2736 20.0304C9.1584 19.9152 9.0384 19.8096 8.9136 19.7136C8.7888 19.6176 8.6688 19.5216 8.5536 19.4256C8.5152 19.368 8.4144 19.2576 8.2512 19.0944L7.9488 18.792C7.8912 18.7536 7.8336 18.7248 7.776 18.7056C7.7184 18.6864 7.6704 18.6576 7.632 18.6192C7.5744 18.5808 7.5216 18.528 7.4736 18.4608C7.4256 18.3936 7.3728 18.3408 7.3152 18.3024L7.0992 18.1296C6.9552 18.0144 6.7872 17.8848 6.5952 17.7408C6.4032 17.5968 6.2208 17.4624 6.048 17.3376C5.8752 17.2128 5.7504 17.1216 5.6736 17.064C5.5392 16.9104 5.4096 16.7088 5.2848 16.4592C5.16 16.2096 5.0976 15.9792 5.0976 15.768C5.0976 15.4224 5.1696 15.1776 5.3136 15.0336C5.4576 14.8896 5.5872 14.7888 5.7024 14.7312C5.9136 14.616 6.0864 14.5392 6.2208 14.5008C6.3552 14.4624 6.4896 14.4432 6.624 14.4432L6.912 14.472C7.104 14.4912 7.3152 14.5104 7.5456 14.5296C7.776 14.5488 7.9968 14.568 8.208 14.5872C8.4192 14.6064 8.5632 14.6256 8.64 14.6448C8.832 14.7024 8.952 14.736 9 14.7456C9.048 14.7552 9.1008 14.76 9.1584 14.76C9.312 14.76 9.4656 14.736 9.6192 14.688C9.7728 14.64 9.888 14.5872 9.9648 14.5296C10.1184 14.4336 10.2144 14.3184 10.2528 14.184C10.2912 14.0496 10.3104 13.9152 10.3104 13.7808C10.3104 13.7232 10.3056 13.5888 10.296 13.3776ZM12.3675 18.936C12.2715 19.32 12.2235 19.6656 12.2235 19.9728C12.2235 20.1264 12.2283 20.3328 12.2379 20.592C12.2475 20.8512 12.2619 21.1296 12.2811 21.4272C12.3003 21.7248 12.3195 22.0128 12.3387 22.2912C12.3579 22.5696 12.3771 22.7856 12.3963 22.9392C12.4155 23.0352 12.4395 23.1648 12.4683 23.328C12.4971 23.4912 12.5307 23.6688 12.5691 23.8608C12.6075 24.0528 12.6555 24.2448 12.7131 24.4368C12.7707 24.6288 12.8283 24.792 12.8859 24.9264C12.9435 25.0416 13.0107 25.1568 13.0875 25.272C13.1643 25.3872 13.2315 25.512 13.2891 25.6464C13.3659 25.8192 13.4331 25.9584 13.4907 26.064C13.5483 26.1696 13.6059 26.2656 13.6635 26.352C13.7211 26.4384 13.7883 26.5296 13.8651 26.6256C13.9419 26.7216 14.0379 26.8464 14.1531 27C14.3643 27.288 14.5419 27.5232 14.6859 27.7056C14.8299 27.888 14.9739 28.0464 15.1179 28.1808C15.2619 28.3152 15.4299 28.4496 15.6219 28.584C15.8139 28.7184 16.0539 28.8912 16.3419 29.1024C16.4763 29.1984 16.6011 29.2944 16.7163 29.3904C16.8315 29.4864 16.9563 29.5824 17.0907 29.6784C17.2059 29.7552 17.3211 29.8176 17.4363 29.8656C17.5515 29.9136 17.6763 29.9568 17.8107 29.9952C18.0219 30.0528 18.1611 30.096 18.2283 30.1248C18.2955 30.1536 18.4251 30.216 18.6171 30.312C18.7707 30.3888 18.9531 30.4464 19.1643 30.4848C19.2987 30.5232 19.4283 30.552 19.5531 30.5712C19.6779 30.5904 19.8075 30.6096 19.9419 30.6288C20.1915 30.7056 20.4027 30.7536 20.5755 30.7728C20.6331 30.7728 20.7387 30.7776 20.8923 30.7872C21.0459 30.7968 21.2043 30.8064 21.3675 30.816C21.5307 30.8256 21.6891 30.8304 21.8427 30.8304H22.1883C22.4571 30.8304 22.7643 30.8016 23.1099 30.744L23.3403 30.6864C23.4171 30.6672 23.5035 30.648 23.5995 30.6288C23.7531 30.5904 23.8971 30.5664 24.0315 30.5568C24.1659 30.5472 24.3003 30.5232 24.4347 30.4848C24.4539 30.4848 24.5451 30.4512 24.7083 30.384C24.8715 30.3168 25.0491 30.2496 25.2411 30.1824C25.4331 30.1152 25.6059 30.048 25.7595 29.9808C25.9131 29.9136 25.9995 29.8704 26.0187 29.8512C26.1147 29.8128 26.2011 29.7648 26.2779 29.7072C26.3547 29.6496 26.4411 29.592 26.5371 29.5344C26.6907 29.4576 26.8395 29.3952 26.9835 29.3472C27.1275 29.2992 27.2667 29.2272 27.4011 29.1312C27.4971 29.0736 27.6363 28.9632 27.8187 28.8C28.0011 28.6368 28.1835 28.464 28.3659 28.2816C28.5483 28.0992 28.7211 27.9168 28.8843 27.7344C29.0475 27.552 29.1579 27.4128 29.2155 27.3168C29.5995 26.7984 29.8683 26.3808 30.0219 26.064C30.1755 25.7472 30.3003 25.4736 30.3963 25.2432C30.4347 25.1664 30.4827 25.032 30.5403 24.84C30.5979 24.648 30.6555 24.4512 30.7131 24.2496C30.7707 24.048 30.8235 23.8512 30.8715 23.6592C30.9195 23.4672 30.9627 23.3232 31.0011 23.2272C31.0203 23.1504 31.0491 23.0256 31.0875 22.8528C31.1259 22.68 31.1595 22.4976 31.1883 22.3056C31.2171 22.1136 31.2411 21.9312 31.2603 21.7584C31.2795 21.5856 31.2891 21.4512 31.2891 21.3552C31.2891 21.2784 31.2795 21.0672 31.2603 20.7216C31.2411 20.376 31.2171 20.0016 31.1883 19.5984C31.1595 19.1952 31.1259 18.816 31.0875 18.4608C31.0491 18.1056 31.0203 17.8704 31.0011 17.7552C30.9435 17.352 30.8475 16.9968 30.7131 16.6896L30.1659 15.5952C30.1275 15.48 30.0843 15.3648 30.0363 15.2496C29.9883 15.1344 29.9355 15.0192 29.8779 14.904C29.7819 14.6736 29.6907 14.4912 29.6043 14.3568C29.5179 14.2224 29.4075 14.0784 29.2731 13.9248C29.1195 13.8096 28.9851 13.6752 28.8699 13.5216C28.7739 13.4256 28.6875 13.3248 28.6107 13.2192C28.5339 13.1136 28.4475 13.0128 28.3515 12.9168C28.2555 12.84 28.1403 12.7344 28.0059 12.6C27.8715 12.4656 27.7323 12.336 27.5883 12.2112C27.4443 12.0864 27.3051 11.9664 27.1707 11.8512C27.0363 11.736 26.9307 11.6592 26.8539 11.6208C26.8155 11.6016 26.6955 11.544 26.4939 11.448C26.2923 11.352 26.0715 11.2464 25.8315 11.1312C25.5915 11.016 25.3659 10.9104 25.1547 10.8144C24.9435 10.7184 24.8283 10.6608 24.8091 10.6416C24.5787 10.5456 24.3435 10.4832 24.1035 10.4544C23.8635 10.4256 23.6187 10.392 23.3691 10.3536C23.3115 10.3536 23.2059 10.3392 23.0523 10.3104C22.8987 10.2816 22.7355 10.2528 22.5627 10.224C22.3899 10.1952 22.2267 10.1712 22.0731 10.152C21.9195 10.1328 21.8139 10.1232 21.7563 10.1232C21.7179 10.1232 21.5883 10.1376 21.3675 10.1664C21.1467 10.1952 20.8971 10.224 20.6187 10.2528C20.3403 10.2816 20.0715 10.32 19.8123 10.368C19.5531 10.416 19.3755 10.4496 19.2795 10.4688C19.1451 10.5072 19.0155 10.56 18.8907 10.6272C18.7659 10.6944 18.6363 10.7472 18.5019 10.7856C18.4059 10.824 18.3051 10.8576 18.1995 10.8864C18.0939 10.9152 17.9931 10.9488 17.8971 10.9872C17.7051 11.064 17.4747 11.1744 17.2059 11.3184C16.9371 11.4624 16.7451 11.5824 16.6299 11.6784C16.5339 11.7552 16.4427 11.832 16.3563 11.9088C16.2699 11.9856 16.1787 12.0624 16.0827 12.1392C15.9867 12.216 15.8907 12.288 15.7947 12.3552C15.6987 12.4224 15.6027 12.504 15.5067 12.6C15.4107 12.696 15.3243 12.8016 15.2475 12.9168C15.1707 13.032 15.0843 13.1376 14.9883 13.2336C14.9115 13.3296 14.8251 13.4256 14.7291 13.5216C14.6331 13.6176 14.5467 13.7136 14.4699 13.8096C14.4315 13.848 14.3835 13.9248 14.3259 14.04C14.2683 14.1552 14.2011 14.28 14.1243 14.4144C14.0475 14.5488 13.9803 14.6688 13.9227 14.7744C13.8651 14.88 13.8267 14.952 13.8075 14.9904C13.7499 15.0864 13.6875 15.1728 13.6203 15.2496C13.5531 15.3264 13.5003 15.4128 13.4619 15.5088C13.4427 15.528 13.4091 15.5952 13.3611 15.7104C13.3131 15.8256 13.2555 15.9552 13.1883 16.0992C13.1211 16.2432 13.0635 16.3776 13.0155 16.5024C12.9675 16.6272 12.9339 16.7088 12.9147 16.7472C12.8763 16.8048 12.8331 16.9344 12.7851 17.136C12.7371 17.3376 12.6843 17.5536 12.6267 17.784C12.5691 18.0144 12.5163 18.24 12.4683 18.4608C12.4203 18.6816 12.3867 18.84 12.3675 18.936ZM16.9467 20.232C16.9467 20.2704 16.9515 20.3472 16.9611 20.4624C16.9707 20.5776 16.9755 20.6976 16.9755 20.8224C16.9755 20.9472 16.9803 21.0672 16.9899 21.1824L17.0043 21.3552C17.0235 21.528 17.0619 21.7008 17.1195 21.8736C17.1771 22.0464 17.2251 22.2192 17.2635 22.392C17.3211 22.6224 17.3739 22.8144 17.4219 22.968C17.4699 23.1216 17.5131 23.2464 17.5515 23.3424L17.6667 23.6304C17.7051 23.7264 17.7627 23.832 17.8395 23.9472C17.9547 24.1584 18.1035 24.3648 18.2859 24.5664C18.4683 24.768 18.6459 24.9504 18.8187 25.1136C18.9915 25.2768 19.1451 25.4064 19.2795 25.5024C19.4139 25.5984 19.5003 25.656 19.5387 25.6752C19.6155 25.7136 19.6971 25.7328 19.7835 25.7328C19.8699 25.7328 19.9611 25.752 20.0571 25.7904C20.1147 25.8096 20.1675 25.8288 20.2155 25.848C20.2635 25.8672 20.3163 25.8864 20.3739 25.9056C20.4891 25.944 20.5851 25.9728 20.6619 25.992C20.8539 26.0304 20.9835 26.0544 21.0507 26.064C21.1179 26.0736 21.2571 26.0784 21.4683 26.0784C21.5067 26.0784 21.5931 26.0832 21.7275 26.0928C21.8619 26.1024 21.9483 26.1072 21.9867 26.1072H22.3611C22.5915 26.1072 22.7451 26.0976 22.8219 26.0784C22.9371 26.0592 23.0811 26.0112 23.2539 25.9344C23.4267 25.8576 23.5995 25.7664 23.7723 25.6608C23.9451 25.5552 24.1035 25.4592 24.2475 25.3728C24.3915 25.2864 24.4923 25.2144 24.5499 25.1568C24.7035 25.0416 24.8571 24.8976 25.0107 24.7248C25.1643 24.552 25.3035 24.3888 25.4283 24.2352C25.5531 24.0816 25.6587 23.9424 25.7451 23.8176C25.8315 23.6928 25.8843 23.6112 25.9035 23.5728C25.9419 23.5152 25.9851 23.3856 26.0331 23.184C26.0811 22.9824 26.1915 22.5648 26.3643 21.9312C26.4219 21.6624 26.4603 21.4464 26.4795 21.2832C26.4987 21.12 26.5083 20.9712 26.5083 20.8368C26.5083 20.6832 26.5035 20.5296 26.4939 20.376C26.4843 20.2224 26.4795 20.0688 26.4795 19.9152V19.296C26.4795 19.2288 26.4699 19.1472 26.4507 19.0512C26.4507 19.032 26.4219 18.9456 26.3643 18.792C26.3067 18.6384 26.2443 18.4656 26.1771 18.2736C26.1099 18.0816 26.0379 17.8992 25.9611 17.7264C25.8843 17.5536 25.8171 17.4192 25.7595 17.3232C25.6635 17.1696 25.5579 17.04 25.4427 16.9344C25.3275 16.8288 25.2219 16.7088 25.1259 16.5744C25.0299 16.4592 24.9339 16.3392 24.8379 16.2144C24.7419 16.0896 24.6363 15.9792 24.5211 15.8832C24.4635 15.8256 24.3531 15.7584 24.1899 15.6816C24.0267 15.6048 23.8587 15.528 23.6859 15.4512C23.5131 15.3744 23.3547 15.3024 23.2107 15.2352C23.0667 15.168 22.9851 15.1344 22.9659 15.1344C22.9083 15.1152 22.8027 15.096 22.6491 15.0768C22.4955 15.0576 22.3419 15.0432 22.1883 15.0336C22.0347 15.024 21.8859 15.0192 21.7419 15.0192H21.0795C20.9547 15.0192 20.8443 15.0384 20.7483 15.0768C20.5563 15.1152 20.4075 15.1488 20.3019 15.1776C20.1963 15.2064 20.1051 15.24 20.0283 15.2784C19.9515 15.3168 19.8795 15.3552 19.8123 15.3936C19.7451 15.432 19.6539 15.4896 19.5387 15.5664C19.3275 15.7008 19.1595 15.8064 19.0347 15.8832C18.9099 15.96 18.8043 16.032 18.7179 16.0992C18.6315 16.1664 18.5547 16.2336 18.4875 16.3008C18.4203 16.368 18.3483 16.4592 18.2715 16.5744C18.1179 16.728 17.9451 16.9632 17.7531 17.28C17.5611 17.5968 17.4363 17.8224 17.3787 17.9568C17.2827 18.1296 17.2251 18.3168 17.2059 18.5184C17.1867 18.72 17.1579 18.9264 17.1195 19.1376C17.0811 19.2912 17.0475 19.4448 17.0187 19.5984C16.9899 19.752 16.9659 19.9056 16.9467 20.0592V20.232ZM36.2695 10.296H36.2623H33.8647C33.7687 10.296 33.6631 10.3056 33.5479 10.3248C33.4327 10.344 33.3223 10.392 33.2167 10.4688C33.1111 10.5456 33.0199 10.656 32.9431 10.8C32.8663 10.944 32.8279 11.1408 32.8279 11.3904C32.8279 11.544 32.8327 11.7264 32.8423 11.9376C32.8519 12.1488 32.8663 12.3312 32.8855 12.4848C32.8855 12.6 32.8903 12.7152 32.8999 12.8304C32.9095 12.9456 32.9143 13.0608 32.9143 13.176C32.9143 13.2144 32.9095 13.3104 32.8999 13.464C32.8903 13.6176 32.8855 13.7136 32.8855 13.752C32.8855 13.7904 32.8903 13.8528 32.8999 13.9392C32.9095 14.0256 32.9143 14.088 32.9143 14.1264C32.9143 14.1648 32.9095 14.2368 32.8999 14.3424C32.8903 14.448 32.8855 14.52 32.8855 14.5584V16.3872C32.8855 16.5504 32.8903 16.7232 32.8999 16.9056C32.9095 17.088 32.9143 17.2608 32.9143 17.424V17.7552C32.9143 17.832 32.9095 17.952 32.8999 18.1152C32.8903 18.2784 32.8855 18.4512 32.8855 18.6336C32.8855 18.816 32.8807 18.984 32.8711 19.1376C32.8615 19.2912 32.8567 19.3968 32.8567 19.4544C32.8567 19.512 32.8615 19.6176 32.8711 19.7712C32.8807 19.9248 32.8855 20.0832 32.8855 20.2464C32.8855 20.4096 32.8903 20.5632 32.8999 20.7072C32.9095 20.8512 32.9143 20.952 32.9143 21.0096C32.9143 21.1056 32.9095 21.2784 32.8999 21.528C32.8903 21.7776 32.8807 22.0416 32.8711 22.32C32.8615 22.5984 32.8519 22.8576 32.8423 23.0976C32.8327 23.3376 32.8279 23.496 32.8279 23.5728C32.8279 23.6688 32.8327 23.8368 32.8423 24.0768C32.8519 24.3168 32.8567 24.5664 32.8567 24.8256C32.8567 25.0848 32.8615 25.3296 32.8711 25.56C32.8807 25.7904 32.8855 25.944 32.8855 26.0208C32.8855 26.136 32.8807 26.352 32.8711 26.6688C32.8615 26.9856 32.8471 27.3168 32.8279 27.6624C32.8087 28.008 32.7943 28.32 32.7847 28.5984C32.7751 28.8768 32.7703 29.0256 32.7703 29.0448C32.7703 29.1024 32.7847 29.2128 32.8135 29.376C32.8423 29.5392 32.8951 29.7072 32.9719 29.88C33.0487 30.0528 33.1639 30.2112 33.3175 30.3552C33.4711 30.4992 33.6823 30.5712 33.9511 30.5712C33.9895 30.5712 34.0615 30.5664 34.1671 30.5568C34.2727 30.5472 34.3831 30.5424 34.4983 30.5424C34.6327 30.5232 34.7479 30.5136 34.8439 30.5136H35.0455C35.1031 30.5136 35.1943 30.5184 35.3191 30.528C35.4439 30.5376 35.5783 30.5472 35.7223 30.5568C35.8663 30.5664 36.0007 30.576 36.1255 30.5856C36.2503 30.5952 36.3415 30.6 36.3991 30.6C36.6295 30.6 36.8647 30.5904 37.1047 30.5712C37.3447 30.552 37.5799 30.5424 37.8103 30.5424C37.8679 30.5424 37.9591 30.5472 38.0839 30.5568C38.2087 30.5664 38.3431 30.5712 38.4871 30.5712C38.6311 30.5712 38.7607 30.576 38.8759 30.5856C38.9911 30.5952 39.0775 30.6 39.1351 30.6H40.6903C40.7479 30.6 40.8775 30.5952 41.0791 30.5856C41.2807 30.576 41.4103 30.5712 41.4679 30.5712C41.6215 30.5712 41.7799 30.576 41.9431 30.5856C42.1063 30.5952 42.2647 30.6 42.4183 30.6C42.5911 30.6 42.8071 30.5808 43.0663 30.5424C43.3255 30.504 43.5847 30.4608 43.8439 30.4128C44.1031 30.3648 44.3239 30.3216 44.5063 30.2832C44.6887 30.2448 44.7895 30.2256 44.8087 30.2256C45.3655 30.072 45.8023 29.856 46.1191 29.5776C46.4359 29.2992 46.7287 28.9968 46.9975 28.6704C47.1703 28.44 47.3095 28.2528 47.4151 28.1088C47.5207 27.9648 47.6023 27.816 47.6599 27.6624C47.7175 27.5088 47.7655 27.336 47.8039 27.144L47.9479 26.424C48.0439 25.944 48.1015 25.632 48.1207 25.488C48.1399 25.344 48.1495 25.224 48.1495 25.128C48.1495 24.5328 48.1255 24.1008 48.0775 23.832C48.0295 23.5632 47.9671 23.2944 47.8903 23.0256C47.7943 22.6992 47.6647 22.3488 47.5015 21.9744C47.3383 21.6 47.0647 21.2784 46.6807 21.0096L46.2199 20.664C46.1623 20.6064 46.0471 20.5344 45.8743 20.448C45.7015 20.3616 45.6055 20.3088 45.5863 20.2896C45.4711 20.2512 45.4135 20.2032 45.4135 20.1456C45.4135 20.0496 45.5191 19.9536 45.7303 19.8576C46.0951 19.6848 46.3975 19.4544 46.6375 19.1664C46.8775 18.8784 47.0455 18.6288 47.1415 18.4176C47.1607 18.3984 47.1847 18.336 47.2135 18.2304C47.2423 18.1248 47.2807 18.0144 47.3287 17.8992C47.3767 17.784 47.4151 17.6784 47.4439 17.5824C47.4727 17.4864 47.4967 17.4192 47.5159 17.3808C47.5351 17.304 47.5591 17.1648 47.5879 16.9632C47.6167 16.7616 47.6407 16.56 47.6599 16.3584C47.6791 16.1568 47.6935 15.9696 47.7031 15.7968C47.7127 15.624 47.7175 15.5088 47.7175 15.4512C47.7175 15.1824 47.6743 14.8896 47.5879 14.5728C47.5015 14.256 47.4007 13.992 47.2855 13.7808C47.1895 13.6464 47.1319 13.5552 47.1127 13.5072C47.0935 13.4592 47.0551 13.3584 46.9975 13.2048C46.9207 12.9936 46.8343 12.8208 46.7383 12.6864C46.6423 12.552 46.5079 12.3984 46.3351 12.2256L46.0759 11.9664C45.9991 11.8896 45.9127 11.8128 45.8167 11.736C45.7207 11.6592 45.6055 11.592 45.4711 11.5344C45.3367 11.4768 45.2119 11.4096 45.0967 11.3328C44.9623 11.256 44.8375 11.1792 44.7223 11.1024C44.6071 11.0256 44.4823 10.9584 44.3479 10.9008C44.1559 10.8048 43.9687 10.7232 43.7863 10.656C43.6039 10.5888 43.3831 10.536 43.1239 10.4976C42.8647 10.4592 42.5575 10.4256 42.2023 10.3968C41.8471 10.368 41.4103 10.3344 40.8919 10.296C40.6999 10.2768 40.5607 10.2624 40.4743 10.2528C40.3879 10.2432 40.2967 10.2384 40.2007 10.2384C40.1047 10.2384 39.9079 10.248 39.6103 10.2672C39.3127 10.2864 39.1159 10.296 39.0199 10.296C38.8663 10.296 38.7175 10.2912 38.5735 10.2816C38.4295 10.272 38.2807 10.2672 38.1271 10.2672H37.8535C37.7671 10.2672 37.6759 10.2768 37.5799 10.296C37.4839 10.296 37.3879 10.3008 37.2919 10.3104C37.1959 10.32 37.0999 10.3248 37.0039 10.3248H36.7735C36.6199 10.3056 36.5335 10.296 36.5143 10.296H36.2695ZM39.6823 14.2704H39.4375C39.3703 14.2704 39.2311 14.2896 39.0199 14.328C38.7895 14.3664 38.5639 14.4288 38.3431 14.5152C38.1223 14.6016 37.9639 14.7504 37.8679 14.9616C37.8487 15 37.8295 15.0768 37.8103 15.192C37.7911 15.3072 37.7719 15.4272 37.7527 15.552C37.7335 15.6768 37.7191 15.7872 37.7095 15.8832L37.6951 16.0272C37.6951 16.4112 37.7335 16.7232 37.8103 16.9632C37.8871 17.2032 37.9927 17.3856 38.1271 17.5104C38.2615 17.6352 38.4199 17.7168 38.6023 17.7552C38.7847 17.7936 38.9815 17.8128 39.1927 17.8128C39.3463 17.8128 39.4855 17.808 39.6103 17.7984C39.7351 17.7888 39.8647 17.784 39.9991 17.784C40.0567 17.784 40.1815 17.7888 40.3735 17.7984C40.5655 17.808 40.6903 17.8128 40.7479 17.8128C40.9207 17.8128 41.1271 17.784 41.3671 17.7264C41.6071 17.6688 41.8375 17.5728 42.0583 17.4384C42.2791 17.304 42.4663 17.1264 42.6199 16.9056C42.7735 16.6848 42.8503 16.4208 42.8503 16.1136C42.8503 15.96 42.8311 15.7872 42.7927 15.5952C42.7543 15.4032 42.6679 15.2304 42.5335 15.0768C42.4951 15.0384 42.3751 14.9376 42.1735 14.7744C41.9719 14.6112 41.6695 14.4816 41.2663 14.3856C41.1895 14.3856 41.0791 14.376 40.9351 14.3568C40.7911 14.3376 40.6375 14.3232 40.4743 14.3136C40.3111 14.304 40.1527 14.2944 39.9991 14.2848C39.8455 14.2752 39.7399 14.2704 39.6823 14.2704ZM39.7687 22.0464C39.9415 22.0272 40.0663 22.0176 40.1431 22.0176C40.2199 22.0176 40.3495 22.0272 40.5319 22.0464C40.7143 22.0656 40.9063 22.0896 41.1079 22.1184C41.3095 22.1472 41.5015 22.1808 41.6839 22.2192C41.8663 22.2576 42.0055 22.296 42.1015 22.3344C42.4663 22.488 42.7687 22.752 43.0087 23.1264C43.2487 23.5008 43.3687 23.8896 43.3687 24.2928C43.3687 24.9072 43.2535 25.3248 43.0231 25.5456C42.7927 25.7664 42.5143 25.944 42.1879 26.0784C41.9767 26.1744 41.8279 26.232 41.7415 26.2512C41.6551 26.2704 41.4775 26.2992 41.2087 26.3376C41.1511 26.3376 41.0215 26.3472 40.8199 26.3664C40.6183 26.3856 40.4887 26.3952 40.4311 26.3952H40.1575C40.0711 26.3952 39.9799 26.3856 39.8839 26.3664H38.9047C38.5975 26.3472 38.3575 26.304 38.1847 26.2368C38.0119 26.1696 37.8823 26.088 37.7959 25.992C37.7095 25.896 37.6519 25.7904 37.6231 25.6752C37.5943 25.56 37.5703 25.4448 37.5511 25.3296C37.5319 25.2336 37.5127 25.0992 37.4935 24.9264C37.4743 24.7536 37.4647 24.6192 37.4647 24.5232C37.4647 24.4848 37.4695 24.408 37.4791 24.2928C37.4887 24.1776 37.5031 24.1008 37.5223 24.0624C37.5415 23.9088 37.5463 23.7408 37.5367 23.5584C37.5271 23.376 37.5511 23.208 37.6087 23.0544C37.6855 22.8624 37.8055 22.6896 37.9687 22.536C38.1319 22.3824 38.2903 22.2768 38.4439 22.2192C38.4823 22.2 38.5783 22.1808 38.7319 22.1616C38.8855 22.1424 39.0535 22.1232 39.2359 22.104C39.4183 22.0848 39.5959 22.0656 39.7687 22.0464ZM50.0338 19.512V18.9504C50.0338 18.7488 50.0434 18.552 50.0626 18.36C50.0626 17.88 50.0818 17.4096 50.1202 16.9488C50.1586 16.488 50.1874 16.0176 50.2066 15.5376V15.0768C50.2066 14.8464 50.2018 14.6064 50.1922 14.3568C50.1826 14.1072 50.1778 13.872 50.1778 13.6512V13.176C50.1778 13.08 50.1682 12.888 50.149 12.6C50.1298 12.312 50.1202 12.12 50.1202 12.024C50.1202 11.832 50.125 11.6256 50.1346 11.4048C50.1442 11.184 50.1874 10.9824 50.2642 10.8C50.341 10.6176 50.461 10.4688 50.6242 10.3536C50.7874 10.2384 51.013 10.1808 51.301 10.1808C51.3586 10.1808 51.4834 10.1904 51.6754 10.2096C51.8674 10.2288 51.9922 10.2384 52.0498 10.2384C52.1074 10.2384 52.237 10.2336 52.4386 10.224C52.6402 10.2144 52.7698 10.2096 52.8274 10.2096H53.0578C53.173 10.2096 53.2978 10.2144 53.4322 10.224C53.5666 10.2336 53.6914 10.2384 53.8066 10.2384H55.0162C55.093 10.2384 55.261 10.2336 55.5202 10.224C55.7794 10.2144 55.957 10.2096 56.053 10.2096C56.2066 10.2096 56.3938 10.2048 56.6146 10.1952C56.8354 10.1856 57.0226 10.1808 57.1762 10.1808C57.2338 10.1808 57.349 10.1856 57.5218 10.1952C57.6946 10.2048 57.877 10.2144 58.069 10.224C58.261 10.2336 58.4434 10.2432 58.6162 10.2528C58.789 10.2624 58.9042 10.2768 58.9618 10.296C59.0194 10.296 59.1154 10.3152 59.2498 10.3536C59.3842 10.392 59.5282 10.4304 59.6818 10.4688C59.8354 10.5072 59.9794 10.5456 60.1138 10.584C60.2482 10.6224 60.3538 10.6512 60.4306 10.6704C60.4882 10.7088 60.5842 10.7568 60.7186 10.8144C60.853 10.872 60.997 10.9392 61.1506 11.016C61.3042 11.0928 61.4434 11.16 61.5682 11.2176C61.693 11.2752 61.765 11.304 61.7842 11.304C62.0146 11.4384 62.2498 11.6016 62.4898 11.7936C62.7298 11.9856 62.8978 12.1296 62.9938 12.2256C63.013 12.2448 63.0658 12.3168 63.1522 12.4416C63.2386 12.5664 63.3346 12.7008 63.4402 12.8448C63.5458 12.9888 63.6418 13.1232 63.7282 13.248C63.8146 13.3728 63.8674 13.4448 63.8866 13.464L64.0306 13.752C64.1074 13.9056 64.1842 14.088 64.261 14.2992C64.3378 14.5104 64.4098 14.7408 64.477 14.9904C64.5442 15.24 64.5778 15.4704 64.5778 15.6816C64.5778 15.72 64.573 15.8256 64.5634 15.9984C64.5538 16.1712 64.549 16.2768 64.549 16.3152C64.549 16.4112 64.5586 16.6032 64.5778 16.8912C64.597 17.1792 64.6066 17.3712 64.6066 17.4672C64.6066 17.6208 64.5874 17.8272 64.549 18.0864C64.5106 18.3456 64.4578 18.6192 64.3906 18.9072C64.3234 19.1952 64.2466 19.4736 64.1602 19.7424C64.0738 20.0112 63.9826 20.2416 63.8866 20.4336C63.829 20.5488 63.7426 20.6832 63.6274 20.8368C63.5122 20.9904 63.3922 21.144 63.2674 21.2976C63.1426 21.4512 63.0226 21.6 62.9074 21.744C62.7922 21.888 62.6962 21.9984 62.6194 22.0752C62.3698 22.344 62.1682 22.56 62.0146 22.7232C61.861 22.8864 61.7458 23.016 61.669 23.112C61.5922 23.208 61.5442 23.2944 61.525 23.3712C61.5058 23.448 61.4962 23.5344 61.4962 23.6304C61.4962 23.8416 61.549 24.0048 61.6546 24.12C61.7602 24.2352 61.8802 24.3408 62.0146 24.4368C62.3218 24.6672 62.6386 24.864 62.965 25.0272C63.2914 25.1904 63.5026 25.2912 63.5986 25.3296C63.6946 25.368 63.7762 25.392 63.8434 25.4016C63.9106 25.4112 63.9922 25.4352 64.0882 25.4736C64.2994 25.608 64.4242 25.7616 64.4626 25.9344C64.501 26.1072 64.5202 26.2416 64.5202 26.3376C64.5202 26.4336 64.5154 26.5392 64.5058 26.6544C64.4962 26.7696 64.4914 26.8752 64.4914 26.9712C64.4914 27.0288 64.501 27.1536 64.5202 27.3456C64.5394 27.5376 64.549 27.6624 64.549 27.72C64.549 27.7584 64.5442 27.84 64.5346 27.9648C64.525 28.0896 64.5154 28.2192 64.5058 28.3536C64.4962 28.488 64.4866 28.6128 64.477 28.728C64.4674 28.8432 64.4626 28.9296 64.4626 28.9872C64.4626 29.0256 64.4674 29.1264 64.477 29.2896C64.4866 29.4528 64.4914 29.5536 64.4914 29.592C64.4914 29.8224 64.4338 30 64.3186 30.1248C64.2034 30.2496 64.0738 30.3504 63.9298 30.4272C63.7858 30.504 63.6514 30.552 63.5266 30.5712C63.4018 30.5904 63.3202 30.6 63.2818 30.6C62.9746 30.6 62.677 30.552 62.389 30.456C62.101 30.36 61.837 30.2496 61.597 30.1248C61.357 30 61.1602 29.8752 61.0066 29.7504C60.853 29.6256 60.7474 29.544 60.6898 29.5056C60.4786 29.3328 60.1858 29.0784 59.8114 28.7424C59.437 28.4064 59.1154 28.0752 58.8466 27.7488C58.8082 27.6912 58.7602 27.6288 58.7026 27.5616C58.645 27.4944 58.5874 27.4416 58.5298 27.4032C58.3762 27.2688 58.1938 27.144 57.9826 27.0288C57.9442 26.9904 57.8386 26.904 57.6658 26.7696C57.493 26.6352 57.3874 26.5488 57.349 26.5104C56.965 26.2608 56.6818 26.112 56.4994 26.064C56.317 26.016 56.1202 25.992 55.909 25.992C55.8322 25.992 55.7506 26.0112 55.6642 26.0496C55.5778 26.088 55.5154 26.1168 55.477 26.136C55.3426 26.232 55.2514 26.3184 55.2034 26.3952C55.1554 26.472 55.1026 26.5776 55.045 26.712C54.949 26.904 54.8914 27.0624 54.8722 27.1872C54.853 27.312 54.8434 27.576 54.8434 27.9792C54.8434 28.0752 54.8482 28.1664 54.8578 28.2528C54.8674 28.3392 54.8914 28.536 54.9298 28.8432C54.949 28.9008 54.9778 29.0496 55.0162 29.2896C55.0546 29.5296 55.0738 29.688 55.0738 29.7648C55.0738 30.0336 54.9922 30.2352 54.829 30.3696C54.6658 30.504 54.4882 30.5712 54.2962 30.5712C54.2002 30.5712 54.0994 30.5616 53.9938 30.5424C53.8882 30.5232 53.7874 30.504 53.6914 30.4848C53.5954 30.4656 53.4994 30.4512 53.4034 30.4416C53.3074 30.432 53.2114 30.4272 53.1154 30.4272C53.0962 30.4272 53.0002 30.432 52.8274 30.4416C52.6546 30.4512 52.549 30.456 52.5106 30.456C52.4146 30.4752 52.3186 30.4848 52.2226 30.4848H51.8482C51.7714 30.4848 51.5986 30.4896 51.3298 30.4992C51.061 30.5088 50.8882 30.5136 50.8114 30.5136C50.6386 30.5136 50.4946 30.4752 50.3794 30.3984C50.2642 30.3216 50.173 30.2304 50.1058 30.1248C50.0386 30.0192 49.9954 29.9088 49.9762 29.7936C49.957 29.6784 49.9474 29.5824 49.9474 29.5056C49.9474 29.3904 49.957 29.2752 49.9762 29.16L50.0338 28.8144C50.053 28.7184 50.0626 28.6224 50.0626 28.5264V28.008C50.0626 27.8928 50.0578 27.7728 50.0482 27.648C50.0386 27.5232 50.0338 27.408 50.0338 27.3024V27.0576C50.0338 26.8656 50.0386 26.6736 50.0482 26.4816C50.0578 26.2896 50.0722 26.088 50.0914 25.8768C50.1106 25.6272 50.125 25.4208 50.1346 25.2576C50.1442 25.0944 50.149 24.9744 50.149 24.8976C50.149 24.6864 50.1394 24.4656 50.1202 24.2352C50.101 24.0048 50.0914 23.784 50.0914 23.5728V23.1984C50.0914 23.0256 50.0866 22.848 50.077 22.6656C50.0674 22.4832 50.0626 22.3056 50.0626 22.1328V21.7584C50.0626 21.6816 50.0674 21.5184 50.077 21.2688C50.0866 21.0192 50.0914 20.8464 50.0914 20.7504C50.0914 20.712 50.0866 20.6352 50.077 20.52C50.0674 20.4048 50.0626 20.28 50.0626 20.1456C50.0626 20.0112 50.0578 19.8864 50.0482 19.7712C50.0386 19.656 50.0338 19.5696 50.0338 19.512ZM55.7938 14.6736C55.8898 14.6352 55.9666 14.616 56.0242 14.616L56.2114 14.6304C56.3362 14.64 56.4706 14.6544 56.6146 14.6736C56.7586 14.6928 56.893 14.7072 57.0178 14.7168C57.1426 14.7264 57.2146 14.7312 57.2338 14.7312C57.445 14.7312 57.6082 14.7408 57.7234 14.76C57.8386 14.7792 58.0498 14.8368 58.357 14.9328C58.6642 15.0288 58.9234 15.1776 59.1346 15.3792C59.3458 15.5808 59.509 15.792 59.6242 16.0128C59.7394 16.2336 59.821 16.4496 59.869 16.6608C59.917 16.872 59.941 17.0448 59.941 17.1792C59.941 17.7168 59.869 18.1584 59.725 18.504C59.581 18.8496 59.461 19.1184 59.365 19.3104C59.1346 19.7136 58.981 19.9728 58.9042 20.088C58.8274 20.2032 58.7218 20.3088 58.5874 20.4048C58.5298 20.4624 58.4674 20.5152 58.4002 20.5632C58.333 20.6112 58.2706 20.6736 58.213 20.7504C58.1362 20.7888 58.069 20.8416 58.0114 20.9088C57.9538 20.976 57.8962 21.0288 57.8386 21.0672C57.7618 21.1056 57.6946 21.1344 57.637 21.1536C57.5794 21.1728 57.5122 21.2016 57.4354 21.24C57.2626 21.3168 57.1426 21.3648 57.0754 21.384L56.773 21.4704C56.5618 21.5088 56.4322 21.528 56.3842 21.528H56.2258C56.2066 21.528 56.0818 21.5232 55.8514 21.5136C55.621 21.504 55.4674 21.48 55.3906 21.4416C55.1602 21.3648 55.021 21.24 54.973 21.0672C54.925 20.8944 54.8914 20.7408 54.8722 20.6064C54.8722 20.5488 54.8674 20.4432 54.8578 20.2896C54.8482 20.136 54.8386 19.9728 54.829 19.8C54.8194 19.6272 54.8098 19.464 54.8002 19.3104C54.7906 19.1568 54.7858 19.0512 54.7858 18.9936C54.7858 18.936 54.7906 18.8448 54.8002 18.72C54.8098 18.5952 54.8146 18.4608 54.8146 18.3168C54.8146 18.1728 54.8194 18.0384 54.829 17.9136C54.8386 17.7888 54.8434 17.6976 54.8434 17.64C54.8434 17.5824 54.8386 17.4864 54.829 17.352C54.8194 17.2176 54.8146 17.0736 54.8146 16.92C54.8146 16.7664 54.8098 16.6272 54.8002 16.5024C54.7906 16.3776 54.7858 16.2864 54.7858 16.2288C54.7858 16.056 54.8002 15.9216 54.829 15.8256C54.8578 15.7296 54.9202 15.5568 55.0162 15.3072C55.093 15.1536 55.1554 15.048 55.2034 14.9904C55.2514 14.9328 55.3522 14.8656 55.5058 14.7888L55.7938 14.6736ZM72.4814 10.296C72.539 10.296 72.6926 10.2864 72.9422 10.2672C73.1918 10.248 73.355 10.2384 73.4318 10.2384C73.5086 10.2384 73.6766 10.2336 73.9358 10.224C74.195 10.2144 74.3726 10.2096 74.4686 10.2096C74.5262 10.2096 74.6414 10.2144 74.8142 10.224C74.987 10.2336 75.1694 10.2432 75.3614 10.2528C75.5534 10.2624 75.7358 10.272 75.9086 10.2816C76.0814 10.2912 76.2062 10.296 76.283 10.296C76.379 10.296 76.571 10.2864 76.859 10.2672C77.147 10.248 77.339 10.2384 77.435 10.2384C77.7806 10.2384 78.0302 10.3248 78.1838 10.4976C78.3374 10.6704 78.4142 10.9008 78.4142 11.1888C78.4142 11.2464 78.4094 11.3904 78.3998 11.6208C78.3902 11.8512 78.3854 12.0048 78.3854 12.0816C78.3854 12.1392 78.3902 12.2304 78.3998 12.3552C78.4094 12.48 78.419 12.6144 78.4286 12.7584C78.4382 12.9024 78.4478 13.0368 78.4574 13.1616C78.467 13.2864 78.4718 13.3776 78.4718 13.4352C78.4718 13.608 78.4574 13.728 78.4286 13.7952C78.3998 13.8624 78.3086 13.992 78.155 14.184C78.0782 14.28 78.0254 14.3424 77.9966 14.3712C77.9678 14.4 77.8958 14.4336 77.7806 14.472C77.6654 14.5104 77.5598 14.544 77.4638 14.5728C77.3678 14.6016 77.243 14.616 77.0894 14.616C77.0126 14.616 76.8686 14.6112 76.6574 14.6016C76.4462 14.592 76.3022 14.5872 76.2254 14.5872C76.187 14.5872 76.1054 14.592 75.9806 14.6016C75.8558 14.6112 75.7262 14.616 75.5918 14.616C75.4574 14.616 75.3278 14.6208 75.203 14.6304C75.0782 14.64 74.987 14.6448 74.9294 14.6448C74.795 14.6448 74.6894 14.6352 74.6126 14.616C74.4782 14.616 74.3534 14.6064 74.2382 14.5872C74.123 14.568 73.9982 14.5488 73.8638 14.5296C73.7294 14.5104 73.6046 14.5008 73.4894 14.5008H73.115C72.3086 14.5008 71.7614 14.5872 71.4734 14.76C71.1854 14.9328 71.0414 15.3168 71.0414 15.912C71.0414 16.2576 71.0462 16.5456 71.0558 16.776C71.0654 17.0064 71.099 17.1984 71.1566 17.352C71.2142 17.5056 71.3102 17.6256 71.4446 17.712C71.579 17.7984 71.7614 17.8608 71.9918 17.8992C72.3182 17.9376 72.5294 17.9616 72.6254 17.9712C72.7214 17.9808 72.8654 17.9856 73.0574 17.9856C73.115 17.9856 73.2158 17.9808 73.3598 17.9712C73.5038 17.9616 73.6574 17.952 73.8206 17.9424C73.9838 17.9328 74.1422 17.9232 74.2958 17.9136C74.4494 17.904 74.555 17.8992 74.6126 17.8992C74.651 17.8992 74.7326 17.904 74.8574 17.9136C74.9822 17.9232 75.1166 17.9376 75.2606 17.9568C75.4046 17.976 75.539 17.9904 75.6638 18C75.7886 18.0096 75.8798 18.0144 75.9374 18.0144C76.1294 18.0144 76.3214 18.0048 76.5134 17.9856C76.7054 17.9664 76.8974 17.9568 77.0894 17.9568H77.5214C77.6942 17.9568 77.819 17.976 77.8958 18.0144C77.9342 18.0528 78.0302 18.1392 78.1838 18.2736C78.3374 18.408 78.4142 18.6096 78.4142 18.8784C78.395 19.0128 78.3854 19.128 78.3854 19.224C78.3854 19.32 78.3806 19.4112 78.371 19.4976C78.3614 19.584 78.3566 19.6464 78.3566 19.6848C78.3374 19.9152 78.3278 20.088 78.3278 20.2032V20.8368C78.3278 20.952 78.323 21.0384 78.3134 21.096C78.3038 21.1536 78.2894 21.2592 78.2702 21.4128C78.251 21.5088 78.227 21.6144 78.1982 21.7296C78.1694 21.8448 78.1118 21.9552 78.0254 22.0608C77.939 22.1664 77.819 22.2576 77.6654 22.3344C77.5118 22.4112 77.291 22.4496 77.003 22.4496H75.5342C75.4766 22.4496 75.3518 22.4448 75.1598 22.4352C74.9678 22.4256 74.843 22.4208 74.7854 22.4208C74.747 22.4208 74.6462 22.4256 74.483 22.4352C74.3198 22.4448 74.219 22.4496 74.1806 22.4496C74.123 22.4496 73.9742 22.4352 73.7342 22.4064C73.4942 22.3776 73.3358 22.3632 73.259 22.3632C73.1054 22.3632 72.9614 22.3728 72.827 22.392C72.6926 22.4112 72.5486 22.4208 72.395 22.4208H72.1646C72.0686 22.4208 71.9582 22.4352 71.8334 22.464C71.7086 22.4928 71.6174 22.5264 71.5598 22.5648C71.4254 22.6224 71.3246 22.704 71.2574 22.8096C71.1902 22.9152 71.1422 23.0304 71.1134 23.1552C71.0846 23.28 71.0654 23.4 71.0558 23.5152C71.0462 23.6304 71.0414 23.7168 71.0414 23.7744C71.0414 24.2352 71.051 24.624 71.0702 24.9408C71.0894 25.2576 71.171 25.512 71.315 25.704C71.459 25.896 71.6894 26.0352 72.0062 26.1216C72.323 26.208 72.7694 26.2512 73.3454 26.2512C73.4414 26.2512 73.6382 26.2464 73.9358 26.2368C74.2334 26.2272 74.4302 26.2224 74.5262 26.2224C74.603 26.2224 74.7614 26.2272 75.0014 26.2368C75.2414 26.2464 75.4094 26.2512 75.5054 26.2512H75.8078C75.9518 26.2512 76.1054 26.2464 76.2686 26.2368C76.4318 26.2272 76.5854 26.2176 76.7294 26.208C76.8734 26.1984 76.9742 26.1936 77.0318 26.1936C77.1278 26.1744 77.2286 26.1648 77.3342 26.1648H77.6366C77.7134 26.1648 77.8958 26.1936 78.1838 26.2512C78.4718 26.3088 78.683 26.4624 78.8174 26.712C78.9134 26.9232 78.971 27.144 78.9902 27.3744C79.0094 27.6048 79.019 27.7872 79.019 27.9216V28.1232C79.0382 28.2576 79.0622 28.392 79.091 28.5264C79.1198 28.6608 79.1438 28.7952 79.163 28.9296V29.6784C79.163 29.7744 79.1582 29.8752 79.1486 29.9808C79.139 30.0864 79.1006 30.1872 79.0334 30.2832C78.9662 30.3792 78.8654 30.4608 78.731 30.528C78.5966 30.5952 78.4142 30.6288 78.1838 30.6288C78.1454 30.6288 78.083 30.624 77.9966 30.6144C77.9102 30.6048 77.819 30.6 77.723 30.6C77.627 30.5808 77.5262 30.5712 77.4206 30.5712H77.2046C77.1662 30.5712 77.0846 30.576 76.9598 30.5856C76.835 30.5952 76.6958 30.6 76.5422 30.6C76.3886 30.6192 76.2494 30.6336 76.1246 30.6432C75.9998 30.6528 75.9086 30.6576 75.851 30.6576C75.8126 30.6576 75.731 30.6528 75.6062 30.6432C75.4814 30.6336 75.3422 30.6288 75.1886 30.6288C75.035 30.6096 74.8958 30.6 74.771 30.6H74.4974C74.4782 30.6 74.3438 30.6048 74.0942 30.6144C73.8446 30.624 73.5662 30.6288 73.259 30.6288C72.9326 30.648 72.6302 30.6624 72.3518 30.672C72.0734 30.6816 71.8958 30.6864 71.819 30.6864C71.723 30.6864 71.5598 30.6816 71.3294 30.672C71.099 30.6624 70.8494 30.648 70.5806 30.6288C70.3118 30.6288 70.0574 30.624 69.8174 30.6144C69.5774 30.6048 69.4094 30.6 69.3134 30.6H68.3918C68.1998 30.6192 68.0174 30.6288 67.8446 30.6288H67.4702C67.3934 30.6288 67.2734 30.6192 67.1102 30.6C66.947 30.5808 66.7886 30.504 66.635 30.3696C66.5198 30.2736 66.4142 30.12 66.3182 29.9088C66.2222 29.6976 66.1742 29.4864 66.1742 29.2752C66.1742 29.2176 66.179 29.088 66.1886 28.8864C66.1982 28.6848 66.203 28.5552 66.203 28.4976C66.203 28.3248 66.1934 28.1568 66.1742 27.9936C66.155 27.8304 66.1454 27.6624 66.1454 27.4896V26.9712C66.1454 26.9136 66.1406 26.8272 66.131 26.712C66.1214 26.5968 66.1166 26.4672 66.1166 26.3232C66.1166 26.1792 66.1118 26.0496 66.1022 25.9344C66.0926 25.8192 66.0878 25.7328 66.0878 25.6752C66.0878 25.4256 66.0926 25.1376 66.1022 24.8112C66.1118 24.4848 66.1166 24.1968 66.1166 23.9472C66.1166 23.8896 66.1214 23.7648 66.131 23.5728C66.1406 23.3808 66.1454 23.256 66.1454 23.1984V22.968C66.1454 22.8528 66.1406 22.7328 66.131 22.608C66.1214 22.4832 66.1166 22.3632 66.1166 22.248V21.9888C66.1166 21.912 66.1118 21.7392 66.1022 21.4704C66.0926 21.2016 66.0878 21.0192 66.0878 20.9232V18.6912C66.0878 18.624 66.0974 18.5424 66.1166 18.4464C66.1166 18.3888 66.1262 18.2592 66.1454 18.0576C66.1646 17.856 66.1742 17.7264 66.1742 17.6688C66.1742 17.5728 66.1598 17.3712 66.131 17.064C66.1022 16.7568 66.0878 16.5552 66.0878 16.4592C66.0878 16.2288 66.0974 16.0032 66.1166 15.7824C66.1358 15.5616 66.1454 15.3456 66.1454 15.1344C66.1454 15.096 66.1502 15.0048 66.1598 14.8608C66.1694 14.7168 66.1742 14.5632 66.1742 14.4C66.1742 14.2368 66.179 14.0832 66.1886 13.9392C66.1982 13.7952 66.203 13.704 66.203 13.6656C66.203 13.608 66.1982 13.512 66.1886 13.3776C66.179 13.2432 66.1694 13.0944 66.1598 12.9312C66.1502 12.768 66.1406 12.6192 66.131 12.4848C66.1214 12.3504 66.1166 12.2544 66.1166 12.1968C66.1166 11.7552 66.131 11.4576 66.1598 11.304C66.1886 11.1504 66.2222 11.0448 66.2606 10.9872C66.299 10.8912 66.395 10.7472 66.5486 10.5552C66.7022 10.3632 66.9422 10.2672 67.2686 10.2672C67.3646 10.2672 67.547 10.272 67.8158 10.2816C68.0846 10.2912 68.267 10.296 68.363 10.296C68.4206 10.296 68.5262 10.2912 68.6798 10.2816C68.8334 10.272 68.9966 10.2672 69.1694 10.2672C69.3422 10.2672 69.5102 10.2624 69.6734 10.2528C69.8366 10.2432 69.947 10.2384 70.0046 10.2384C70.0622 10.2384 70.1582 10.2432 70.2926 10.2528C70.427 10.2624 70.5662 10.2672 70.7102 10.2672C70.8542 10.2672 70.9934 10.272 71.1278 10.2816C71.2622 10.2912 71.3582 10.296 71.4158 10.296H72.4814ZM80.2985 18.9504C80.2793 19.1904 80.2697 19.3392 80.2697 19.3968C80.2697 19.4544 80.2745 19.56 80.2841 19.7136C80.2937 19.8672 80.2985 19.9632 80.2985 20.0016C80.2985 20.2128 80.2889 20.4096 80.2697 20.592C80.2505 20.7744 80.2409 20.9712 80.2409 21.1824C80.2409 21.2784 80.2457 21.4608 80.2553 21.7296C80.2649 21.9984 80.2697 22.1712 80.2697 22.248V23.7312C80.2697 23.8944 80.2745 24.072 80.2841 24.264C80.2937 24.456 80.2985 24.6336 80.2985 24.7968V25.128C80.2985 25.4352 80.2841 25.7376 80.2553 26.0352C80.2265 26.3328 80.2121 26.6448 80.2121 26.9712C80.2121 27.048 80.2169 27.2064 80.2265 27.4464C80.2361 27.6864 80.2409 27.8448 80.2409 27.9216V28.2528C80.2409 28.416 80.2361 28.5888 80.2265 28.7712C80.2169 28.9536 80.2121 29.1216 80.2121 29.2752V29.592C80.2121 29.7072 80.2217 29.7984 80.2409 29.8656C80.2601 29.9328 80.3081 30.0432 80.3849 30.1968C80.4809 30.3504 80.5769 30.4704 80.6729 30.5568C80.7689 30.6432 80.9897 30.6864 81.3353 30.6864C81.3929 30.6864 81.4793 30.6816 81.5945 30.672C81.7097 30.6624 81.8249 30.648 81.9401 30.6288C82.0745 30.6288 82.1993 30.624 82.3145 30.6144C82.4297 30.6048 82.5065 30.6 82.5449 30.6C82.6025 30.6 82.7081 30.6048 82.8617 30.6144C83.0153 30.624 83.1689 30.6288 83.3225 30.6288C83.4761 30.648 83.6249 30.6624 83.7689 30.672C83.9129 30.6816 84.0041 30.6864 84.0425 30.6864C84.2345 30.6864 84.4361 30.624 84.6473 30.4992C84.8585 30.3744 84.9641 30.1584 84.9641 29.8512C84.9641 29.7936 84.9593 29.6544 84.9497 29.4336C84.9401 29.2128 84.9353 29.0736 84.9353 29.016C84.9353 28.9008 84.9305 28.7184 84.9209 28.4688C84.9113 28.2192 84.9065 27.9504 84.9065 27.6624C84.9065 27.3744 84.9017 27.1056 84.8921 26.856C84.8825 26.6064 84.8777 26.4336 84.8777 26.3376C84.8777 26.28 84.8873 26.1888 84.9065 26.064C84.9257 25.9392 84.9401 25.8048 84.9497 25.6608C84.9593 25.5168 84.9737 25.3824 84.9929 25.2576C85.0121 25.1328 85.0217 25.0416 85.0217 24.984C85.0217 24.888 85.0169 24.6864 85.0073 24.3792C84.9977 24.072 84.9929 23.8704 84.9929 23.7744V22.248C84.9929 21.8256 85.0409 21.528 85.1369 21.3552C85.2329 21.1824 85.2809 21.0864 85.2809 21.0672C85.3385 21.0096 85.4297 20.9616 85.5545 20.9232C85.6793 20.8848 85.7897 20.8656 85.8857 20.8656C86.0393 20.8656 86.2025 20.952 86.3753 21.1248C86.5481 21.2976 86.7881 21.6048 87.0953 22.0464C87.1529 22.1232 87.2057 22.1952 87.2537 22.2624C87.3017 22.3296 87.3545 22.392 87.4121 22.4496C87.4505 22.5072 87.4985 22.56 87.5561 22.608C87.6137 22.656 87.6713 22.7088 87.7289 22.7664C87.8249 22.8816 87.9449 23.0208 88.0889 23.184C88.2329 23.3472 88.3721 23.5152 88.5065 23.688C88.6409 23.8608 88.7705 24.0288 88.8953 24.192C89.0201 24.3552 89.1209 24.4944 89.1977 24.6096C89.3513 24.8208 89.4569 24.9552 89.5145 25.0128C89.5721 25.0704 89.6873 25.1472 89.8601 25.2432C89.9945 25.32 90.1097 25.3584 90.2057 25.3584C90.4745 25.3584 90.6857 25.3008 90.8393 25.1856C90.9929 25.0704 91.2137 24.8016 91.5017 24.3792C91.6361 24.1872 91.7417 24.0528 91.8185 23.976L92.2505 23.544C92.4041 23.3904 92.5385 23.2368 92.6537 23.0832C92.7689 22.9296 92.8937 22.776 93.0281 22.6224C93.1241 22.488 93.2873 22.3056 93.5177 22.0752C93.7481 21.8448 93.9977 21.7296 94.2665 21.7296C94.3817 21.7296 94.4921 21.7872 94.5977 21.9024C94.7033 22.0176 94.7561 22.1232 94.7561 22.2192C94.7561 22.2576 94.7657 22.344 94.7849 22.4784C94.8041 22.6128 94.8137 22.6992 94.8137 22.7376V23.7168C94.8137 23.8128 94.8041 23.9856 94.7849 24.2352C94.7657 24.4848 94.7561 24.648 94.7561 24.7248C94.7561 24.8592 94.7609 24.9936 94.7705 25.128C94.7801 25.2624 94.7849 25.3968 94.7849 25.5312C94.7849 25.6272 94.7753 25.8192 94.7561 26.1072C94.7369 26.3952 94.7273 26.5872 94.7273 26.6832C94.7273 26.76 94.7321 26.928 94.7417 27.1872C94.7513 27.4464 94.7561 27.624 94.7561 27.72C94.7561 27.7776 94.7513 27.8688 94.7417 27.9936C94.7321 28.1184 94.7273 28.248 94.7273 28.3824C94.7273 28.5168 94.7225 28.6464 94.7129 28.7712C94.7033 28.896 94.6985 28.9776 94.6985 29.016C94.6985 29.0736 94.7081 29.2032 94.7273 29.4048C94.7465 29.6064 94.7561 29.736 94.7561 29.7936C94.7561 30.12 94.8377 30.3408 95.0009 30.456C95.1641 30.5712 95.3033 30.6288 95.4185 30.6288C95.4761 30.6288 95.5913 30.624 95.7641 30.6144C95.9369 30.6048 96.0425 30.6 96.0809 30.6H97.1609C97.2857 30.6 97.4153 30.6048 97.5497 30.6144C97.6841 30.624 97.8137 30.6288 97.9385 30.6288H98.2121C98.6537 30.6288 98.9945 30.5472 99.2345 30.384C99.4745 30.2208 99.5945 29.976 99.5945 29.6496V29.3616C99.5945 29.304 99.5993 29.1936 99.6089 29.0304C99.6185 28.8672 99.6233 28.7664 99.6233 28.728C99.6233 28.6704 99.6137 28.5696 99.5945 28.4256C99.5753 28.2816 99.5609 28.1328 99.5513 27.9792C99.5417 27.8256 99.5273 27.6816 99.5081 27.5472C99.4889 27.4128 99.4793 27.3168 99.4793 27.2592C99.4793 27.2016 99.4889 27.1008 99.5081 26.9568C99.5273 26.8128 99.5465 26.6592 99.5657 26.496C99.5849 26.3328 99.6041 26.184 99.6233 26.0496C99.6425 25.9152 99.6521 25.8192 99.6521 25.7616V24.9696C99.6521 24.768 99.6569 24.5616 99.6665 24.3504C99.6761 24.1392 99.6809 23.9376 99.6809 23.7456V23.3424C99.6809 23.2272 99.6761 23.04 99.6665 22.7808C99.6569 22.5216 99.6473 22.248 99.6377 21.96C99.6281 21.672 99.6185 21.4032 99.6089 21.1536C99.5993 20.904 99.5945 20.7312 99.5945 20.6352C99.5945 20.5392 99.5993 20.352 99.6089 20.0736C99.6185 19.7952 99.6233 19.6176 99.6233 19.5408C99.6233 19.4256 99.6185 19.248 99.6089 19.008C99.5993 18.768 99.5849 18.5088 99.5657 18.2304C99.5465 17.952 99.5321 17.6928 99.5225 17.4528C99.5129 17.2128 99.5081 17.0448 99.5081 16.9488C99.5081 16.8912 99.5129 16.8 99.5225 16.6752C99.5321 16.5504 99.5465 16.4208 99.5657 16.2864C99.5849 16.152 99.5993 16.0224 99.6089 15.8976C99.6185 15.7728 99.6233 15.6912 99.6233 15.6528V12.9312C99.6233 12.672 99.6329 12.408 99.6521 12.1392C99.6521 12.0624 99.6617 11.904 99.6809 11.664C99.7001 11.424 99.7097 11.2848 99.7097 11.2464C99.7097 11.0544 99.6185 10.8576 99.4361 10.656C99.2537 10.4544 99.0281 10.3536 98.7593 10.3536C98.7209 10.3536 98.6201 10.344 98.4569 10.3248C98.2937 10.3056 98.1833 10.296 98.1257 10.296C98.0105 10.296 97.8905 10.3056 97.7657 10.3248C97.6409 10.344 97.5113 10.3536 97.3769 10.3536C97.3193 10.3536 97.2233 10.3488 97.0889 10.3392C96.9545 10.3296 96.8057 10.3248 96.6425 10.3248C96.4793 10.3248 96.3305 10.32 96.1961 10.3104C96.0617 10.3008 95.9657 10.296 95.9081 10.296C95.6969 10.296 95.5145 10.3488 95.3609 10.4544C95.2073 10.56 95.1113 10.632 95.0729 10.6704C95.0345 10.728 94.9961 10.7904 94.9577 10.8576C94.9193 10.9248 94.8809 10.9968 94.8425 11.0736C94.7465 11.2464 94.6505 11.4 94.5545 11.5344C94.4201 11.7456 94.3049 11.9664 94.2089 12.1968C94.1129 12.4272 94.0073 12.6576 93.8921 12.888L93.6041 13.4064C93.5081 13.5792 93.4121 13.7616 93.3161 13.9536C93.2777 14.0304 93.2345 14.1072 93.1865 14.184C93.1385 14.2608 93.0953 14.3472 93.0569 14.4432C92.9609 14.5968 92.8601 14.7408 92.7545 14.8752C92.6489 15.0096 92.5481 15.1536 92.4521 15.3072L92.1065 15.8832L91.9049 16.1856C91.8089 16.3296 91.7081 16.4784 91.6025 16.632C91.4969 16.7856 91.3961 16.9296 91.3001 17.064C91.2041 17.1984 91.1369 17.2944 91.0985 17.352C91.0025 17.5248 90.8777 17.7168 90.7241 17.928C90.5705 18.1392 90.3881 18.2448 90.1769 18.2448C90.0041 18.2448 89.8169 18.1296 89.6153 17.8992C89.4137 17.6688 89.2361 17.448 89.0825 17.2368C88.8905 16.9872 88.6697 16.6992 88.4201 16.3728C88.1705 16.0464 87.9593 15.7584 87.7865 15.5088C87.7289 15.432 87.6137 15.2736 87.4409 15.0336C87.2681 14.7936 87.1529 14.6352 87.0953 14.5584L86.8649 14.2704C86.7881 14.1744 86.7209 14.0784 86.6633 13.9824C86.6057 13.8864 86.5529 13.7904 86.5049 13.6944C86.4569 13.5984 86.4041 13.5024 86.3465 13.4064C86.2121 13.1952 86.0489 12.9504 85.8569 12.672C85.6649 12.3936 85.5017 12.1488 85.3673 11.9376C85.1177 11.5344 84.9161 11.2176 84.7625 10.9872C84.6089 10.7568 84.4697 10.584 84.3449 10.4688C84.2201 10.3536 84.0953 10.2864 83.9705 10.2672C83.8457 10.248 83.6969 10.2384 83.5241 10.2384C83.4089 10.2576 83.3129 10.2672 83.2361 10.2672C83.1977 10.2672 83.1641 10.272 83.1353 10.2816C83.1065 10.2912 83.0729 10.296 83.0345 10.296H82.7033C82.5785 10.296 82.4393 10.3008 82.2857 10.3104C82.1321 10.32 81.9833 10.3248 81.8393 10.3248H81.4217L81.3929 10.296H81.1913C81.0185 10.296 80.8649 10.344 80.7305 10.44C80.5001 10.5936 80.3465 10.728 80.2697 10.8432C80.1929 10.9584 80.1545 11.1216 80.1545 11.3328C80.1545 11.3712 80.1593 11.5152 80.1689 11.7648C80.1785 12.0144 80.1929 12.2928 80.2121 12.6C80.2313 12.9072 80.2505 13.2 80.2697 13.4784C80.2889 13.7568 80.2985 13.9536 80.2985 14.0688V15.0192C80.3177 15.0768 80.3321 15.1968 80.3417 15.3792C80.3513 15.5616 80.3561 15.6816 80.3561 15.7392C80.3561 15.7776 80.3513 15.8784 80.3417 16.0416C80.3321 16.2048 80.3273 16.3056 80.3273 16.344C80.3273 16.4208 80.3321 16.5552 80.3417 16.7472C80.3513 16.9392 80.3561 17.064 80.3561 17.1216V17.3664C80.3561 17.4912 80.3513 17.6304 80.3417 17.784C80.3321 17.9376 80.3273 18.0768 80.3273 18.2016V18.4464C80.3273 18.5424 80.3177 18.7104 80.2985 18.9504ZM108.045 10.296C108.103 10.296 108.256 10.2864 108.506 10.2672C108.756 10.248 108.919 10.2384 108.996 10.2384C109.072 10.2384 109.24 10.2336 109.5 10.224C109.759 10.2144 109.936 10.2096 110.032 10.2096C110.09 10.2096 110.205 10.2144 110.378 10.224C110.551 10.2336 110.733 10.2432 110.925 10.2528C111.117 10.2624 111.3 10.272 111.472 10.2816C111.645 10.2912 111.77 10.296 111.847 10.296C111.943 10.296 112.135 10.2864 112.423 10.2672C112.711 10.248 112.903 10.2384 112.999 10.2384C113.344 10.2384 113.594 10.3248 113.748 10.4976C113.901 10.6704 113.978 10.9008 113.978 11.1888C113.978 11.2464 113.973 11.3904 113.964 11.6208C113.954 11.8512 113.949 12.0048 113.949 12.0816C113.949 12.1392 113.954 12.2304 113.964 12.3552C113.973 12.48 113.983 12.6144 113.992 12.7584C114.002 12.9024 114.012 13.0368 114.021 13.1616C114.031 13.2864 114.036 13.3776 114.036 13.4352C114.036 13.608 114.021 13.728 113.992 13.7952C113.964 13.8624 113.872 13.992 113.719 14.184C113.642 14.28 113.589 14.3424 113.56 14.3712C113.532 14.4 113.46 14.4336 113.344 14.472C113.229 14.5104 113.124 14.544 113.028 14.5728C112.932 14.6016 112.807 14.616 112.653 14.616C112.576 14.616 112.432 14.6112 112.221 14.6016C112.01 14.592 111.866 14.5872 111.789 14.5872C111.751 14.5872 111.669 14.592 111.544 14.6016C111.42 14.6112 111.29 14.616 111.156 14.616C111.021 14.616 110.892 14.6208 110.767 14.6304C110.642 14.64 110.551 14.6448 110.493 14.6448C110.359 14.6448 110.253 14.6352 110.176 14.616C110.042 14.616 109.917 14.6064 109.802 14.5872C109.687 14.568 109.562 14.5488 109.428 14.5296C109.293 14.5104 109.168 14.5008 109.053 14.5008H108.679C107.872 14.5008 107.325 14.5872 107.037 14.76C106.749 14.9328 106.605 15.3168 106.605 15.912C106.605 16.2576 106.61 16.5456 106.62 16.776C106.629 17.0064 106.663 17.1984 106.72 17.352C106.778 17.5056 106.874 17.6256 107.008 17.712C107.143 17.7984 107.325 17.8608 107.556 17.8992C107.882 17.9376 108.093 17.9616 108.189 17.9712C108.285 17.9808 108.429 17.9856 108.621 17.9856C108.679 17.9856 108.78 17.9808 108.924 17.9712C109.068 17.9616 109.221 17.952 109.384 17.9424C109.548 17.9328 109.706 17.9232 109.86 17.9136C110.013 17.904 110.119 17.8992 110.176 17.8992C110.215 17.8992 110.296 17.904 110.421 17.9136C110.546 17.9232 110.68 17.9376 110.824 17.9568C110.968 17.976 111.103 17.9904 111.228 18C111.352 18.0096 111.444 18.0144 111.501 18.0144C111.693 18.0144 111.885 18.0048 112.077 17.9856C112.269 17.9664 112.461 17.9568 112.653 17.9568H113.085C113.258 17.9568 113.383 17.976 113.46 18.0144C113.498 18.0528 113.594 18.1392 113.748 18.2736C113.901 18.408 113.978 18.6096 113.978 18.8784C113.959 19.0128 113.949 19.128 113.949 19.224C113.949 19.32 113.944 19.4112 113.935 19.4976C113.925 19.584 113.92 19.6464 113.92 19.6848C113.901 19.9152 113.892 20.088 113.892 20.2032V20.8368C113.892 20.952 113.887 21.0384 113.877 21.096C113.868 21.1536 113.853 21.2592 113.834 21.4128C113.815 21.5088 113.791 21.6144 113.762 21.7296C113.733 21.8448 113.676 21.9552 113.589 22.0608C113.503 22.1664 113.383 22.2576 113.229 22.3344C113.076 22.4112 112.855 22.4496 112.567 22.4496H111.098C111.04 22.4496 110.916 22.4448 110.724 22.4352C110.532 22.4256 110.407 22.4208 110.349 22.4208C110.311 22.4208 110.21 22.4256 110.047 22.4352C109.884 22.4448 109.783 22.4496 109.744 22.4496C109.687 22.4496 109.538 22.4352 109.298 22.4064C109.058 22.3776 108.9 22.3632 108.823 22.3632C108.669 22.3632 108.525 22.3728 108.391 22.392C108.256 22.4112 108.112 22.4208 107.959 22.4208H107.728C107.632 22.4208 107.522 22.4352 107.397 22.464C107.272 22.4928 107.181 22.5264 107.124 22.5648C106.989 22.6224 106.888 22.704 106.821 22.8096C106.754 22.9152 106.706 23.0304 106.677 23.1552C106.648 23.28 106.629 23.4 106.62 23.5152C106.61 23.6304 106.605 23.7168 106.605 23.7744C106.605 24.2352 106.615 24.624 106.634 24.9408C106.653 25.2576 106.735 25.512 106.879 25.704C107.023 25.896 107.253 26.0352 107.57 26.1216C107.887 26.208 108.333 26.2512 108.909 26.2512C109.005 26.2512 109.202 26.2464 109.5 26.2368C109.797 26.2272 109.994 26.2224 110.09 26.2224C110.167 26.2224 110.325 26.2272 110.565 26.2368C110.805 26.2464 110.973 26.2512 111.069 26.2512H111.372C111.516 26.2512 111.669 26.2464 111.832 26.2368C111.996 26.2272 112.149 26.2176 112.293 26.208C112.437 26.1984 112.538 26.1936 112.596 26.1936C112.692 26.1744 112.792 26.1648 112.898 26.1648H113.2C113.277 26.1648 113.46 26.1936 113.748 26.2512C114.036 26.3088 114.247 26.4624 114.381 26.712C114.477 26.9232 114.535 27.144 114.554 27.3744C114.573 27.6048 114.583 27.7872 114.583 27.9216V28.1232C114.602 28.2576 114.626 28.392 114.655 28.5264C114.684 28.6608 114.708 28.7952 114.727 28.9296V29.6784C114.727 29.7744 114.722 29.8752 114.712 29.9808C114.703 30.0864 114.664 30.1872 114.597 30.2832C114.53 30.3792 114.429 30.4608 114.295 30.528C114.16 30.5952 113.978 30.6288 113.748 30.6288C113.709 30.6288 113.647 30.624 113.56 30.6144C113.474 30.6048 113.383 30.6 113.287 30.6C113.191 30.5808 113.09 30.5712 112.984 30.5712H112.768C112.73 30.5712 112.648 30.576 112.524 30.5856C112.399 30.5952 112.26 30.6 112.106 30.6C111.952 30.6192 111.813 30.6336 111.688 30.6432C111.564 30.6528 111.472 30.6576 111.415 30.6576C111.376 30.6576 111.295 30.6528 111.17 30.6432C111.045 30.6336 110.906 30.6288 110.752 30.6288C110.599 30.6096 110.46 30.6 110.335 30.6H110.061C110.042 30.6 109.908 30.6048 109.658 30.6144C109.408 30.624 109.13 30.6288 108.823 30.6288C108.496 30.648 108.194 30.6624 107.916 30.672C107.637 30.6816 107.46 30.6864 107.383 30.6864C107.287 30.6864 107.124 30.6816 106.893 30.672C106.663 30.6624 106.413 30.648 106.144 30.6288C105.876 30.6288 105.621 30.624 105.381 30.6144C105.141 30.6048 104.973 30.6 104.877 30.6H103.956C103.764 30.6192 103.581 30.6288 103.408 30.6288H103.034C102.957 30.6288 102.837 30.6192 102.674 30.6C102.511 30.5808 102.352 30.504 102.199 30.3696C102.084 30.2736 101.978 30.12 101.882 29.9088C101.786 29.6976 101.738 29.4864 101.738 29.2752C101.738 29.2176 101.743 29.088 101.752 28.8864C101.762 28.6848 101.767 28.5552 101.767 28.4976C101.767 28.3248 101.757 28.1568 101.738 27.9936C101.719 27.8304 101.709 27.6624 101.709 27.4896V26.9712C101.709 26.9136 101.704 26.8272 101.695 26.712C101.685 26.5968 101.68 26.4672 101.68 26.3232C101.68 26.1792 101.676 26.0496 101.666 25.9344C101.656 25.8192 101.652 25.7328 101.652 25.6752C101.652 25.4256 101.656 25.1376 101.666 24.8112C101.676 24.4848 101.68 24.1968 101.68 23.9472C101.68 23.8896 101.685 23.7648 101.695 23.5728C101.704 23.3808 101.709 23.256 101.709 23.1984V22.968C101.709 22.8528 101.704 22.7328 101.695 22.608C101.685 22.4832 101.68 22.3632 101.68 22.248V21.9888C101.68 21.912 101.676 21.7392 101.666 21.4704C101.656 21.2016 101.652 21.0192 101.652 20.9232V18.6912C101.652 18.624 101.661 18.5424 101.68 18.4464C101.68 18.3888 101.69 18.2592 101.709 18.0576C101.728 17.856 101.738 17.7264 101.738 17.6688C101.738 17.5728 101.724 17.3712 101.695 17.064C101.666 16.7568 101.652 16.5552 101.652 16.4592C101.652 16.2288 101.661 16.0032 101.68 15.7824C101.7 15.5616 101.709 15.3456 101.709 15.1344C101.709 15.096 101.714 15.0048 101.724 14.8608C101.733 14.7168 101.738 14.5632 101.738 14.4C101.738 14.2368 101.743 14.0832 101.752 13.9392C101.762 13.7952 101.767 13.704 101.767 13.6656C101.767 13.608 101.762 13.512 101.752 13.3776C101.743 13.2432 101.733 13.0944 101.724 12.9312C101.714 12.768 101.704 12.6192 101.695 12.4848C101.685 12.3504 101.68 12.2544 101.68 12.1968C101.68 11.7552 101.695 11.4576 101.724 11.304C101.752 11.1504 101.786 11.0448 101.824 10.9872C101.863 10.8912 101.959 10.7472 102.112 10.5552C102.266 10.3632 102.506 10.2672 102.832 10.2672C102.928 10.2672 103.111 10.272 103.38 10.2816C103.648 10.2912 103.831 10.296 103.927 10.296C103.984 10.296 104.09 10.2912 104.244 10.2816C104.397 10.272 104.56 10.2672 104.733 10.2672C104.906 10.2672 105.074 10.2624 105.237 10.2528C105.4 10.2432 105.511 10.2384 105.568 10.2384C105.626 10.2384 105.722 10.2432 105.856 10.2528C105.991 10.2624 106.13 10.2672 106.274 10.2672C106.418 10.2672 106.557 10.272 106.692 10.2816C106.826 10.2912 106.922 10.296 106.98 10.296H108.045ZM125.726 13.3776C125.717 13.1664 125.712 13.032 125.712 12.9744V12.3696C125.712 12.3312 125.707 12.2208 125.698 12.0384C125.688 11.856 125.683 11.7456 125.683 11.7072C125.683 11.6496 125.693 11.5344 125.712 11.3616C125.731 11.1888 125.731 11.0832 125.712 11.0448C125.674 10.8912 125.611 10.7808 125.525 10.7136C125.438 10.6464 125.261 10.5648 124.992 10.4688C124.762 10.392 124.358 10.3056 123.782 10.2096C123.206 10.1136 122.65 10.0656 122.112 10.0656C121.939 10.0656 121.733 10.0752 121.493 10.0944C121.253 10.1136 121.018 10.1328 120.787 10.152C120.557 10.1712 120.35 10.1952 120.168 10.224C119.986 10.2528 119.875 10.2672 119.837 10.2672C119.741 10.2864 119.582 10.3248 119.362 10.3824C119.141 10.44 118.891 10.5168 118.613 10.6128C118.334 10.7088 118.051 10.8336 117.763 10.9872C117.475 11.1408 117.216 11.3136 116.986 11.5056C116.582 11.8512 116.29 12.2064 116.107 12.5712C115.925 12.936 115.786 13.2528 115.69 13.5216C115.651 13.6368 115.613 13.7472 115.574 13.8528C115.536 13.9584 115.507 14.0784 115.488 14.2128C115.469 14.3472 115.454 14.5104 115.445 14.7024C115.435 14.8944 115.43 15.144 115.43 15.4512C115.43 15.624 115.435 15.7776 115.445 15.912C115.454 16.0464 115.474 16.1856 115.502 16.3296C115.531 16.4736 115.565 16.632 115.603 16.8048C115.642 16.9776 115.699 17.1888 115.776 17.4384C115.853 17.7072 115.93 17.9472 116.006 18.1584C116.083 18.3696 116.256 18.6672 116.525 19.0512C116.64 19.2432 116.77 19.416 116.914 19.5696C117.058 19.7232 117.197 19.848 117.331 19.944C117.408 20.0208 117.533 20.1408 117.706 20.304C117.878 20.4672 118.066 20.64 118.267 20.8224C118.469 21.0048 118.661 21.1728 118.843 21.3264C119.026 21.48 119.155 21.5856 119.232 21.6432C119.29 21.6816 119.419 21.7632 119.621 21.888C119.822 22.0128 119.942 22.0944 119.981 22.1328C120.038 22.1712 120.154 22.272 120.326 22.4352C120.499 22.5984 120.605 22.6992 120.643 22.7376C120.893 22.9296 121.061 23.0832 121.147 23.1984C121.234 23.3136 121.325 23.4768 121.421 23.688C121.459 23.8224 121.493 23.9376 121.522 24.0336C121.55 24.1296 121.565 24.2544 121.565 24.408C121.565 24.792 121.498 25.0848 121.363 25.2864C121.229 25.488 121.066 25.6368 120.874 25.7328C120.682 25.8288 120.494 25.8864 120.312 25.9056C120.13 25.9248 120 25.9344 119.923 25.9344H119.664C119.53 25.9344 119.386 25.9296 119.232 25.92C119.078 25.9104 118.939 25.9056 118.814 25.9056H118.627C118.531 25.8864 118.45 25.8672 118.382 25.848C118.315 25.8288 118.243 25.8 118.166 25.7616C117.898 25.6656 117.667 25.608 117.475 25.5888C117.283 25.5696 117.12 25.56 116.986 25.56C116.621 25.56 116.294 25.5888 116.006 25.6464C115.718 25.704 115.574 25.896 115.574 26.2224C115.574 26.28 115.584 26.3952 115.603 26.568C115.622 26.7408 115.632 26.8464 115.632 26.8848C115.632 26.9424 115.627 27.024 115.618 27.1296C115.608 27.2352 115.598 27.3504 115.589 27.4752C115.579 27.6 115.57 27.72 115.56 27.8352C115.55 27.9504 115.546 28.0272 115.546 28.0656C115.546 28.1808 115.55 28.296 115.56 28.4112C115.57 28.5264 115.574 28.6512 115.574 28.7856C115.574 28.8432 115.57 28.9776 115.56 29.1888C115.55 29.4 115.546 29.5344 115.546 29.592C115.546 29.7264 115.574 29.8416 115.632 29.9376C115.69 30.0336 115.824 30.1392 116.035 30.2544C116.323 30.408 116.592 30.504 116.842 30.5424C117.091 30.5808 117.437 30.6192 117.878 30.6576C117.936 30.6576 118.032 30.6672 118.166 30.6864C118.301 30.7056 118.445 30.7248 118.598 30.744C118.752 30.7632 118.896 30.7776 119.03 30.7872C119.165 30.7968 119.261 30.8016 119.318 30.8016C119.395 30.8016 119.472 30.7968 119.549 30.7872C119.626 30.7776 119.712 30.7728 119.808 30.7728C119.866 30.7728 119.981 30.768 120.154 30.7584C120.326 30.7488 120.504 30.7392 120.686 30.7296C120.869 30.72 121.042 30.7104 121.205 30.7008C121.368 30.6912 121.478 30.6864 121.536 30.6864C121.709 30.648 121.925 30.5808 122.184 30.4848C122.443 30.3888 122.693 30.288 122.933 30.1824C123.173 30.0768 123.379 29.9808 123.552 29.8944L123.811 29.7648C123.85 29.7456 124.027 29.6064 124.344 29.3472C124.661 29.088 124.954 28.7952 125.222 28.4688C125.318 28.3536 125.434 28.2096 125.568 28.0368C125.702 27.864 125.798 27.7296 125.856 27.6336L125.942 27.432C126 27.2976 126.062 27.1536 126.13 27C126.197 26.8464 126.259 26.7024 126.317 26.568C126.374 26.4336 126.403 26.3568 126.403 26.3376C126.499 26.1264 126.557 25.8864 126.576 25.6176C126.595 25.3488 126.605 25.032 126.605 24.6672C126.605 24.1872 126.581 23.7744 126.533 23.4288C126.485 23.0832 126.418 22.776 126.331 22.5072C126.245 22.2384 126.139 21.9888 126.014 21.7584C125.89 21.528 125.76 21.2976 125.626 21.0672C125.53 20.9136 125.434 20.784 125.338 20.6784C125.242 20.5728 125.03 20.3568 124.704 20.0304C124.589 19.9152 124.469 19.8096 124.344 19.7136C124.219 19.6176 124.099 19.5216 123.984 19.4256C123.946 19.368 123.845 19.2576 123.682 19.0944L123.379 18.792C123.322 18.7536 123.264 18.7248 123.206 18.7056C123.149 18.6864 123.101 18.6576 123.062 18.6192C123.005 18.5808 122.952 18.528 122.904 18.4608C122.856 18.3936 122.803 18.3408 122.746 18.3024L122.53 18.1296C122.386 18.0144 122.218 17.8848 122.026 17.7408C121.834 17.5968 121.651 17.4624 121.478 17.3376C121.306 17.2128 121.181 17.1216 121.104 17.064C120.97 16.9104 120.84 16.7088 120.715 16.4592C120.59 16.2096 120.528 15.9792 120.528 15.768C120.528 15.4224 120.6 15.1776 120.744 15.0336C120.888 14.8896 121.018 14.7888 121.133 14.7312C121.344 14.616 121.517 14.5392 121.651 14.5008C121.786 14.4624 121.92 14.4432 122.054 14.4432L122.342 14.472C122.534 14.4912 122.746 14.5104 122.976 14.5296C123.206 14.5488 123.427 14.568 123.638 14.5872C123.85 14.6064 123.994 14.6256 124.07 14.6448C124.262 14.7024 124.382 14.736 124.43 14.7456C124.478 14.7552 124.531 14.76 124.589 14.76C124.742 14.76 124.896 14.736 125.05 14.688C125.203 14.64 125.318 14.5872 125.395 14.5296C125.549 14.4336 125.645 14.3184 125.683 14.184C125.722 14.0496 125.741 13.9152 125.741 13.7808C125.741 13.7232 125.736 13.5888 125.726 13.3776ZM134.076 27.3168C133.98 27.3168 133.875 27.3264 133.76 27.3456C133.644 27.3648 133.452 27.4032 133.184 27.4608C132.857 27.5376 132.612 27.6 132.449 27.648C132.286 27.696 132.137 27.7968 132.003 27.9504C131.907 28.0464 131.777 28.2864 131.614 28.6704C131.451 29.0544 131.35 29.4096 131.312 29.736C131.312 29.8896 131.297 29.9904 131.268 30.0384C131.24 30.0864 131.158 30.1776 131.024 30.312C130.908 30.4272 130.808 30.4992 130.721 30.528C130.635 30.5568 130.4 30.5712 130.016 30.5712H129.742C129.617 30.5712 129.483 30.5664 129.339 30.5568C129.195 30.5472 129.056 30.5424 128.921 30.5424H128.633C128.576 30.5424 128.436 30.552 128.216 30.5712C127.995 30.5904 127.846 30.6 127.769 30.6C127.692 30.6 127.529 30.5808 127.28 30.5424C127.03 30.504 126.896 30.4752 126.876 30.456C126.78 30.3984 126.68 30.288 126.574 30.1248C126.468 29.9616 126.416 29.784 126.416 29.592C126.416 29.3424 126.454 29.112 126.531 28.9008C126.608 28.7088 126.656 28.5648 126.675 28.4688C126.713 28.3728 126.732 28.2816 126.732 28.1952C126.732 28.1088 126.742 28.0176 126.761 27.9216C126.78 27.8064 126.795 27.7008 126.804 27.6048C126.814 27.5088 126.828 27.4128 126.848 27.3168C126.867 27.2208 126.91 27.0432 126.977 26.784C127.044 26.5248 127.088 26.3472 127.107 26.2512C127.145 26.04 127.169 25.8288 127.179 25.6176C127.188 25.4064 127.212 25.1952 127.251 24.984C127.27 24.9072 127.294 24.7872 127.323 24.624C127.352 24.4608 127.39 24.288 127.438 24.1056C127.486 23.9232 127.529 23.7456 127.568 23.5728C127.606 23.4 127.635 23.2752 127.654 23.1984C127.692 23.0832 127.726 22.9632 127.755 22.8384C127.784 22.7136 127.817 22.5936 127.856 22.4784C127.894 22.2672 127.928 22.056 127.956 21.8448C127.985 21.6336 128.019 21.4224 128.057 21.2112C128.057 21.1728 128.081 21.048 128.129 20.8368C128.177 20.6256 128.23 20.4 128.288 20.16C128.345 19.92 128.398 19.6896 128.446 19.4688C128.494 19.248 128.537 19.1088 128.576 19.0512C128.614 18.9552 128.652 18.864 128.691 18.7776C128.729 18.6912 128.758 18.6 128.777 18.504C128.796 18.4464 128.806 18.384 128.806 18.3168C128.806 18.2496 128.816 18.1872 128.835 18.1296C128.835 18.072 128.859 17.9328 128.907 17.712C128.955 17.4912 129.003 17.2464 129.051 16.9776C129.099 16.7088 129.147 16.4544 129.195 16.2144C129.243 15.9744 129.276 15.8256 129.296 15.768C129.315 15.7104 129.329 15.648 129.339 15.5808C129.348 15.5136 129.363 15.4512 129.382 15.3936C129.42 15.2016 129.459 15.0384 129.497 14.904L129.728 14.2128C129.766 14.0976 129.795 13.9824 129.814 13.8672C129.833 13.752 129.852 13.6272 129.872 13.4928C130.025 12.3984 130.26 11.6016 130.577 11.1024C130.894 10.6032 131.456 10.3536 132.262 10.3536H132.55C132.684 10.3536 132.828 10.3632 132.982 10.3824C133.366 10.4208 133.803 10.4304 134.292 10.4112C134.782 10.392 135.324 10.3632 135.92 10.3248C136.304 10.2672 136.688 10.2816 137.072 10.368C137.456 10.4544 137.782 10.6032 138.051 10.8144C138.3 11.0064 138.483 11.2032 138.598 11.4048C138.713 11.6064 138.819 11.9088 138.915 12.312C138.972 12.504 139.025 12.696 139.073 12.888C139.121 13.08 139.174 13.2816 139.232 13.4928C139.27 13.6464 139.323 13.8048 139.39 13.968C139.457 14.1312 139.51 14.2896 139.548 14.4432L139.779 15.5376C139.798 15.6336 139.808 15.72 139.808 15.7968C139.808 15.8736 139.827 15.96 139.865 16.056C139.884 16.152 139.932 16.296 140.009 16.488C140.048 16.584 140.11 16.7904 140.196 17.1072C140.283 17.424 140.355 17.736 140.412 18.0432C140.451 18.312 140.48 18.4944 140.499 18.5904C140.518 18.6864 140.556 18.84 140.614 19.0512C140.633 19.1472 140.667 19.2672 140.715 19.4112C140.763 19.5552 140.806 19.6992 140.844 19.8432C140.883 19.9872 140.916 20.1216 140.945 20.2464C140.974 20.3712 140.988 20.4528 140.988 20.4912C141.008 20.6448 141.017 20.7888 141.017 20.9232C141.017 21.0576 141.036 21.192 141.075 21.3264C141.113 21.4224 141.147 21.5088 141.176 21.5856C141.204 21.6624 141.238 21.7488 141.276 21.8448C141.296 21.9408 141.339 22.1184 141.406 22.3776C141.473 22.6368 141.516 22.8144 141.536 22.9104C141.574 23.064 141.593 23.2128 141.593 23.3568C141.593 23.5008 141.612 23.6496 141.651 23.8032C141.689 23.8992 141.723 23.9952 141.752 24.0912C141.78 24.1872 141.814 24.2832 141.852 24.3792C141.891 24.5328 141.948 24.768 142.025 25.0848C142.102 25.4016 142.15 25.6272 142.169 25.7616C142.188 25.9152 142.203 26.0256 142.212 26.0928C142.222 26.16 142.246 26.2416 142.284 26.3376C142.361 26.5296 142.443 26.7888 142.529 27.1152C142.616 27.4416 142.678 27.72 142.716 27.9504C142.755 28.0656 142.779 28.176 142.788 28.2816C142.798 28.3872 142.822 28.488 142.86 28.584C142.899 28.68 142.937 28.7712 142.976 28.8576C143.014 28.944 143.043 29.0352 143.062 29.1312C143.081 29.1888 143.1 29.3328 143.12 29.5632C143.139 29.7936 143.148 29.928 143.148 29.9664C143.148 30.2352 143.009 30.3936 142.731 30.4416C142.452 30.4896 142.179 30.5136 141.91 30.5136C141.852 30.5136 141.752 30.5184 141.608 30.528C141.464 30.5376 141.305 30.5472 141.132 30.5568C140.96 30.5664 140.796 30.576 140.643 30.5856C140.489 30.5952 140.384 30.6 140.326 30.6C139.884 30.6 139.529 30.5856 139.26 30.5568C138.992 30.528 138.78 30.4704 138.627 30.384C138.473 30.2976 138.348 30.1776 138.252 30.024C138.156 29.8704 138.06 29.6592 137.964 29.3904C137.926 29.256 137.892 29.1264 137.864 29.0016C137.835 28.8768 137.792 28.7568 137.734 28.6416L137.561 28.296C137.465 28.0848 137.374 27.9264 137.288 27.8208C137.201 27.7152 137.024 27.6048 136.755 27.4896C136.678 27.4704 136.558 27.4464 136.395 27.4176C136.232 27.3888 136.059 27.3696 135.876 27.36C135.694 27.3504 135.521 27.3408 135.358 27.3312C135.195 27.3216 135.075 27.3168 134.998 27.3168H134.076ZM133.198 19.6992C133.208 19.5936 133.232 19.4928 133.27 19.3968C133.289 19.2816 133.308 19.1712 133.328 19.0656C133.347 18.96 133.376 18.8496 133.414 18.7344L133.5 18.0432C133.5 18.024 133.524 17.9328 133.572 17.7696C133.62 17.6064 133.678 17.4192 133.745 17.208C133.812 16.9968 133.88 16.7952 133.947 16.6032C134.014 16.4112 134.076 16.2768 134.134 16.2C134.268 15.9888 134.432 15.8832 134.624 15.8832C134.681 15.8832 134.782 15.9072 134.926 15.9552C135.07 16.0032 135.19 16.1904 135.286 16.5168C135.324 16.632 135.372 16.8048 135.43 17.0352C135.488 17.2656 135.536 17.4384 135.574 17.5536C135.612 17.6496 135.646 17.7456 135.675 17.8416C135.704 17.9376 135.737 18.0336 135.776 18.1296C135.814 18.2832 135.843 18.4368 135.862 18.5904C135.881 18.744 135.91 18.8976 135.948 19.0512C135.987 19.2048 136.03 19.3536 136.078 19.4976C136.126 19.6416 136.169 19.7904 136.208 19.944C136.323 20.3088 136.4 20.5968 136.438 20.808C136.476 21.0192 136.515 21.336 136.553 21.7584C136.572 21.8352 136.582 21.9504 136.582 22.104C136.582 22.392 136.52 22.5744 136.395 22.6512C136.27 22.728 136.131 22.7856 135.977 22.824C135.766 22.8624 135.531 22.896 135.272 22.9248C135.012 22.9536 134.806 22.968 134.652 22.968C134.096 22.968 133.654 22.8624 133.328 22.6512C133.001 22.44 132.838 22.0848 132.838 21.5856C132.838 21.4128 132.857 21.2448 132.896 21.0816C132.934 20.9184 132.972 20.76 133.011 20.6064C133.049 20.5104 133.078 20.4096 133.097 20.304C133.116 20.1984 133.136 20.0976 133.155 20.0016C133.174 19.9056 133.188 19.8048 133.198 19.6992ZM145.738 21.7008C145.748 21.5472 145.757 21.384 145.767 21.2112C145.777 21.0384 145.791 20.8752 145.81 20.7216C145.829 20.568 145.839 20.4624 145.839 20.4048C145.877 20.0592 145.959 19.6224 146.084 19.0944C146.209 18.5664 146.329 18.0528 146.444 17.5536C146.482 17.4 146.516 17.2224 146.545 17.0208C146.573 16.8192 146.588 16.6704 146.588 16.5744C146.588 16.3056 146.54 16.0608 146.444 15.84C146.348 15.6192 146.271 15.48 146.213 15.4224C146.156 15.3456 146.017 15.2496 145.796 15.1344C145.575 15.0192 145.34 14.9616 145.09 14.9616C145.013 14.9616 144.898 14.9808 144.745 15.0192C144.649 15.0576 144.562 15.1008 144.485 15.1488C144.409 15.1968 144.322 15.2208 144.226 15.2208H144.197C144.101 15.24 144.015 15.2208 143.938 15.1632C143.746 15.0864 143.65 14.9136 143.65 14.6448V13.896C143.65 13.8192 143.645 13.6704 143.636 13.4496C143.626 13.2288 143.621 13.0032 143.621 12.7728C143.621 12.5424 143.617 12.3216 143.607 12.1104C143.597 11.8992 143.593 11.7456 143.593 11.6496C143.593 11.3808 143.636 11.1936 143.722 11.088C143.809 10.9824 143.929 10.8912 144.082 10.8144L145.033 10.44C145.109 10.4016 145.258 10.368 145.479 10.3392C145.7 10.3104 145.839 10.296 145.897 10.296C146.012 10.296 146.127 10.3056 146.242 10.3248C146.357 10.344 146.473 10.3536 146.588 10.3536C146.626 10.3536 146.727 10.344 146.89 10.3248C147.053 10.3056 147.154 10.296 147.193 10.296H148.085C148.201 10.296 148.34 10.3056 148.503 10.3248C148.666 10.344 148.853 10.4016 149.065 10.4976C149.218 10.5552 149.42 10.656 149.669 10.8C149.919 10.944 150.121 11.0928 150.274 11.2464C150.37 11.3616 150.505 11.5584 150.677 11.8368C150.85 12.1152 150.956 12.3696 150.994 12.6C150.994 12.6192 151.004 12.7104 151.023 12.8736C151.042 13.0368 151.066 13.2144 151.095 13.4064C151.124 13.5984 151.148 13.776 151.167 13.9392C151.186 14.1024 151.196 14.1936 151.196 14.2128C151.196 14.6352 151.148 15.0672 151.052 15.5088C150.956 15.9504 150.802 16.4304 150.591 16.9488L150.361 17.4672C150.284 17.64 150.207 17.8032 150.13 17.9568C149.919 18.4176 149.751 18.84 149.626 19.224C149.501 19.608 149.405 19.9584 149.338 20.2752C149.271 20.592 149.218 20.8944 149.18 21.1824C149.141 21.4704 149.113 21.7584 149.093 22.0464C149.074 22.2 149.06 22.3536 149.05 22.5072C149.041 22.6608 149.017 22.8144 148.978 22.968C148.94 23.1216 148.921 23.2224 148.921 23.2704V23.4576C148.921 23.496 148.925 23.5776 148.935 23.7024C148.945 23.8272 148.949 23.9088 148.949 23.9472C148.949 24.2736 148.921 24.528 148.863 24.7104C148.805 24.8928 148.613 25.0128 148.287 25.0704H147.509C147.452 25.0704 147.341 25.0752 147.178 25.0848C147.015 25.0944 146.905 25.0992 146.847 25.0992C146.521 25.0992 146.319 25.032 146.242 24.8976C146.165 24.7632 146.108 24.5904 146.069 24.3792C145.993 23.9184 145.93 23.5488 145.882 23.2704C145.834 22.992 145.801 22.7712 145.781 22.608C145.762 22.4448 145.748 22.3248 145.738 22.248C145.729 22.1712 145.724 22.0848 145.724 21.9888C145.724 21.9504 145.729 21.8544 145.738 21.7008ZM145.306 26.9568C145.316 27.0816 145.321 27.1632 145.321 27.2016C145.321 27.2592 145.316 27.3408 145.306 27.4464C145.297 27.552 145.292 27.6672 145.292 27.792C145.292 27.9168 145.287 28.032 145.277 28.1376C145.268 28.2432 145.263 28.3152 145.263 28.3536C145.263 28.4304 145.273 28.5936 145.292 28.8432C145.311 29.0928 145.321 29.256 145.321 29.3328C145.321 29.3712 145.316 29.472 145.306 29.6352C145.297 29.7984 145.292 29.8992 145.292 29.9376C145.292 30.3408 145.465 30.5424 145.81 30.5424H146.213C146.29 30.5424 146.453 30.552 146.703 30.5712C146.953 30.5904 147.116 30.6 147.193 30.6H147.769C147.98 30.6 148.196 30.5904 148.417 30.5712C148.637 30.552 148.844 30.5376 149.036 30.528C149.228 30.5184 149.353 30.4944 149.41 30.456C149.583 30.3792 149.684 30.2832 149.713 30.168C149.741 30.0528 149.756 29.976 149.756 29.9376C149.756 29.8416 149.77 29.6448 149.799 29.3472C149.828 29.0496 149.842 28.8528 149.842 28.7568C149.842 28.6608 149.833 28.4784 149.813 28.2096C149.794 27.9408 149.785 27.7584 149.785 27.6624C149.785 27.6048 149.789 27.4848 149.799 27.3024C149.809 27.12 149.813 27 149.813 26.9424C149.813 26.6736 149.741 26.448 149.597 26.2656C149.453 26.0832 149.257 25.992 149.007 25.992C148.969 25.992 148.877 25.9968 148.733 26.0064C148.589 26.016 148.498 26.0208 148.46 26.0208C148.441 26.0208 148.364 26.016 148.229 26.0064C148.095 25.9968 147.946 25.9872 147.783 25.9776C147.683 25.9717 147.585 25.9658 147.489 25.96C147.428 25.9562 147.367 25.9525 147.308 25.9488C147.154 25.9392 147.049 25.9344 146.991 25.9344C146.953 25.9344 146.871 25.944 146.746 25.9632C146.621 25.9824 146.54 25.992 146.501 25.992H146.127C145.705 25.992 145.46 26.0832 145.393 26.2656C145.325 26.448 145.292 26.5968 145.292 26.712C145.292 26.7504 145.297 26.832 145.306 26.9568Z" fill="#185494"/>
<path fill-rule="evenodd" clip-rule="evenodd" d="M128.139 6.70401L142.71 9L144.339 3.41577L138.756 5.37574L136.645 0L132.864 4.5L128.139 0.706125V6.70401Z" fill="#FAAF18"/>
</svg>
