<svg width="86" height="27" viewBox="0 0 86 27" fill="none" xmlns="http://www.w3.org/2000/svg">
<path fill-rule="evenodd" clip-rule="evenodd" d="M36.613 16.9956L34.3195 27L42.9941 21.6425L51.4936 27L49.9366 16.9956L56.7392 10.1078L47.4482 8.71526L42.9941 0L38.7055 8.71526L28.9346 10.1078L36.613 16.9956ZM5.54892 19.5407L3.89153 26.749L10.1603 22.8889L16.3026 26.749L15.1775 19.5407L20.0935 14.578L13.3791 13.5746L10.1603 7.29519L7.06109 13.5746L0 14.578L5.54892 19.5407ZM69.7981 26.749L71.4555 19.5407L65.9065 14.578L72.9676 13.5746L76.0669 7.29519L79.2857 13.5746L86 14.578L81.084 19.5407L82.2092 26.749L76.0669 22.8889L69.7981 26.749Z" fill="white"/>
</svg>
