<svg width="23" height="18" viewBox="0 0 23 18" fill="none" xmlns="http://www.w3.org/2000/svg">
<path d="M22.0519 2.89286C21.2751 3.22768 20.4314 3.46875 19.5608 3.5625C20.4581 3.02678 21.1412 2.18303 21.4626 1.17857C20.6323 1.67411 19.6948 2.03571 18.7171 2.22321C17.9269 1.37946 16.8019 0.857142 15.5564 0.857142C13.159 0.857142 11.2305 2.79911 11.2305 5.18303C11.2305 5.51786 11.2706 5.85268 11.3376 6.17411C7.74833 5.98661 4.54743 4.27232 2.41797 1.64732C2.04297 2.29018 1.82868 3.02678 1.82868 3.83036C1.82868 5.33036 2.59208 6.65625 3.75725 7.43303C3.04743 7.40625 2.37779 7.20536 1.8019 6.88393C1.8019 6.89732 1.8019 6.92411 1.8019 6.9375C1.8019 9.04018 3.2885 10.7812 5.27065 11.183C4.90904 11.2768 4.52065 11.3304 4.13225 11.3304C3.851 11.3304 3.58315 11.3036 3.31529 11.2634C3.8644 12.9777 5.45815 14.2232 7.35993 14.2634C5.87333 15.4286 4.01172 16.1116 1.9894 16.1116C1.62779 16.1116 1.29297 16.0982 0.944754 16.058C2.85993 17.2902 5.13672 18 7.58761 18C15.543 18 19.8956 11.4107 19.8956 5.69196C19.8956 5.50446 19.8956 5.31696 19.8823 5.12946C20.726 4.51339 21.4626 3.75 22.0519 2.89286Z" fill="#EFE1DA"/>
</svg>
