<svg width="528" height="76" viewBox="0 0 528 76" fill="none" xmlns="http://www.w3.org/2000/svg">
<path fill-rule="evenodd" clip-rule="evenodd" d="M153.45 36.5222C153.45 35.4389 153.619 34.2201 153.958 32.8659C154.026 32.5273 154.144 31.9687 154.314 31.19C154.483 30.4114 154.669 29.6158 154.872 28.8032C155.075 27.9907 155.261 27.229 155.431 26.518C155.6 25.807 155.752 25.35 155.888 25.1469C155.956 25.0114 156.074 24.7237 156.243 24.2836C156.413 23.8434 156.616 23.3695 156.853 22.8616C157.09 22.3538 157.293 21.8968 157.462 21.4905C157.631 21.0842 157.75 20.8472 157.818 20.7795C157.953 20.441 158.139 20.1363 158.376 19.8654C158.613 19.5946 158.833 19.2899 159.036 18.9514C159.104 18.8159 159.239 18.562 159.443 18.1896C159.646 17.8172 159.883 17.394 160.154 16.92C160.424 16.4461 160.661 16.006 160.865 15.5997C161.068 15.1934 161.237 14.9226 161.372 14.7872C161.643 14.4486 161.948 14.1101 162.286 13.7715C162.625 13.4329 162.93 13.0944 163.201 12.7558C163.539 12.4173 163.844 12.0449 164.115 11.6386C164.385 11.2324 164.69 10.86 165.029 10.5214C165.367 10.1828 165.706 9.89508 166.044 9.65809C166.383 9.4211 166.721 9.16719 167.06 8.89635C167.399 8.6255 167.72 8.35466 168.025 8.08382C168.33 7.81298 168.651 7.54214 168.99 7.27129C169.396 6.93274 170.073 6.50955 171.021 6.00172C171.969 5.49389 172.782 5.10456 173.459 4.83372C173.797 4.69829 174.153 4.5798 174.525 4.47824C174.898 4.37667 175.253 4.25818 175.592 4.12276C176.066 3.98733 176.523 3.80113 176.963 3.56414C177.403 3.32716 177.86 3.14095 178.334 3.00553C178.672 2.93782 179.299 2.81933 180.213 2.65005C181.127 2.48077 182.075 2.34536 183.057 2.24379C184.038 2.14222 184.919 2.04066 185.697 1.93909C186.476 1.83753 186.933 1.78674 187.068 1.78674C187.272 1.78674 187.644 1.8206 188.186 1.88831C188.727 1.95602 189.303 2.04066 189.912 2.14222C190.522 2.24379 191.097 2.34535 191.639 2.44692C192.181 2.54849 192.553 2.59927 192.756 2.59927C193.636 2.73469 194.5 2.85318 195.346 2.95475C196.192 3.05632 197.022 3.27637 197.834 3.61493C197.902 3.68264 198.308 3.88577 199.053 4.22432C199.798 4.56288 200.594 4.93528 201.44 5.34154C202.286 5.74781 203.065 6.12021 203.776 6.45877C204.487 6.79732 204.91 7.00045 205.046 7.06816C205.316 7.20358 205.689 7.47442 206.163 7.88069C206.637 8.28695 207.128 8.71014 207.636 9.15026C208.143 9.59038 208.634 10.0474 209.108 10.5214C209.582 10.9954 209.988 11.3678 210.327 11.6386C210.666 11.9772 210.97 12.3327 211.241 12.7051C211.512 13.0775 211.817 13.4329 212.155 13.7715C212.561 14.3132 213.035 14.7872 213.577 15.1934C214.051 15.7351 214.44 16.2429 214.745 16.7169C215.05 17.1909 215.371 17.8341 215.71 18.6467C215.913 19.0529 216.099 19.4592 216.269 19.8654C216.438 20.2717 216.59 20.678 216.726 21.0842L218.655 24.9437C219.129 26.0271 219.468 27.2797 219.671 28.7017C219.739 29.1079 219.84 29.9374 219.976 31.19C220.111 32.4427 220.23 33.7799 220.331 35.2019C220.433 36.6238 220.517 37.9441 220.585 39.1629C220.653 40.3817 220.687 41.1265 220.687 41.3974C220.687 41.7359 220.653 42.2099 220.585 42.8193C220.517 43.4287 220.433 44.0719 220.331 44.7491C220.23 45.4262 220.111 46.0694 219.976 46.6788C219.84 47.2882 219.739 47.7283 219.671 47.9992C219.536 48.3377 219.383 48.8455 219.214 49.5226C219.045 50.1998 218.859 50.8938 218.655 51.6047C218.452 52.3157 218.249 53.0097 218.046 53.6868C217.843 54.364 217.674 54.8379 217.538 55.1088C217.2 55.9213 216.76 56.8862 216.218 58.0034C215.676 59.1206 214.728 60.5933 213.374 62.4215C213.171 62.7601 212.782 63.2509 212.206 63.8942C211.63 64.5375 211.021 65.1807 210.378 65.824C209.735 66.4672 209.091 67.0766 208.448 67.6521C207.805 68.2277 207.314 68.617 206.975 68.8201C206.501 69.1587 206.01 69.4126 205.503 69.5819C204.995 69.7512 204.47 69.9712 203.928 70.2421C203.59 70.4452 203.285 70.6483 203.014 70.8515C202.743 71.0546 202.439 71.2239 202.1 71.3593C202.033 71.427 201.728 71.5793 201.186 71.8163C200.644 72.0533 200.035 72.2903 199.358 72.5273C198.681 72.7643 198.055 73.0013 197.479 73.2383C196.903 73.4752 196.582 73.5937 196.514 73.5937C196.04 73.7292 195.566 73.8138 195.092 73.8476C194.618 73.8815 194.11 73.9661 193.569 74.1016C193.23 74.1693 192.925 74.237 192.655 74.3047L191.842 74.5078C190.623 74.711 189.54 74.8125 188.592 74.8125H187.373C186.831 74.8125 186.273 74.7956 185.697 74.7617C185.122 74.7279 184.563 74.694 184.021 74.6602C183.48 74.6263 183.107 74.6094 182.904 74.6094C182.295 74.5417 181.55 74.3724 180.67 74.1016C180.196 74.0339 179.739 73.9661 179.299 73.8984C178.859 73.8307 178.402 73.7292 177.928 73.5937C177.183 73.4583 176.539 73.2552 175.998 72.9843C175.321 72.6458 174.864 72.4257 174.627 72.3242C174.39 72.2226 173.899 72.0703 173.154 71.8671C172.68 71.7317 172.24 71.5793 171.834 71.4101C171.427 71.2408 171.021 71.0207 170.615 70.7499C170.141 70.4113 169.701 70.0728 169.294 69.7342C168.888 69.3957 168.448 69.0571 167.974 68.7186C166.958 67.9738 166.112 67.3644 165.435 66.8904C164.758 66.4164 164.165 65.9424 163.658 65.4685C163.15 64.9945 162.642 64.4359 162.134 63.7926C161.626 63.1494 161 62.3199 160.255 61.3043C159.849 60.7626 159.51 60.3225 159.239 59.9839C158.969 59.6454 158.732 59.3237 158.529 59.019C158.325 58.7143 158.122 58.3758 157.919 58.0034C157.716 57.631 157.479 57.1401 157.208 56.5307C157.005 56.0567 156.768 55.6166 156.497 55.2103C156.226 54.8041 155.989 54.3978 155.786 53.9915C155.583 53.5176 155.38 52.942 155.177 52.2649C154.974 51.5878 154.804 50.9107 154.669 50.2336C154.534 49.5565 154.415 48.9302 154.314 48.3546C154.212 47.7791 154.127 47.3221 154.06 46.9835C153.992 46.4418 153.924 45.6801 153.856 44.6983C153.789 43.7165 153.721 42.7008 153.653 41.6513C153.586 40.6018 153.535 39.62 153.501 38.7059C153.467 37.7918 153.45 37.0639 153.45 36.5222ZM33.0948 37.3348C32.8917 38.0119 32.6208 38.8921 32.2823 39.9755C32.1468 40.5849 32.0453 41.0927 31.9776 41.499C31.9098 41.9052 31.8421 42.2946 31.7744 42.667C31.7067 43.0394 31.6221 43.4287 31.5205 43.835C31.4189 44.2412 31.2666 44.7491 31.0635 45.3585C30.928 46.1033 30.8434 46.6111 30.8096 46.8819C30.7757 47.1528 30.6234 47.6268 30.3525 48.3039C30.014 49.5227 29.777 50.3182 29.6415 50.6907C29.5061 51.0631 29.2691 51.4863 28.9306 51.9602L28.0165 51.1477L27.7118 49.9289C27.3732 49.1164 27.1701 48.5408 27.1024 48.2023C27.0347 47.8637 26.9331 47.2882 26.7977 46.4757C26.73 46.0017 26.6623 45.5954 26.5946 45.2569C26.5269 44.9183 26.4592 44.5629 26.3914 44.1904C26.3237 43.818 26.2391 43.3779 26.1375 42.8701C26.036 42.3623 25.8836 41.7021 25.6805 40.8896C25.4774 40.077 25.325 39.4169 25.2234 38.909C25.1219 38.4012 25.0203 37.9442 24.9187 37.5379C24.8172 37.1316 24.7156 36.6915 24.614 36.2175C24.5125 35.7436 24.394 35.1342 24.2586 34.3894C24.1231 33.5768 24.0046 32.9336 23.9031 32.4596C23.8015 31.9856 23.7 31.5455 23.5984 31.1392C23.4968 30.733 23.3953 30.3437 23.2937 29.9712C23.1921 29.5988 23.0398 29.1079 22.8366 28.4985C22.4304 26.7381 21.9733 24.9099 21.4655 23.014C20.9577 21.1181 20.4668 19.3915 19.9928 17.8341C19.6542 16.2091 19.468 15.1426 19.4342 14.6348C19.4003 14.127 19.3157 13.5684 19.1803 12.959C19.1126 12.4173 19.0618 11.9602 19.0279 11.5878C18.9941 11.2154 18.9264 10.7753 18.8248 10.2675C18.7232 9.75965 18.5878 9.13334 18.4185 8.38852C18.2493 7.6437 18.0292 6.66191 17.7584 5.44311L16.7427 3.81806L15.1176 2.90397C14.1697 2.83626 13.4926 2.8024 13.0863 2.8024C12.6801 2.8024 12.0368 2.76855 11.1566 2.70083C10.4118 2.83626 9.83623 2.90397 9.42996 2.90397H7.09395L5.67203 2.59927C5.06263 2.66698 4.62252 2.70083 4.35167 2.70083C4.08083 2.70083 3.64072 2.66698 3.03132 2.59927L2.01566 2.90397C1.74482 3.24252 1.55862 3.49643 1.45705 3.66571L1 4.42745L0.898438 5.64624L1.20313 7.77912C1.6094 9.47189 1.93102 10.843 2.16801 11.8925C2.405 12.9421 2.62505 13.9408 2.82819 14.8887C3.03132 15.8367 3.25138 16.8693 3.48836 17.9865C3.72535 19.1037 4.04697 20.5425 4.45324 22.303C4.72408 23.725 4.94414 24.8929 5.11342 25.807C5.28269 26.7211 5.45197 27.4998 5.62125 28.1431C5.79052 28.7863 5.94287 29.3788 6.07829 29.9205C6.21371 30.4621 6.38299 31.0715 6.58612 31.7486C6.78925 32.6966 6.97545 33.4753 7.14473 34.0847C7.31401 34.694 7.46636 35.3034 7.60178 35.9128C7.7372 36.5222 7.90647 37.2332 8.10961 38.0457C8.31274 38.8582 8.58358 39.9077 8.92213 41.1943L10.1409 48.4054L12.3754 56.8354C12.7139 58.5959 13.1033 60.5933 13.5434 62.8278C13.9835 65.0622 14.4744 67.5336 15.0161 70.2421L16.438 72.5781C16.8443 72.9166 17.149 73.1536 17.3521 73.289C17.5552 73.4245 17.8938 73.6614 18.3677 74H19.8912C20.1621 74 20.6699 73.9661 21.4147 73.8984L24.3601 74.1016L27.7118 73.8984C28.8629 73.8984 29.6754 73.9154 30.1494 73.9492C30.6234 73.9831 31.4359 74.0677 32.587 74.2031L34.6183 73.289L35.9386 71.5624C36.1418 70.7499 36.2941 70.1744 36.3957 69.8358C36.4972 69.4972 36.6496 68.854 36.8527 67.9061C36.9204 67.6352 36.9712 67.3813 37.0051 67.1443C37.0389 66.9073 37.0897 66.6365 37.1574 66.3318C37.2251 66.0271 37.3267 65.6378 37.4621 65.1638C37.5975 64.6898 37.7668 64.0804 37.9699 63.3356C38.3085 62.5231 38.5116 61.9475 38.5793 61.609C38.647 61.2704 38.7825 60.661 38.9856 59.7808C39.1887 59.2391 39.3411 58.8667 39.4426 58.6636C39.5442 58.4604 39.6966 58.088 39.8997 57.5463L40.6106 56.7338L41.4232 57.4448L41.7279 58.6636C41.7956 58.9344 41.9649 59.4761 42.2357 60.2886C42.5065 61.0334 42.6758 61.592 42.7435 61.9645C42.8112 62.3369 43.0144 62.997 43.3529 63.945L43.7084 65.3669C43.8777 66.044 44.0639 66.8057 44.267 67.6521C44.4701 68.4985 44.6902 69.3449 44.9272 70.1913C45.1642 71.0377 45.3842 71.7317 45.5874 72.2734L46.5015 73.289C47.1109 73.6276 47.6356 73.8646 48.0757 74C48.5159 74.1354 49.0067 74.2031 49.5484 74.2031L50.8688 74C52.2907 73.9323 53.5772 73.8984 54.7283 73.8984H59.8066L62.6504 74C63.1244 74 63.5307 73.9831 63.8692 73.9492C64.2078 73.9154 64.5294 73.8476 64.8341 73.7461C65.1388 73.6445 65.4943 73.4922 65.9005 73.289L67.5256 72.4765L68.3381 71.3593L68.8459 69.5311C69.0491 68.6509 69.2353 67.9399 69.4045 67.3982C69.5738 66.8565 69.7092 66.3826 69.8108 65.9763C69.9124 65.57 70.0309 65.1638 70.1663 64.7575L70.6741 63.234C70.8095 62.5569 70.9111 61.9983 70.9788 61.5582C71.0465 61.1181 71.1312 60.678 71.2327 60.2378C71.3343 59.7977 71.4528 59.2899 71.5882 58.7144C71.7236 58.1388 71.8929 57.3771 72.096 56.4291C72.2315 55.1426 72.3838 54.0085 72.5531 53.0267C72.7224 52.0449 72.9255 51.1138 73.1625 50.2336C73.3995 49.3534 73.6534 48.4731 73.9242 47.5929C74.1951 46.7127 74.4998 45.697 74.8383 44.5459L75.8032 40.6864C76.1756 39.1968 76.5141 37.741 76.8188 36.3191C77.1235 34.8972 77.3944 33.6107 77.6314 32.4596C77.8684 31.3085 78.0207 30.5637 78.0884 30.2252C78.427 29.0064 78.647 28.1938 78.7486 27.7876L79.1041 26.3657C79.3749 25.4177 79.5442 24.7914 79.6119 24.4867C79.6796 24.182 79.7473 23.7588 79.815 23.2171L80.2721 21.5413C80.3736 21.1689 80.5598 20.4071 80.8307 19.2561C81.0338 18.3081 81.1862 17.5294 81.2877 16.92C81.3893 16.3106 81.4909 15.752 81.5924 15.2442C81.694 14.7364 81.8125 14.1947 81.9479 13.6192C82.0833 13.0436 82.2526 12.2819 82.4557 11.3339C82.7943 9.97971 83.0482 8.84557 83.2175 7.93147C83.3868 7.01737 83.4714 6.28949 83.4714 5.74781L83.2683 4.63058C82.862 4.15661 82.5742 3.83499 82.405 3.66571C82.2357 3.49643 81.9141 3.24252 81.4401 2.90397C80.4921 2.97168 79.8658 3.00553 79.5611 3.00553H78.4947C76.5311 2.8024 75.4138 2.70083 75.143 2.70083L73.2133 2.90397C72.2653 2.97168 71.5713 3.02246 71.1312 3.05632C70.691 3.09017 69.9293 3.14095 68.8459 3.20866L68.0334 3.61493L67.3224 4.63058C67.2547 5.10456 67.1532 5.69702 67.0177 6.40799C66.8823 7.11895 66.73 7.8299 66.5607 8.54087C66.3914 9.25183 66.2221 9.94586 66.0529 10.623C65.8836 11.3001 65.7651 11.8756 65.6974 12.3496C65.562 13.1621 65.4435 13.8223 65.3419 14.3301C65.2403 14.8379 65.1388 15.2781 65.0372 15.6505C64.9357 16.0229 64.851 16.3953 64.7833 16.7677C64.7156 17.1401 64.614 17.5971 64.4786 18.1388C64.3432 18.7482 64.2247 19.2391 64.1231 19.6115C64.0216 19.9839 63.92 20.3902 63.8184 20.8303C63.7169 21.2704 63.5814 21.7783 63.4122 22.3538C63.2429 22.9294 63.0228 23.6572 62.752 24.5375C62.4134 26.1625 62.1595 27.4829 61.9902 28.4985C61.821 29.5142 61.6517 30.4114 61.4824 31.19C61.3131 31.9687 61.1439 32.6966 60.9746 33.3737C60.8053 34.0508 60.5853 34.8972 60.3144 35.9128C60.3144 36.116 60.2636 36.4884 60.1621 37.0301C60.0605 37.5717 59.942 38.1473 59.8066 38.7567C59.6712 39.3661 59.5527 39.9416 59.4511 40.4833C59.3495 41.025 59.2987 41.3974 59.2987 41.6005C59.1633 42.1422 59.0787 42.5654 59.0448 42.8701C59.011 43.1748 58.9602 43.7673 58.8925 44.6475C58.6216 45.3923 58.4693 45.9171 58.4354 46.2218C58.4016 46.5265 58.3169 47.0512 58.1815 47.796C58.0461 48.27 57.9107 48.6932 57.7753 49.0656C57.6398 49.438 57.3013 50.2675 56.7596 51.554L56.1502 51.6555L55.7439 50.843C55.6762 50.1659 55.6255 49.7089 55.5916 49.4719C55.5577 49.2349 55.4054 48.744 55.1346 47.9992C54.9991 47.1189 54.8637 46.408 54.7283 45.8663C54.5929 45.3246 54.3897 44.2751 54.1189 42.7177C53.9158 41.4989 53.7634 40.5341 53.6618 39.8231L53.4079 38.0457C53.3402 37.5717 53.2725 37.1486 53.2048 36.7761C53.1371 36.4037 53.0694 36.0144 53.0017 35.6081C52.8662 34.2539 52.6462 32.832 52.3415 31.3424C52.0368 29.8527 51.6475 28.2277 51.1735 26.4672C50.9026 25.0453 50.6826 23.8942 50.5133 23.014C50.344 22.1337 50.1917 21.372 50.0563 20.7288C49.9208 20.0855 49.7854 19.51 49.65 19.0021C49.5146 18.4943 49.3453 17.868 49.1422 17.1232L48.6343 12.4511L47.7203 8.89635C47.5848 8.01611 47.4833 7.40672 47.4156 7.06816C47.3478 6.72961 47.2463 6.08637 47.1109 5.13841C46.9077 4.73215 46.7384 4.44438 46.603 4.2751C46.4676 4.10583 46.1629 3.75035 45.6889 3.20866L44.4701 2.90397H42.7435L40.9153 3.1071C40.0351 3.1071 38.9687 3.05632 37.716 2.95475C36.4634 2.85318 35.0245 2.73469 33.3995 2.59927L31.6729 3.00553L30.3525 4.32589C30.4202 4.86757 30.4879 5.29076 30.5556 5.59546C30.6234 5.90016 30.7249 6.42491 30.8603 7.16973C31.1312 8.93021 31.3005 10.1151 31.3682 10.7245C31.4359 11.3339 31.5374 12.1126 31.6729 13.0605L32.587 16.1075L33.2979 20.1701C33.7042 21.9306 34.0597 23.5895 34.3644 25.1469C34.6691 26.7042 34.8214 28.1261 34.8214 29.4126L34.7198 30.6314C34.5167 31.4439 34.3982 32.0195 34.3644 32.358C34.3305 32.6966 34.2459 33.2721 34.1104 34.0847C33.975 34.2878 33.8735 34.5078 33.8057 34.7448C33.738 34.9818 33.6534 35.3034 33.5518 35.7097C33.4503 36.116 33.2979 36.6576 33.0948 37.3348ZM87.7372 6.05251C87.6694 7.06817 87.6356 7.88069 87.6356 8.49008V13.7715C87.6356 13.9746 87.6525 14.3301 87.6864 14.8379C87.7202 15.3458 87.7372 15.8705 87.7372 16.4122C87.7372 16.9539 87.7541 17.4787 87.7879 17.9865C87.8218 18.4943 87.8387 18.8498 87.8387 19.0529C87.8387 19.3238 87.8218 19.7808 87.7879 20.4241C87.7541 21.0673 87.7202 21.7444 87.6864 22.4554C87.6525 23.1663 87.6187 23.8434 87.5848 24.4867C87.551 25.1299 87.534 25.587 87.534 25.8578C87.534 26.1964 87.551 26.7719 87.5848 27.5844C87.6187 28.397 87.6525 29.2603 87.6864 30.1744C87.7202 31.0885 87.7541 31.9687 87.7879 32.8151C87.8218 33.6615 87.8387 34.2201 87.8387 34.4909V35.9128C87.8387 36.6577 87.8218 37.4363 87.7879 38.2489C87.7541 39.0614 87.7202 39.8062 87.6864 40.4833C87.6525 41.1604 87.6356 41.6005 87.6356 41.8037C87.6356 41.9391 87.6017 42.43 87.534 43.2764C87.4663 44.1227 87.4325 44.6136 87.4325 44.7491C87.4325 45.0876 87.4494 45.7139 87.4832 46.628C87.5171 47.5421 87.534 48.4731 87.534 49.4211C87.534 50.369 87.551 51.2493 87.5848 52.0618C87.6187 52.8743 87.6356 53.3821 87.6356 53.5853C87.6356 53.8561 87.6187 54.2793 87.5848 54.8549C87.551 55.4304 87.534 56.0229 87.534 56.6323C87.534 57.2416 87.5171 57.8172 87.4832 58.3589C87.4494 58.9006 87.4325 59.273 87.4325 59.4761C87.4325 60.2209 87.4494 60.9319 87.4832 61.609C87.5171 62.2861 87.534 62.997 87.534 63.7419C87.534 64.0127 87.5171 64.4359 87.4832 65.0114C87.4494 65.587 87.4325 66.1794 87.4325 66.7888C87.4325 67.3982 87.4155 67.9907 87.3817 68.5662C87.3478 69.1418 87.3309 69.5311 87.3309 69.7342C87.3309 70.0051 87.3817 70.479 87.4832 71.1562C87.5848 71.8333 87.6694 72.2057 87.7372 72.2734C87.9403 73.3568 88.8205 73.8984 90.3779 73.8984H91.749C92.3923 73.8984 93.0694 73.8815 93.7803 73.8476C94.4913 73.8138 95.1684 73.7969 95.8116 73.7969H97.0812C97.4198 73.7969 98.0969 73.8307 99.1125 73.8984C100.128 73.9661 100.771 73.9661 101.042 73.8984C102.6 73.8307 103.581 73.3398 103.988 72.4257C104.394 71.5116 104.597 70.0728 104.597 68.1092V67.1443C104.597 66.7042 104.58 66.2302 104.546 65.7224C104.512 65.2146 104.496 64.7406 104.496 64.3005V63.3356C104.496 63.1325 104.512 62.777 104.546 62.2692C104.58 61.7613 104.597 61.2366 104.597 60.6949C104.597 60.1532 104.614 59.6284 104.648 59.1206C104.682 58.6128 104.699 58.2573 104.699 58.0542C104.699 57.851 104.682 57.4279 104.648 56.7846C104.614 56.1413 104.597 55.7182 104.597 55.515C104.597 55.3796 104.614 55.0749 104.648 54.6009C104.682 54.127 104.699 53.8223 104.699 53.6868C104.699 53.3483 104.682 53.0436 104.648 52.7728C104.614 52.5019 104.597 52.2311 104.597 51.9602C104.597 51.7571 104.648 51.4185 104.749 50.9446C104.851 50.4706 105.003 49.9628 105.206 49.4211C105.41 48.8794 105.697 48.3546 106.07 47.8468C106.442 47.339 106.899 46.9158 107.441 46.5772C108.186 46.171 109.184 45.9171 110.437 45.8155C111.69 45.7139 112.485 45.6632 112.824 45.6632C113.095 45.6632 113.619 45.6801 114.398 45.7139C115.177 45.7478 115.668 45.7647 115.871 45.7647H119.121C119.256 45.7647 119.578 45.7816 120.086 45.8155C120.594 45.8494 120.915 45.8663 121.051 45.8663C121.254 45.8663 121.728 45.8494 122.473 45.8155C123.217 45.7816 123.691 45.7986 123.895 45.8663C124.504 46.0017 125.079 46.1033 125.621 46.171C126.027 46.2387 126.417 46.3064 126.789 46.3741C127.162 46.4418 127.382 46.4757 127.449 46.4757C127.517 46.5434 127.822 46.7804 128.363 47.1866C128.905 47.5929 129.244 48.4393 129.379 49.7258C129.379 49.9289 129.396 50.3182 129.43 50.8938C129.464 51.4693 129.498 52.0956 129.531 52.7728C129.565 53.4499 129.582 54.0931 129.582 54.7025V55.9213C129.582 56.2598 129.565 56.8692 129.531 57.7495C129.498 58.6297 129.481 59.2052 129.481 59.4761C129.481 59.7469 129.498 60.2886 129.531 61.1011C129.565 61.9137 129.582 62.4215 129.582 62.6246C129.582 62.8955 129.565 63.3694 129.531 64.0466C129.498 64.7237 129.464 65.4177 129.43 66.1286C129.396 66.8396 129.362 67.4998 129.328 68.1092C129.294 68.7186 129.278 69.1248 129.278 69.328C129.278 69.9374 129.447 70.6314 129.785 71.4101C130.124 72.1887 130.327 72.6458 130.395 72.7812C130.936 73.4583 131.715 73.8646 132.731 74C133.746 74.1354 134.627 74.2031 135.371 74.2031C135.575 74.2031 135.947 74.1862 136.489 74.1523C137.03 74.1185 137.572 74.1016 138.114 74.1016C138.655 74.1016 139.18 74.0846 139.688 74.0508C140.196 74.0169 140.551 74 140.754 74C140.958 74 141.432 74.0169 142.176 74.0508C142.921 74.0846 143.395 74.1016 143.598 74.1016C144.885 74.1016 145.748 73.7461 146.188 73.0351C146.628 72.3242 146.848 71.5963 146.848 70.8515V66.8904C146.848 66.6195 146.831 66.1287 146.798 65.4177C146.764 64.7067 146.73 63.9788 146.696 63.234C146.662 62.4892 146.628 61.7783 146.595 61.1011C146.561 60.424 146.544 59.9501 146.544 59.6792C146.544 58.7313 146.578 57.7664 146.645 56.7846C146.713 55.8028 146.747 54.8041 146.747 53.7884C146.747 53.5853 146.73 53.0944 146.696 52.3157C146.662 51.537 146.645 51.0123 146.645 50.7414C146.645 50.4706 146.662 49.9289 146.696 49.1164C146.73 48.3039 146.747 47.7622 146.747 47.4913V42.5146C146.747 41.9052 146.764 41.2789 146.798 40.6356C146.831 39.9924 146.848 39.383 146.848 38.8075V36.7254C146.848 36.3191 146.831 35.879 146.798 35.405C146.764 34.931 146.747 34.4909 146.747 34.0847V33.2721C146.747 33.069 146.764 32.7474 146.798 32.3073C146.831 31.8671 146.848 31.3932 146.848 30.8853C146.848 30.3775 146.865 29.9035 146.899 29.4634C146.933 29.0233 146.95 28.7017 146.95 28.4985C146.95 28.2954 146.933 27.9569 146.899 27.4829C146.865 27.0089 146.848 26.5011 146.848 25.9594C146.848 25.4177 146.831 24.9268 146.798 24.4867C146.764 24.0466 146.747 23.7249 146.747 23.5218C146.747 23.251 146.764 22.777 146.798 22.0999C146.831 21.4228 146.865 20.7118 146.899 19.967C146.933 19.2222 146.967 18.5282 147.001 17.8849C147.035 17.2417 147.052 16.7846 147.052 16.5138C147.052 16.3106 147.035 16.0229 147.001 15.6505C146.967 15.2781 146.95 14.8718 146.95 14.4317C146.95 13.9916 146.933 13.5853 146.899 13.2129C146.865 12.8405 146.848 12.5866 146.848 12.4511C146.848 12.248 146.865 11.8756 146.899 11.3339C146.933 10.7922 146.967 10.2167 147.001 9.60731C147.035 8.99791 147.068 8.4393 147.102 7.93147C147.136 7.42364 147.153 7.06816 147.153 6.86503C147.153 4.96913 146.764 3.85192 145.985 3.51336C145.206 3.17481 144.106 3.00553 142.684 3.00553C142.21 3.00553 141.838 3.03939 141.567 3.1071L140.551 3.31023C140.213 3.37794 139.874 3.4118 139.536 3.4118C139.4 3.4118 139.163 3.37794 138.825 3.31023C138.486 3.24252 138.283 3.20866 138.215 3.20866C138.08 3.20866 137.86 3.19174 137.555 3.15788C137.25 3.12403 136.827 3.1071 136.286 3.1071C136.15 3.1071 135.981 3.12403 135.778 3.15788C135.575 3.19174 135.371 3.20866 135.168 3.20866C134.898 3.27637 134.677 3.31023 134.508 3.31023H134.051C133.713 3.31023 133.442 3.27637 133.239 3.20866C133.035 3.14095 132.731 3.1071 132.325 3.1071C131.783 3.1071 131.343 3.27637 131.004 3.61493L130.293 4.32589C129.955 4.66444 129.768 5.08763 129.735 5.59546C129.701 6.10329 129.684 6.72961 129.684 7.47443C129.684 7.74527 129.701 8.18538 129.735 8.79478C129.768 9.40418 129.802 10.0474 129.836 10.7245C129.87 11.4016 129.904 12.0449 129.938 12.6543C129.972 13.2637 129.989 13.6699 129.989 13.8731C129.989 14.0762 129.972 14.5671 129.938 15.3458C129.904 16.1244 129.887 16.6153 129.887 16.8185V17.9357C129.887 18.4774 129.904 19.036 129.938 19.6115C129.972 20.1871 129.989 20.7288 129.989 21.2366V22.303C129.989 22.8447 129.853 23.6742 129.582 24.7914C129.311 25.9086 128.431 26.8735 126.942 27.686C125.994 28.16 124.927 28.4647 123.742 28.6001C122.557 28.7355 121.592 28.8032 120.848 28.8032C120.644 28.8032 120.272 28.7863 119.73 28.7525C119.189 28.7186 118.63 28.6847 118.055 28.6509C117.479 28.617 116.937 28.5832 116.429 28.5493C115.922 28.5155 115.566 28.4985 115.363 28.4985H110.285C109.743 28.4985 109.184 28.4647 108.609 28.397C108.033 28.3293 107.492 28.1261 106.984 27.7876C106.476 27.449 106.053 26.9243 105.714 26.2133C105.376 25.5023 105.173 24.5375 105.105 23.3187C105.105 23.251 105.071 22.8109 105.003 21.9983C104.936 21.1858 104.885 20.3056 104.851 19.3576C104.817 18.4097 104.783 17.5464 104.749 16.7677C104.716 15.989 104.699 15.532 104.699 15.3966L104.749 14.1778C104.783 13.3652 104.817 12.485 104.851 11.5371C104.885 10.5891 104.919 9.7258 104.953 8.94713C104.986 8.16845 105.003 7.74527 105.003 7.67756C105.071 7.339 105.105 6.83118 105.105 6.15407C105.105 5.0707 104.868 4.30896 104.394 3.86884C103.92 3.42872 103.581 3.14095 103.378 3.00553C103.175 2.93782 102.837 2.90397 102.363 2.90397H99.6204C99.4849 2.90397 99.2479 2.88704 98.9094 2.85318C98.5708 2.81933 98.3339 2.8024 98.1984 2.8024C98.063 2.8024 97.7245 2.83626 97.1828 2.90397C96.6411 2.97168 96.3025 3.00553 96.1671 3.00553C96.0317 3.00553 95.6931 2.9886 95.1515 2.95475C94.6098 2.92089 94.2712 2.90397 94.1358 2.90397C93.9327 2.90397 93.4587 2.88704 92.7139 2.85318C91.9691 2.81933 91.4951 2.8024 91.292 2.8024C91.2243 2.8024 90.8011 2.87011 90.0224 3.00553C89.2437 3.14095 88.6851 3.44565 88.3465 3.91962C88.008 4.32589 87.8049 5.03684 87.7372 6.05251ZM170.158 38.2488C170.124 37.8426 170.107 37.5717 170.107 37.4363V36.8269C170.175 36.2852 170.259 35.7436 170.361 35.2019C170.462 34.6602 170.581 34.1185 170.716 33.5768C170.852 32.832 170.953 32.1041 171.021 31.3932C171.089 30.6822 171.292 30.022 171.63 29.4126C171.834 28.9387 172.274 28.1431 172.951 27.0258C173.628 25.9086 174.237 25.0792 174.779 24.5375C175.05 24.1312 175.304 23.8096 175.541 23.5726C175.778 23.3356 176.049 23.0986 176.353 22.8616C176.658 22.6246 177.03 22.3707 177.471 22.0999C177.911 21.8291 178.503 21.4566 179.248 20.9827C179.654 20.7118 179.976 20.5087 180.213 20.3733C180.45 20.2379 180.704 20.1024 180.975 19.967C181.245 19.8316 181.567 19.7131 181.939 19.6115C182.312 19.51 182.837 19.3915 183.514 19.2561C183.852 19.1206 184.242 19.0529 184.682 19.0529H187.018C187.526 19.0529 188.05 19.0698 188.592 19.1037C189.134 19.1376 189.675 19.1883 190.217 19.2561C190.759 19.3238 191.131 19.3915 191.334 19.4592C191.402 19.4592 191.69 19.5777 192.198 19.8147C192.705 20.0517 193.264 20.3056 193.873 20.5764C194.483 20.8473 195.075 21.1181 195.651 21.3889C196.226 21.6598 196.616 21.8968 196.819 22.0999C197.225 22.4384 197.597 22.8278 197.936 23.2679C198.275 23.708 198.613 24.1312 198.952 24.5375C199.29 25.0114 199.663 25.4346 200.069 25.807C200.475 26.1795 200.848 26.6365 201.186 27.1782C201.389 27.5167 201.626 27.9907 201.897 28.6001C202.168 29.2095 202.422 29.8527 202.659 30.5299C202.896 31.207 203.116 31.8163 203.319 32.358C203.522 32.8997 203.624 33.2044 203.624 33.2721C203.691 33.6107 203.725 33.8984 203.725 34.1354V36.3191C203.725 36.8608 203.742 37.4025 203.776 37.9442C203.81 38.4858 203.827 39.0275 203.827 39.5692C203.827 40.0432 203.793 40.5679 203.725 41.1435C203.658 41.719 203.522 42.4808 203.319 43.4287C202.71 45.6632 202.32 47.1358 202.151 47.8468C201.982 48.5578 201.829 49.0148 201.694 49.2179C201.626 49.3534 201.44 49.6411 201.135 50.0813C200.831 50.5214 200.458 51.0123 200.018 51.554C199.578 52.0956 199.087 52.6712 198.545 53.2806C198.004 53.89 197.462 54.3978 196.92 54.8041C196.717 55.0072 196.362 55.2611 195.854 55.5658C195.346 55.8705 194.787 56.2091 194.178 56.5815C193.569 56.9539 192.959 57.2755 192.35 57.5463C191.74 57.8172 191.233 57.9865 190.826 58.0542C190.556 58.1219 190.014 58.1557 189.201 58.1557H187.881C187.746 58.1557 187.441 58.1388 186.967 58.105C186.493 58.0711 186.188 58.0542 186.053 58.0542C185.308 58.0542 184.817 58.0372 184.58 58.0034C184.343 57.9695 183.886 57.8849 183.209 57.7495C182.938 57.6818 182.6 57.5802 182.193 57.4448C181.99 57.3771 181.804 57.3094 181.635 57.2416C181.465 57.1739 181.279 57.1062 181.076 57.0385C180.738 56.9031 180.416 56.8354 180.111 56.8354C179.807 56.8354 179.519 56.7677 179.248 56.6323C179.112 56.5645 178.808 56.3614 178.334 56.0229C177.86 55.6843 177.318 55.2273 176.709 54.6517C176.099 54.0762 175.473 53.4329 174.83 52.722C174.187 52.011 173.662 51.2831 173.256 50.5383C172.985 50.132 172.782 49.7596 172.646 49.4211L172.24 48.4054C172.104 48.0669 171.952 47.6268 171.783 47.0851C171.614 46.5434 171.427 45.8663 171.224 45.0538C171.089 44.4444 170.92 43.835 170.716 43.2256C170.513 42.6162 170.378 42.0068 170.31 41.3974L170.259 40.788C170.225 40.3817 170.209 39.9585 170.209 39.5184C170.209 39.0783 170.192 38.6551 170.158 38.2488ZM227.187 40.1786V36.4715C227.187 36.0313 227.255 35.5743 227.39 35.1003C227.39 34.8295 227.407 34.5756 227.441 34.3386C227.475 34.1016 227.492 33.8815 227.492 33.6784C227.559 33.543 227.559 33.2044 227.492 32.6627C227.424 32.121 227.39 31.7825 227.39 31.6471C227.39 31.3762 227.407 30.8684 227.441 30.1236C227.475 29.3788 227.492 28.8709 227.492 28.6001C227.492 28.3293 227.441 27.7368 227.339 26.8227C227.238 25.9086 227.187 25.3161 227.187 25.0453V22.8616C227.187 21.7444 227.221 21.0165 227.289 20.678C227.289 20.4071 227.272 19.8993 227.238 19.1545C227.204 18.4097 227.187 17.9018 227.187 17.631V16.2091C227.187 15.9382 227.153 15.4812 227.085 14.8379C227.018 14.1947 226.967 13.5007 226.933 12.7558C226.899 12.011 226.848 11.3001 226.781 10.623C226.713 9.94586 226.679 9.47189 226.679 9.20104C226.679 7.44056 226.865 6.20486 227.238 5.49389C227.61 4.78293 228.338 4.12276 229.421 3.51336C229.828 3.31023 230.149 3.15788 230.386 3.05632C230.623 2.95475 230.86 2.87011 231.097 2.8024C231.334 2.73469 231.622 2.70083 231.961 2.70083H233.281C233.416 2.70083 233.823 2.66698 234.5 2.59927C235.177 2.53156 235.617 2.4977 235.82 2.4977H240.086C240.154 2.4977 240.357 2.48078 240.695 2.44692C241.034 2.41307 241.423 2.39614 241.863 2.39614C242.303 2.39614 242.71 2.37921 243.082 2.34535C243.454 2.3115 243.708 2.29457 243.844 2.29457C243.979 2.29457 244.436 2.27764 245.215 2.24379C245.994 2.20993 246.823 2.17608 247.703 2.14222C248.583 2.10837 249.379 2.07451 250.09 2.04066C250.801 2.0068 251.224 1.98987 251.36 1.98987C251.901 1.98987 252.477 2.0068 253.086 2.04066C253.696 2.07451 254.305 2.09144 254.914 2.09144C256.404 2.15915 257.623 2.20993 258.571 2.24379C259.519 2.27764 260.365 2.34535 261.11 2.44692C261.855 2.54849 262.616 2.71776 263.395 2.95475C264.174 3.19174 265.139 3.51336 266.29 3.91962C267.035 4.19047 267.627 4.41052 268.067 4.5798C268.507 4.74908 268.93 4.93528 269.337 5.13841C269.743 5.34155 270.149 5.5616 270.556 5.79859C270.962 6.03558 271.503 6.3572 272.181 6.76347C273.332 7.44057 274.144 7.93147 274.618 8.23617C275.092 8.54087 275.6 8.9302 276.142 9.40418C276.751 9.94586 277.411 10.6737 278.122 11.5878C278.833 12.5019 279.51 13.4668 280.154 14.4825C280.797 15.4981 281.355 16.5138 281.829 17.5294C282.303 18.5451 282.642 19.4253 282.845 20.1701C282.98 20.915 283.065 21.6428 283.099 22.3538C283.133 23.0648 283.217 23.7927 283.353 24.5375C283.556 25.4854 283.674 26.4503 283.708 27.4321C283.742 28.4139 283.759 29.3788 283.759 30.3267C283.759 32.5612 283.539 34.3724 283.099 35.7605C282.659 37.1486 282.168 38.4858 281.626 39.7723C281.288 40.5849 281 41.262 280.763 41.8037C280.526 42.3453 280.407 42.65 280.407 42.7177C280.137 43.124 279.866 43.4964 279.595 43.835C279.324 44.1735 279.019 44.5459 278.681 44.9522C278.342 45.3585 278.054 45.7647 277.817 46.171C277.581 46.5772 277.293 46.9835 276.954 47.3898C276.48 47.9315 275.955 48.4054 275.38 48.8117C274.804 49.218 273.907 49.8273 272.688 50.6399C271.605 51.3847 270.708 51.9602 269.997 52.3665C269.286 52.7728 268.524 53.0944 267.712 53.3314C266.899 53.5684 265.951 53.7884 264.868 53.9915C263.784 54.1947 262.396 54.4317 260.704 54.7025C260.23 54.7702 259.434 54.8379 258.317 54.9056C257.2 54.9733 256.438 55.0072 256.032 55.0072C255.828 55.0072 255.507 54.9903 255.067 54.9564C254.627 54.9226 254.136 54.8718 253.594 54.8041C253.052 54.7364 252.545 54.6856 252.071 54.6517C251.597 54.6179 251.258 54.6009 251.055 54.6009H249.633C248.82 54.6009 248.279 54.6348 248.008 54.7025C246.925 54.9056 246.231 55.1088 245.926 55.3119C245.621 55.515 245.3 55.7859 244.961 56.1244C244.419 56.6661 244.098 57.0724 243.996 57.3432C243.895 57.6141 243.776 58.1896 243.641 59.0698C243.573 59.5438 243.522 59.8824 243.488 60.0855C243.454 60.2886 243.437 60.4579 243.437 60.5933C243.437 60.661 243.454 60.8642 243.488 61.2027C243.522 61.5413 243.573 61.9306 243.641 62.3707C243.708 62.8108 243.759 63.234 243.793 63.6403C243.827 64.0466 243.844 64.3512 243.844 64.5544C243.911 64.8252 243.945 65.0622 243.945 65.2653V66.4841C243.945 66.6873 243.979 67.1782 244.047 67.9568C244.115 68.7355 244.148 69.2264 244.148 69.4295C244.148 70.3775 244.081 71.1392 243.945 71.7148C243.81 72.2903 243.505 72.7643 243.031 73.1367C242.557 73.5091 241.846 73.763 240.898 73.8984C239.95 74.0339 238.664 74.1016 237.039 74.1016C236.836 74.1016 236.497 74.0846 236.023 74.0508C235.549 74.0169 235.041 74 234.5 74C233.958 74 233.45 73.9831 232.976 73.9492C232.502 73.9154 232.164 73.8984 231.961 73.8984C231.757 73.8984 231.334 73.9323 230.691 74C230.048 74.0677 229.625 74.1016 229.421 74.1016C228.88 74.1016 228.304 73.7461 227.695 73.0351C227.085 72.3242 226.781 71.3932 226.781 70.2421C226.781 69.9035 226.798 69.2772 226.831 68.3631C226.865 67.449 226.899 66.4672 226.933 65.4177C226.967 64.3682 227.001 63.3864 227.035 62.4723C227.068 61.5582 227.085 60.898 227.085 60.4918C227.085 60.1532 227.052 59.4592 226.984 58.4097C226.916 57.3601 226.882 56.6661 226.882 56.3276C226.882 55.989 226.899 55.3288 226.933 54.347C226.967 53.3652 226.984 52.705 226.984 52.3665C226.984 52.0956 226.967 51.5201 226.933 50.6399C226.899 49.7596 226.882 49.1841 226.882 48.9133C226.882 48.6424 226.899 48.0838 226.933 47.2374C226.967 46.391 227.001 45.5108 227.035 44.5967C227.068 43.6826 227.102 42.8024 227.136 41.956C227.17 41.1096 227.187 40.5172 227.187 40.1786ZM249.988 16.2599C250.158 16.226 250.344 16.2091 250.547 16.2091C250.682 16.2091 251.072 16.2429 251.715 16.3106C252.358 16.3784 252.748 16.4122 252.883 16.4122C254.576 16.4799 255.676 16.5138 256.184 16.5138C256.692 16.5138 257.25 16.5815 257.86 16.7169C258.74 16.92 259.468 17.0893 260.043 17.2247C260.619 17.3602 261.144 17.5464 261.618 17.7833C262.092 18.0203 262.532 18.3081 262.938 18.6467C263.344 18.9852 263.852 19.4253 264.462 19.967L265.274 20.7795C265.477 20.9827 265.68 21.2535 265.883 21.5921L266.137 22.2522C266.307 22.6924 266.493 23.1833 266.696 23.7249C266.899 24.2666 267.102 24.7745 267.305 25.2484C267.509 25.7224 267.61 26.0271 267.61 26.1625V26.6704C267.61 28.0246 267.559 29.1418 267.458 30.022C267.356 30.9023 267.136 31.9179 266.798 33.069C266.662 33.2721 266.594 33.4753 266.594 33.6784C266.594 33.8815 266.527 34.0847 266.391 34.2878C266.188 34.6263 265.951 34.9141 265.68 35.1511C265.41 35.3881 265.139 35.6758 264.868 36.0144L264.462 36.6238C264.326 36.8269 264.191 36.9962 264.055 37.1316C263.784 37.4702 263.531 37.6902 263.294 37.7918C263.057 37.8934 262.566 38.1134 261.821 38.452C261.482 38.5874 261.161 38.7397 260.856 38.909C260.551 39.0783 260.23 39.2307 259.891 39.3661C259.756 39.4338 259.417 39.5015 258.875 39.5692C258.334 39.6369 257.775 39.7046 257.2 39.7723C256.624 39.84 256.065 39.8908 255.524 39.9247C254.982 39.9585 254.644 39.9755 254.508 39.9755C252.409 39.9755 250.716 39.7554 249.43 39.3153C248.143 38.8752 247.466 38.6213 247.399 38.5535C246.654 38.0796 246.01 37.3348 245.469 36.3191C244.927 35.3034 244.589 34.5248 244.453 33.9831C244.318 33.5768 244.25 33.1875 244.25 32.8151V31.6471C244.182 31.5117 244.132 31.207 244.098 30.733C244.064 30.259 244.047 29.9543 244.047 29.8189V24.0804C244.047 23.0986 244.098 22.2861 244.199 21.6428C244.301 20.9996 244.453 20.4748 244.656 20.0686C244.859 19.6623 245.13 19.1883 245.469 18.6467C245.943 17.9018 246.366 17.4448 246.738 17.2755C247.111 17.1062 247.737 16.8862 248.617 16.6153C249.362 16.4122 249.819 16.2937 249.988 16.2599ZM288.533 40.1786V36.4715C288.533 36.0313 288.6 35.5743 288.736 35.1003C288.736 34.8295 288.753 34.5756 288.787 34.3386C288.82 34.1016 288.837 33.8815 288.837 33.6784C288.905 33.543 288.905 33.2044 288.837 32.6627C288.77 32.121 288.736 31.7825 288.736 31.6471C288.736 31.3762 288.753 30.8684 288.787 30.1236C288.82 29.3788 288.837 28.8709 288.837 28.6001C288.837 28.3293 288.787 27.7368 288.685 26.8227C288.583 25.9086 288.533 25.3161 288.533 25.0453V22.8616C288.533 21.7444 288.567 21.0165 288.634 20.678C288.634 20.4071 288.617 19.8993 288.583 19.1545C288.55 18.4097 288.533 17.9018 288.533 17.631V16.2091C288.533 15.9382 288.499 15.4812 288.431 14.8379C288.363 14.1947 288.313 13.5007 288.279 12.7558C288.245 12.011 288.194 11.3001 288.126 10.623C288.059 9.94586 288.025 9.47189 288.025 9.20104C288.025 7.44056 288.211 6.20486 288.583 5.49389C288.956 4.78293 289.684 4.12276 290.767 3.51336C291.173 3.31023 291.495 3.15788 291.732 3.05632C291.969 2.95475 292.206 2.87011 292.443 2.8024C292.68 2.73469 292.968 2.70083 293.306 2.70083H294.627C294.762 2.70083 295.168 2.66698 295.845 2.59927C296.523 2.53156 296.963 2.4977 297.166 2.4977H301.432C301.499 2.4977 301.702 2.48078 302.041 2.44692C302.379 2.41307 302.769 2.39614 303.209 2.39614C303.649 2.39614 304.055 2.37921 304.428 2.34535C304.8 2.3115 305.054 2.29457 305.189 2.29457C305.325 2.29457 305.782 2.27764 306.561 2.24379C307.339 2.20993 308.169 2.17608 309.049 2.14222C309.929 2.10837 310.725 2.07451 311.436 2.04066C312.147 2.0068 312.57 1.98987 312.705 1.98987C313.247 1.98987 313.823 2.0068 314.432 2.04066C315.041 2.07451 315.651 2.09144 316.26 2.09144C317.75 2.15915 318.969 2.20993 319.917 2.24379C320.864 2.27764 321.711 2.34535 322.456 2.44692C323.2 2.54849 323.962 2.71776 324.741 2.95475C325.52 3.19174 326.484 3.51336 327.635 3.91962C328.38 4.19047 328.973 4.41052 329.413 4.5798C329.853 4.74908 330.276 4.93528 330.682 5.13841C331.089 5.34155 331.495 5.5616 331.901 5.79859C332.308 6.03558 332.849 6.3572 333.526 6.76347C334.677 7.44057 335.49 7.93147 335.964 8.23617C336.438 8.54087 336.946 8.9302 337.487 9.40418C338.097 9.94586 338.757 10.6737 339.468 11.5878C340.179 12.5019 340.856 13.4668 341.499 14.4825C342.142 15.4981 342.701 16.5138 343.175 17.5294C343.649 18.5451 343.988 19.4253 344.191 20.1701C344.326 20.915 344.411 21.6428 344.445 22.3538C344.478 23.0648 344.563 23.7927 344.699 24.5375C344.902 25.4854 345.02 26.4503 345.054 27.4321C345.088 28.4139 345.105 29.3788 345.105 30.3267C345.105 32.5612 344.885 34.3724 344.445 35.7605C344.004 37.1486 343.514 38.4858 342.972 39.7723C342.633 40.5849 342.346 41.262 342.109 41.8037C341.872 42.3453 341.753 42.65 341.753 42.7177C341.482 43.124 341.211 43.4964 340.941 43.835C340.67 44.1735 340.365 44.5459 340.027 44.9522C339.688 45.3585 339.4 45.7647 339.163 46.171C338.926 46.5772 338.638 46.9835 338.3 47.3898C337.826 47.9315 337.301 48.4054 336.726 48.8117C336.15 49.218 335.253 49.8273 334.034 50.6399C332.951 51.3847 332.054 51.9602 331.343 52.3665C330.632 52.7728 329.87 53.0944 329.057 53.3314C328.245 53.5684 327.297 53.7884 326.214 53.9915C325.13 54.1947 323.742 54.4317 322.049 54.7025C321.575 54.7702 320.78 54.8379 319.663 54.9056C318.545 54.9733 317.784 55.0072 317.377 55.0072C317.174 55.0072 316.853 54.9903 316.412 54.9564C315.972 54.9226 315.481 54.8718 314.94 54.8041C314.398 54.7364 313.89 54.6856 313.416 54.6517C312.942 54.6179 312.604 54.6009 312.401 54.6009H310.979C310.166 54.6009 309.624 54.6348 309.354 54.7025C308.27 54.9056 307.576 55.1088 307.272 55.3119C306.967 55.515 306.645 55.7859 306.307 56.1244C305.765 56.6661 305.443 57.0724 305.342 57.3432C305.24 57.6141 305.122 58.1896 304.986 59.0698C304.919 59.5438 304.868 59.8824 304.834 60.0855C304.8 60.2886 304.783 60.4579 304.783 60.5933C304.783 60.661 304.8 60.8642 304.834 61.2027C304.868 61.5413 304.919 61.9306 304.986 62.3707C305.054 62.8108 305.105 63.234 305.139 63.6403C305.173 64.0466 305.189 64.3512 305.189 64.5544C305.257 64.8252 305.291 65.0622 305.291 65.2653V66.4841C305.291 66.6873 305.325 67.1782 305.393 67.9568C305.46 68.7355 305.494 69.2264 305.494 69.4295C305.494 70.3775 305.426 71.1392 305.291 71.7148C305.156 72.2903 304.851 72.7643 304.377 73.1367C303.903 73.5091 303.192 73.763 302.244 73.8984C301.296 74.0339 300.01 74.1016 298.385 74.1016C298.181 74.1016 297.843 74.0846 297.369 74.0508C296.895 74.0169 296.387 74 295.845 74C295.304 74 294.796 73.9831 294.322 73.9492C293.848 73.9154 293.509 73.8984 293.306 73.8984C293.103 73.8984 292.68 73.9323 292.037 74C291.393 74.0677 290.97 74.1016 290.767 74.1016C290.225 74.1016 289.65 73.7461 289.04 73.0351C288.431 72.3242 288.126 71.3932 288.126 70.2421C288.126 69.9035 288.143 69.2772 288.177 68.3631C288.211 67.449 288.245 66.4672 288.279 65.4177C288.313 64.3682 288.346 63.3864 288.38 62.4723C288.414 61.5582 288.431 60.898 288.431 60.4918C288.431 60.1532 288.397 59.4592 288.33 58.4097C288.262 57.3601 288.228 56.6661 288.228 56.3276C288.228 55.989 288.245 55.3288 288.279 54.347C288.313 53.3652 288.33 52.705 288.33 52.3665C288.33 52.0956 288.313 51.5201 288.279 50.6399C288.245 49.7596 288.228 49.1841 288.228 48.9133C288.228 48.6424 288.245 48.0838 288.279 47.2374C288.313 46.391 288.346 45.5108 288.38 44.5967C288.414 43.6826 288.448 42.8024 288.482 41.956C288.516 41.1096 288.533 40.5172 288.533 40.1786ZM311.334 16.2599C311.503 16.226 311.69 16.2091 311.893 16.2091C312.028 16.2091 312.418 16.2429 313.061 16.3106C313.704 16.3784 314.093 16.4122 314.229 16.4122C315.922 16.4799 317.022 16.5138 317.53 16.5138C318.038 16.5138 318.596 16.5815 319.206 16.7169C320.086 16.92 320.814 17.0893 321.389 17.2247C321.965 17.3602 322.489 17.5464 322.963 17.7833C323.437 18.0203 323.878 18.3081 324.284 18.6467C324.69 18.9852 325.198 19.4253 325.807 19.967L326.62 20.7795C326.823 20.9827 327.026 21.2535 327.229 21.5921L327.483 22.2522C327.652 22.6924 327.839 23.1833 328.042 23.7249C328.245 24.2666 328.448 24.7745 328.651 25.2484C328.854 25.7224 328.956 26.0271 328.956 26.1625V26.6704C328.956 28.0246 328.905 29.1418 328.803 30.022C328.702 30.9023 328.482 31.9179 328.143 33.069C328.008 33.2721 327.94 33.4753 327.94 33.6784C327.94 33.8815 327.872 34.0847 327.737 34.2878C327.534 34.6263 327.297 34.9141 327.026 35.1511C326.755 35.3881 326.484 35.6758 326.214 36.0144L325.807 36.6238C325.672 36.8269 325.536 36.9962 325.401 37.1316C325.13 37.4702 324.876 37.6902 324.639 37.7918C324.402 37.8934 323.911 38.1134 323.167 38.452C322.828 38.5874 322.506 38.7397 322.202 38.909C321.897 39.0783 321.575 39.2307 321.237 39.3661C321.101 39.4338 320.763 39.5015 320.221 39.5692C319.68 39.6369 319.121 39.7046 318.545 39.7723C317.97 39.84 317.411 39.8908 316.87 39.9247C316.328 39.9585 315.989 39.9755 315.854 39.9755C313.755 39.9755 312.062 39.7554 310.776 39.3153C309.489 38.8752 308.812 38.6213 308.744 38.5535C307.999 38.0796 307.356 37.3348 306.814 36.3191C306.273 35.3034 305.934 34.5248 305.799 33.9831C305.663 33.5768 305.596 33.1875 305.596 32.8151V31.6471C305.528 31.5117 305.477 31.207 305.443 30.733C305.41 30.259 305.393 29.9543 305.393 29.8189V24.0804C305.393 23.0986 305.443 22.2861 305.545 21.6428C305.646 20.9996 305.799 20.4748 306.002 20.0686C306.205 19.6623 306.476 19.1883 306.814 18.6467C307.288 17.9018 307.712 17.4448 308.084 17.2755C308.456 17.1062 309.083 16.8862 309.963 16.6153C310.708 16.4122 311.165 16.2937 311.334 16.2599ZM438.647 34.8972V32.9166C438.647 32.2057 438.681 31.5117 438.748 30.8345C438.748 29.1418 438.816 27.4829 438.952 25.8578C439.087 24.2328 439.189 22.5739 439.256 20.8811V19.2561C439.256 18.4435 439.239 17.5971 439.205 16.7169C439.172 15.8367 439.155 15.0072 439.155 14.2285V12.5527C439.155 12.2142 439.121 11.5371 439.053 10.5214C438.985 9.50574 438.952 8.82864 438.952 8.49008C438.952 7.81297 438.968 7.08509 439.002 6.30642C439.036 5.52774 439.189 4.81679 439.459 4.17354C439.73 3.53029 440.153 3.00553 440.729 2.59927C441.305 2.193 442.1 1.98987 443.116 1.98987C443.319 1.98987 443.759 2.02373 444.436 2.09144C445.113 2.15915 445.553 2.19301 445.756 2.19301C445.96 2.19301 446.417 2.17608 447.128 2.14222C447.839 2.10837 448.296 2.09144 448.499 2.09144H449.311C449.718 2.09144 450.158 2.10837 450.632 2.14222C451.106 2.17608 451.546 2.19301 451.952 2.19301H456.218C456.489 2.19301 457.081 2.17608 457.995 2.14222C458.909 2.10837 459.536 2.09144 459.874 2.09144C460.416 2.09144 461.076 2.07451 461.855 2.04066C462.633 2.0068 463.293 1.98987 463.835 1.98987C464.038 1.98987 464.445 2.0068 465.054 2.04066C465.663 2.07451 466.307 2.10837 466.984 2.14222C467.661 2.17608 468.304 2.20993 468.913 2.24379C469.523 2.27764 469.929 2.32843 470.132 2.39614C470.335 2.39614 470.674 2.46385 471.148 2.59927C471.622 2.73469 472.13 2.87011 472.671 3.00553C473.213 3.14095 473.721 3.27637 474.195 3.4118C474.669 3.54722 475.041 3.64878 475.312 3.71649C475.515 3.85191 475.854 4.02119 476.328 4.22432C476.802 4.42745 477.31 4.66444 477.851 4.93528C478.393 5.20613 478.884 5.44311 479.324 5.64624C479.764 5.84937 480.018 5.95094 480.086 5.95094C480.898 6.42492 481.728 7.00045 482.574 7.67756C483.42 8.35467 484.013 8.86249 484.351 9.20104C484.419 9.26875 484.605 9.52267 484.91 9.96279C485.215 10.4029 485.553 10.8769 485.926 11.3847C486.298 11.8925 486.637 12.3665 486.941 12.8066C487.246 13.2467 487.432 13.5007 487.5 13.5684L488.008 14.584C488.279 15.1257 488.549 15.769 488.82 16.5138C489.091 17.2586 489.345 18.0711 489.582 18.9514C489.819 19.8316 489.938 20.6441 489.938 21.3889C489.938 21.5244 489.921 21.8968 489.887 22.5062C489.853 23.1156 489.836 23.488 489.836 23.6234C489.836 23.9619 489.87 24.639 489.938 25.6547C490.005 26.6704 490.039 27.3475 490.039 27.686C490.039 28.2277 489.971 28.9556 489.836 29.8697C489.701 30.7838 489.514 31.7486 489.277 32.7643C489.04 33.78 488.77 34.7618 488.465 35.7097C488.16 36.6577 487.839 37.4702 487.5 38.1473C487.297 38.5536 486.992 39.0275 486.586 39.5692C486.18 40.1109 485.756 40.6526 485.316 41.1943C484.876 41.7359 484.453 42.2607 484.047 42.7685C483.641 43.2764 483.302 43.6657 483.031 43.9365C482.151 44.8845 481.44 45.6462 480.898 46.2218C480.357 46.7973 479.95 47.2543 479.679 47.5929C479.409 47.9315 479.239 48.2361 479.172 48.507C479.104 48.7778 479.07 49.0825 479.07 49.4211C479.07 50.1659 479.256 50.7414 479.629 51.1477C480.001 51.554 480.424 51.9264 480.898 52.2649C481.982 53.0775 483.099 53.7715 484.25 54.347C485.401 54.9226 486.146 55.278 486.484 55.4135C486.823 55.5489 487.111 55.6335 487.348 55.6674C487.585 55.7012 487.872 55.7859 488.211 55.9213C488.956 56.3953 489.396 56.9369 489.531 57.5463C489.667 58.1557 489.734 58.6297 489.734 58.9683C489.734 59.3068 489.717 59.6792 489.684 60.0855C489.65 60.4918 489.633 60.8642 489.633 61.2027C489.633 61.4058 489.667 61.846 489.734 62.5231C489.802 63.2002 489.836 63.6403 489.836 63.8434C489.836 63.9788 489.819 64.2666 489.785 64.7067C489.751 65.1469 489.717 65.6039 489.684 66.0779C489.65 66.5518 489.616 66.992 489.582 67.3982C489.548 67.8045 489.531 68.1092 489.531 68.3123C489.531 68.4477 489.548 68.8032 489.582 69.3788C489.616 69.9543 489.633 70.3098 489.633 70.4452C489.633 71.2577 489.43 71.884 489.023 72.3242C488.617 72.7643 488.16 73.1198 487.652 73.3906C487.145 73.6614 486.671 73.8307 486.23 73.8984C485.79 73.9661 485.503 74 485.367 74C484.284 74 483.234 73.8307 482.219 73.4922C481.203 73.1536 480.272 72.7643 479.426 72.3242C478.579 71.884 477.885 71.4439 477.343 71.0038C476.802 70.5637 476.429 70.2759 476.226 70.1405C475.481 69.5311 474.449 68.6339 473.128 67.449C471.808 66.2641 470.674 65.0961 469.726 63.945C469.591 63.7419 469.421 63.5218 469.218 63.2848C469.015 63.0478 468.812 62.8616 468.609 62.7262C468.067 62.2522 467.424 61.8121 466.679 61.4058C466.544 61.2704 466.171 60.9657 465.562 60.4918C464.952 60.0178 464.58 59.7131 464.445 59.5777C463.09 58.6974 462.092 58.1727 461.448 58.0034C460.805 57.8341 460.111 57.7495 459.366 57.7495C459.095 57.7495 458.808 57.8172 458.503 57.9526C458.198 58.088 457.978 58.1896 457.843 58.2573C457.369 58.5959 457.047 58.9006 456.878 59.1714C456.709 59.4422 456.522 59.8146 456.319 60.2886C455.981 60.9657 455.778 61.5243 455.71 61.9645C455.642 62.4046 455.608 63.3356 455.608 64.7575C455.608 65.0961 455.625 65.4177 455.659 65.7224C455.693 66.0271 455.778 66.7211 455.913 67.8045C455.981 68.0076 456.082 68.5324 456.218 69.3788C456.353 70.2251 456.421 70.7837 456.421 71.0546C456.421 72.0025 456.133 72.7135 455.558 73.1875C454.982 73.6614 454.356 73.8984 453.679 73.8984C453.34 73.8984 452.985 73.8646 452.612 73.7969C452.24 73.7292 451.884 73.6614 451.546 73.5937C451.207 73.526 450.869 73.4752 450.53 73.4414C450.191 73.4075 449.853 73.3906 449.514 73.3906C449.447 73.3906 449.108 73.4075 448.499 73.4414C447.889 73.4752 447.517 73.4922 447.382 73.4922C447.043 73.5599 446.704 73.5937 446.366 73.5937H445.046C444.775 73.5937 444.165 73.6107 443.217 73.6445C442.269 73.6784 441.66 73.6953 441.389 73.6953C440.78 73.6953 440.272 73.5599 439.866 73.289C439.459 73.0182 439.138 72.6966 438.901 72.3242C438.664 71.9518 438.511 71.5624 438.444 71.1562C438.376 70.7499 438.342 70.4113 438.342 70.1405C438.342 69.7342 438.376 69.328 438.444 68.9217L438.647 67.7029C438.715 67.3644 438.748 67.0258 438.748 66.6873V64.8591C438.748 64.4528 438.732 64.0296 438.698 63.5895C438.664 63.1494 438.647 62.7431 438.647 62.3707V61.5074C438.647 60.8303 438.664 60.1532 438.698 59.4761C438.732 58.799 438.782 58.088 438.85 57.3432C438.918 56.463 438.968 55.7351 439.002 55.1595C439.036 54.584 439.053 54.1608 439.053 53.89C439.053 53.1452 439.019 52.3665 438.952 51.554C438.884 50.7414 438.85 49.9628 438.85 49.218V47.8976C438.85 47.2882 438.833 46.6619 438.799 46.0186C438.765 45.3754 438.748 44.7491 438.748 44.1397V42.8193C438.748 42.5485 438.765 41.9729 438.799 41.0927C438.833 40.2125 438.85 39.6031 438.85 39.2645C438.85 39.1291 438.833 38.8582 438.799 38.452C438.765 38.0457 438.748 37.6056 438.748 37.1316C438.748 36.6576 438.732 36.2175 438.698 35.8113C438.664 35.405 438.647 35.1003 438.647 34.8972ZM458.96 17.8341C459.299 17.6987 459.569 17.631 459.773 17.631L460.433 17.6818C460.873 17.7156 461.347 17.7664 461.855 17.8341C462.362 17.9018 462.836 17.9526 463.277 17.9865C463.717 18.0203 463.971 18.0373 464.038 18.0373C464.783 18.0373 465.359 18.0711 465.765 18.1388C466.171 18.2065 466.916 18.4097 467.999 18.7482C469.083 19.0868 469.997 19.6115 470.742 20.3225C471.486 21.0335 472.062 21.7783 472.468 22.5569C472.875 23.3356 473.162 24.0974 473.332 24.8422C473.501 25.587 473.585 26.1964 473.585 26.6704C473.585 28.5663 473.332 30.1236 472.824 31.3424C472.316 32.5612 471.893 33.5091 471.554 34.1862C470.742 35.6081 470.2 36.5222 469.929 36.9285C469.658 37.3348 469.286 37.7072 468.812 38.0457C468.609 38.2489 468.389 38.4351 468.152 38.6043C467.915 38.7736 467.695 38.9937 467.492 39.2645C467.221 39.3999 466.984 39.5861 466.781 39.8231C466.577 40.0601 466.374 40.2463 466.171 40.3817C465.9 40.5172 465.663 40.6187 465.46 40.6864C465.257 40.7541 465.02 40.8557 464.749 40.9911C464.14 41.262 463.717 41.4312 463.48 41.499L462.413 41.8036C461.668 41.9391 461.211 42.0068 461.042 42.0068H460.483C460.416 42.0068 459.976 41.9899 459.163 41.956C458.351 41.9221 457.809 41.8375 457.538 41.7021C456.726 41.4312 456.235 40.9911 456.065 40.3817C455.896 39.7723 455.778 39.2307 455.71 38.7567C455.71 38.5535 455.693 38.1811 455.659 37.6395C455.625 37.0978 455.591 36.5222 455.558 35.9128C455.524 35.3034 455.49 34.7279 455.456 34.1862C455.422 33.6445 455.405 33.2721 455.405 33.069C455.405 32.8659 455.422 32.5442 455.456 32.1041C455.49 31.664 455.507 31.19 455.507 30.6822C455.507 30.1744 455.524 29.7004 455.558 29.2603C455.591 28.8202 455.608 28.4985 455.608 28.2954C455.608 28.0923 455.591 27.7537 455.558 27.2797C455.524 26.8058 455.507 26.2979 455.507 25.7563C455.507 25.2146 455.49 24.7237 455.456 24.2836C455.422 23.8434 455.405 23.5218 455.405 23.3187C455.405 22.7093 455.456 22.2353 455.558 21.8968C455.659 21.5582 455.879 20.9488 456.218 20.0686C456.489 19.5269 456.709 19.1545 456.878 18.9514C457.047 18.7482 457.403 18.5112 457.944 18.2404L458.96 17.8341Z" fill="#59291C"/>
<path fill-rule="evenodd" clip-rule="evenodd" d="M527.304 15.7082C527.304 17.4754 526.976 19.1351 526.319 20.6874C525.663 22.2396 524.761 23.5949 523.615 24.7531C522.468 25.9113 521.113 26.8248 519.549 27.4934C517.985 28.1621 516.295 28.4964 514.48 28.4964C512.833 28.4964 511.244 28.186 509.716 27.5651C508.188 26.9442 506.838 26.0725 505.668 24.9501C504.498 23.8277 503.561 22.4844 502.856 20.9202C502.152 19.356 501.8 17.6306 501.8 15.744C501.8 13.9052 502.14 12.2097 502.82 10.6574C503.501 9.10514 504.42 7.76185 505.579 6.6275C506.737 5.49316 508.086 4.6036 509.627 3.95881C511.167 3.31403 512.797 2.99164 514.516 2.99164C516.355 2.99164 518.056 3.33194 519.621 4.01255C521.185 4.69316 522.534 5.61256 523.668 6.77079C524.803 7.92902 525.692 9.27828 526.337 10.8186C526.982 12.3589 527.304 13.9888 527.304 15.7082ZM516.45 7.4514C515.782 7.41557 515.101 7.39766 514.409 7.39766H508.57V23.8038H512.51V16.9261C513.274 16.9261 513.871 16.95 514.301 16.9978C514.731 17.0455 515.065 17.1769 515.304 17.3918C515.543 17.6067 515.71 17.9351 515.806 18.3769C515.901 18.8187 516.009 19.4456 516.128 20.2575C516.248 20.974 516.361 21.6187 516.468 22.1919C516.576 22.765 516.761 23.3023 517.024 23.8038H521.537C521.131 23.0635 520.839 22.3053 520.659 21.5292C520.48 20.753 520.307 19.8038 520.14 18.6814C520.045 18.1799 519.943 17.762 519.836 17.4276C519.728 17.0933 519.603 16.8187 519.459 16.6037C519.316 16.3888 519.149 16.2097 518.958 16.0664C518.767 15.9231 518.552 15.7679 518.313 15.6007C518.576 15.4813 518.874 15.3321 519.209 15.153C519.543 14.9739 519.854 14.741 520.14 14.4545C520.427 14.1679 520.671 13.8157 520.874 13.3977C521.077 12.9798 521.179 12.4604 521.179 11.8395C521.179 11.0753 520.958 10.2932 520.516 9.49321C520.074 8.6932 519.328 8.12603 518.277 7.7917C517.728 7.60065 517.119 7.48722 516.45 7.4514ZM514.23 13.8097H512.51V10.4067H514.856C515.155 10.4067 515.394 10.4126 515.573 10.4246C515.752 10.4365 515.901 10.4544 516.021 10.4783C516.14 10.5022 516.259 10.538 516.379 10.5858C516.713 10.729 516.94 10.944 517.059 11.2305C517.179 11.5171 517.239 11.7917 517.239 12.0544C517.239 12.3171 517.185 12.5858 517.077 12.8604C516.97 13.135 516.785 13.344 516.522 13.4873C516.283 13.6306 515.991 13.7201 515.645 13.756C515.298 13.7918 514.827 13.8097 514.23 13.8097ZM519.119 26.4367C517.698 27.0457 516.164 27.3501 514.516 27.3501C512.916 27.3501 511.418 27.0516 510.021 26.4546C508.624 25.8576 507.4 25.0397 506.349 24.0009C505.298 22.962 504.468 21.7322 503.859 20.3113C503.25 18.8903 502.946 17.3679 502.946 15.744C502.946 14.144 503.244 12.6395 503.841 11.2305C504.438 9.82157 505.262 8.59171 506.313 7.54095C507.364 6.49018 508.594 5.66033 510.003 5.05137C511.412 4.4424 512.94 4.13792 514.588 4.13792C516.236 4.13792 517.764 4.4424 519.173 5.05137C520.582 5.66033 521.806 6.49615 522.845 7.55886C523.883 8.62156 524.695 9.85142 525.28 11.2485C525.866 12.6455 526.158 14.1321 526.158 15.7082C526.158 17.3321 525.86 18.8485 525.263 20.2575C524.666 21.6665 523.848 22.8964 522.809 23.9471C521.77 24.9979 520.54 25.8277 519.119 26.4367Z" fill="#59291C"/>
<path fill-rule="evenodd" clip-rule="evenodd" d="M361.111 58.5144C359.952 58.5144 359.012 59.4542 359.012 60.6136V73.4184C359.012 74.5778 359.952 75.5176 361.111 75.5176H422.091C423.251 75.5176 424.191 74.5778 424.191 73.4184V60.6136C424.191 59.4542 423.251 58.5144 422.091 58.5144H361.111Z" fill="#DBBEAF"/>
<path fill-rule="evenodd" clip-rule="evenodd" d="M361.111 39.6219C359.952 39.6219 359.012 40.5618 359.012 41.7211V54.526C359.012 55.6853 359.952 56.6251 361.111 56.6251H422.091C423.251 56.6251 424.191 55.6853 424.191 54.526V41.7211C424.191 40.5618 423.251 39.6219 422.091 39.6219H361.111Z" fill="#59291C"/>
<path fill-rule="evenodd" clip-rule="evenodd" d="M361.111 0.892456C359.952 0.892456 359.012 1.83228 359.012 2.99162V15.7965C359.012 16.9558 359.952 17.8957 361.111 17.8957H422.091C423.251 17.8957 424.191 16.9558 424.191 15.7965V2.99162C424.191 1.83228 423.251 0.892456 422.091 0.892456H361.111Z" fill="#69B33A"/>
<path fill-rule="evenodd" clip-rule="evenodd" d="M360.997 22.2824C359.883 22.3431 359.012 23.2635 359.012 24.3785V35.5161C359.012 36.7203 360.023 37.6776 361.225 37.6122L422.206 34.2905C423.319 34.2299 424.191 33.3095 424.191 32.1945V21.0569C424.191 19.8527 423.18 18.8953 421.977 18.9608L360.997 22.2824Z" fill="#EE1D23"/>
</svg>
